<?xml version="1.0" encoding="utf-8"?>
<!-- Generator: Adobe Illustrator 19.1.0, SVG Export Plug-In . SVG Version: 6.00 Build 0)  -->
<svg version="1.1" id="Layer_1" xmlns="http://www.w3.org/2000/svg" xmlns:xlink="http://www.w3.org/1999/xlink" x="0px" y="0px"
	 viewBox="0 0 459.5 45" style="enable-background:new 0 0 459.5 45;" xml:space="preserve">
<style type="text/css">
	.st0{fill:#333333;}
	.st1{fill:#FFFFFF;}
</style>
<path class="st0" d="M61.9,1.4C61.9,1.4,61.8,1.4,61.9,1.4C61.8,1.4,61.8,1.4,61.9,1.4C61.9,1.4,61.9,1.4,61.9,1.4z M61.9,1.5
	c0,0,0.1,0,0.1,0C61.9,1.5,62,1.5,61.9,1.5z M97.3,1.6C97.3,1.6,97.3,1.6,97.3,1.6c0.1,0,0.3,0,0.4,0C97.6,1.6,97.4,1.6,97.3,1.6z
	 M63.2,1.4H63C63,1.4,63,1.5,63.2,1.4C63.1,1.4,63.1,1.4,63.2,1.4z M58.4,1.8C58.4,1.8,58.4,1.8,58.4,1.8
	C58.4,1.8,58.4,1.8,58.4,1.8C58.4,1.8,58.4,1.8,58.4,1.8C58.5,1.8,58.5,1.8,58.4,1.8z M60,1.5c0,0.1-0.1,0.1,0.1,0.1
	C60.2,1.5,60.1,1.5,60,1.5z M63.4,1.4L63.4,1.4C63.4,1.4,63.4,1.4,63.4,1.4C63.4,1.4,63.4,1.4,63.4,1.4z M58.9,1.5
	C58.9,1.5,58.9,1.5,58.9,1.5c-0.1,0-0.1,0-0.1,0C58.8,1.5,58.8,1.5,58.9,1.5C58.9,1.5,58.9,1.4,58.9,1.5z M334.6,1.9
	c0.1,0,0-0.1-0.1-0.1C334.5,1.8,334.5,1.8,334.6,1.9z M57.9,1.5C57.8,1.5,57.8,1.5,57.9,1.5C57.8,1.5,57.8,1.5,57.9,1.5
	c-0.1-0.1-0.1-0.1-0.1-0.1C57.8,1.5,57.8,1.6,57.9,1.5z M113.9,1.1L113.9,1.1C113.8,1.1,113.8,1.1,113.9,1.1l-0.3-0.1
	c0,0,0,0-0.1,0.1c0.1,0,0.1,0,0.2,0C113.8,1.1,113.8,1.1,113.9,1.1z M69.2,1.7c-0.1,0.1,0,0.1,0.1,0.1C69.4,1.8,69.3,1.6,69.2,1.7z
	 M93.3,1.7C93.3,1.7,93.3,1.7,93.3,1.7C93.2,1.7,93.2,1.8,93.3,1.7C93.3,1.8,93.3,1.7,93.3,1.7z M68.9,1.4h-0.1
	c-0.1,0-0.1,0.1,0,0.1C68.9,1.5,68.9,1.4,68.9,1.4z M63.5,1.5C63.5,1.5,63.5,1.5,63.5,1.5C63.5,1.4,63.5,1.4,63.5,1.5L63.5,1.5
	C63.4,1.4,63.4,1.4,63.5,1.5C63.4,1.4,63.5,1.4,63.5,1.5z M57.7,1.6c0-0.1,0-0.1,0-0.1c0,0-0.1,0-0.1,0C57.5,1.6,57.6,1.6,57.7,1.6z
	 M68.5,1.8c0,0,0.1,0.1,0.1,0.1C68.6,1.8,68.6,1.8,68.5,1.8z M94.6,1.8c0-0.1,0-0.1-0.1-0.1C94.5,1.8,94.5,1.8,94.6,1.8z M63.7,1.7
	C63.7,1.8,63.7,1.8,63.7,1.7C63.7,1.8,63.7,1.8,63.7,1.7C63.7,1.8,63.7,1.8,63.7,1.7z M64.4,1.5C64.4,1.4,64.4,1.4,64.4,1.5
	l-0.2-0.1C64.2,1.5,64.3,1.5,64.4,1.5z M456.2,42.2c-0.1,0.2,0.2,0.2,0.2,0L456.2,42.2C456.3,42.2,456.2,42.2,456.2,42.2z M95,1.7
	C94.9,1.7,95.1,1.7,95,1.7c0.1,0,0.2-0.1,0.3-0.1c0,0,0,0-0.1-0.1c-0.1,0-0.2,0-0.2,0C94.9,1.7,94.9,1.7,95,1.7z M65.4,1.5
	C65.4,1.4,65.4,1.4,65.4,1.5L65,1.4c0,0,0,0.1,0,0.1C65.1,1.4,65.3,1.4,65.4,1.5z M352.4,1.5C352.5,1.5,352.5,1.5,352.4,1.5
	C352.5,1.5,352.4,1.5,352.4,1.5z M185.1,42.4c0.1-0.1,0.1-0.1-0.1-0.2C185,42.3,185,42.4,185.1,42.4z M14.8,1.2L14.8,1.2
	C14.8,1.2,14.8,1.2,14.8,1.2L14.8,1.2z M14.8,1.2C14.9,1.2,14.8,1.2,14.8,1.2C14.8,1.2,14.8,1.3,14.8,1.2L14.8,1.2
	C14.9,1.2,14.9,1.2,14.8,1.2z M16.1,1.1C16.1,1.1,16.1,1.1,16.1,1.1L16.1,1.1C16,1.1,16.1,1.1,16.1,1.1C16.1,1.1,16,1.1,16.1,1.1
	c0,0-0.1,0.1,0,0.1C16.1,1.2,16.1,1.2,16.1,1.1z M7,1.3C7,1.3,7,1.3,7,1.3L7,1.3C7,1.3,7,1.3,7,1.3z M15.6,1.2c0-0.1,0-0.1-0.1-0.1
	v0C15.5,1.1,15.5,1.2,15.6,1.2z M15.8,1.1C15.8,1.2,15.8,1.2,15.8,1.1c-0.1,0.1-0.1,0.1,0,0.1C15.9,1.2,15.9,1.2,15.8,1.1z M6.8,0.9
	L6.8,0.9c-0.1,0.1-0.1,0.2,0,0.2C6.9,1.1,6.9,0.9,6.8,0.9z M5.7,1.2C5.7,1.2,5.7,1.3,5.7,1.2L5.7,1.2c0.1,0.1,0.1,0.1,0.1,0.1
	C5.7,1.2,5.7,1.2,5.7,1.2C5.7,1.2,5.7,1.2,5.7,1.2C5.7,1.2,5.7,1.2,5.7,1.2C5.7,1.2,5.7,1.2,5.7,1.2z M4.8,0.9
	C4.8,0.9,4.8,0.9,4.8,0.9c0,0.1,0,0.1,0.1,0.1C4.9,1,4.9,1,4.8,0.9z M5.9,0.9C5.9,0.9,5.9,0.9,5.9,0.9C5.9,0.9,5.9,0.9,5.9,0.9
	C5.8,1,6.1,0.9,5.9,0.9z M386.2,1.2c0-0.1,0-0.2-0.1-0.3L386.2,1.2C386.2,1.2,386.2,1.2,386.2,1.2z M15.1,1.2c0.1,0,0.2,0,0.3-0.2
	C15.1,1,15.1,1,15.1,1.2C15.1,1.2,15.1,1.2,15.1,1.2C15.1,1.2,15.1,1.2,15.1,1.2z M56.5,1.7C56.4,1.7,56.5,1.7,56.5,1.7L56.5,1.7z
	 M56.7,1.8C56.8,1.7,56.6,1.8,56.7,1.8L56.7,1.8z M49.7,1.7L49.7,1.7C49.7,1.7,49.7,1.7,49.7,1.7C49.7,1.7,49.7,1.7,49.7,1.7
	c-0.1,0.1-0.1,0.1,0.1,0.2C49.8,1.8,49.8,1.7,49.7,1.7z M57,1.6c-0.1-0.1-0.2,0-0.3,0c0,0,0-0.1,0.1-0.1c-0.1,0-0.1,0-0.2,0
	C56.6,1.7,56.9,1.8,57,1.6z M22.8,1.3C22.8,1.2,22.7,1.2,22.8,1.3L22.8,1.3C22.7,1.2,22.7,1.2,22.8,1.3c-0.1-0.1-0.1-0.1-0.1-0.1
	c-0.1,0-0.1,0-0.2,0.1c0,0,0,0,0,0H22.8z M57.4,1.8C57.3,1.8,57.4,1.8,57.4,1.8c0.1,0,0.1-0.1,0.1-0.1c-0.1,0-0.2,0-0.3,0
	C57.2,1.8,57.2,1.9,57.4,1.8z M16.1,1.3L16.1,1.3C16.1,1.3,16.1,1.3,16.1,1.3C16.1,1.3,16.1,1.3,16.1,1.3
	C16.1,1.3,16.1,1.3,16.1,1.3C16.1,1.3,16.1,1.3,16.1,1.3L16.1,1.3z M17.1,1.2C17.1,1.2,17.1,1.3,17.1,1.2l0.4,0
	c-0.1-0.1-0.1-0.4,0-0.4c-0.2-0.2-0.4-0.3-0.2-0.6c0,0-0.1-0.1-0.2-0.1h0c0,0,0,0,0,0c0,0,0,0,0,0c0,0,0,0,0,0c0,0,0,0,0,0
	C16.9,0.5,16.8,1.1,17.1,1.2z M16.7,0.8C16.7,0.8,16.6,0.8,16.7,0.8C16.6,0.7,16.6,0.7,16.7,0.8c0,0.2-0.3,0.6-0.3,0.2
	c-0.1,0-0.1,0.2-0.1,0.3h0.5C16.8,1.1,16.8,0.9,16.7,0.8z M21.2,1.2C21.2,1.2,21.2,1.3,21.2,1.2L21.2,1.2
	C21.2,1.3,21.2,1.2,21.2,1.2z M22,0.9C22,0.9,22,0.9,22,0.9C22,0.9,22,0.9,22,0.9C22,0.9,22,0.9,22,0.9z M22.2,0.9
	c-0.1,0-0.1,0-0.2-0.1c0,0,0,0,0,0c0,0,0,0,0,0C21.8,1,21.9,1.4,22.2,0.9z M6.6,0.8C6.6,0.8,6.6,0.8,6.6,0.8
	C6.6,0.8,6.6,0.8,6.6,0.8C6.6,0.8,6.6,0.8,6.6,0.8C6.6,0.8,6.6,0.8,6.6,0.8L6.6,0.8c-0.1,0-0.1,0.1-0.1,0.1C6.6,0.9,6.8,0.9,6.6,0.8
	z M349.9,1.4C350,1.4,350,1.4,349.9,1.4l-0.2-0.1C349.8,1.4,349.8,1.4,349.9,1.4z M342.1,0.6c-0.1,0-0.2,0.1-0.3,0.1
	C342,0.7,342.1,0.7,342.1,0.6z M355,1.4L355,1.4C355,1.4,355,1.4,355,1.4C355,1.4,355,1.4,355,1.4z M349.2,1.4H349
	C349,1.6,349.1,1.5,349.2,1.4z M359.3,1.6c0-0.2-0.1-0.2-0.2-0.1C359.1,1.5,359.2,1.5,359.3,1.6C359.2,1.5,359.3,1.5,359.3,1.6z
	 M359.2,1.8c0,0,0.1-0.1,0.1-0.1C359.1,1.7,359.1,1.7,359.2,1.8z M115.5,1.1L115.5,1.1C115.5,1.1,115.5,1.1,115.5,1.1
	c0.1,0,0.1,0,0.2,0c0,0,0,0,0,0c0,0,0,0-0.1,0C115.6,1.1,115.5,1.1,115.5,1.1C115.5,1.1,115.5,1.1,115.5,1.1
	C115.5,1.1,115.5,1.1,115.5,1.1L115.5,1.1z M339,1.1C339,1.1,339,1,339,1.1C339,1,339,1,339,1.1L339,1.1c0-0.1,0-0.1,0-0.1
	c0-0.1,0-0.1,0-0.1c-0.1,0-0.2,0-0.3,0C338.8,0.9,338.9,1,339,1.1C338.9,1,338.9,1.1,339,1.1z M299.1,1.2c0.1-0.1,0.2-0.2,0.2-0.3v0
	c0,0,0,0,0,0c0,0-0.1,0-0.1,0c-0.1,0-0.1,0-0.2,0c0,0,0,0-0.1,0c-0.1,0-0.2,0-0.4,0c0,0,0,0,0,0c0,0-0.1,0.1-0.1,0.1c0,0,0,0,0,0
	c0,0,0,0,0,0c0,0,0,0,0,0C298.4,1.3,298.8,1.3,299.1,1.2z M360.6,1.8c0-0.1,0-0.1-0.1-0.1C360.4,1.8,360.5,1.8,360.6,1.8z
	 M335.3,1.5c0,0,0,0.1,0,0.1c0,0,0,0.1,0,0.1c0,0.1,0.1,0.2,0.2,0.2c0,0,0,0,0,0c0,0,0,0,0,0c0,0,0-0.1,0.1-0.1c0,0,0,0,0.1,0
	c0,0,0-0.1,0-0.1c0-0.1,0-0.1-0.1-0.2c0,0-0.1-0.1-0.1-0.1c0,0,0,0,0,0v0c0,0,0,0,0,0c0,0,0,0,0,0h-0.3c0,0,0,0,0,0c0,0,0,0,0,0
	c0,0,0,0,0,0C335.3,1.4,335.3,1.4,335.3,1.5z M335.1,1.7c-0.1,0.1,0,0.1,0.1,0.1C335.4,1.7,335.3,1.6,335.1,1.7z M360.9,1.7
	c0.1,0,0.2-0.1,0.3-0.1C361.2,1.5,360.7,1.7,360.9,1.7z M376.5,1.3c0.2,0,0.4-0.1,0.6-0.1c0,0,0,0-0.1,0c-0.1,0-0.2,0-0.3,0
	c0,0,0,0,0,0h0c0,0-0.1,0-0.2,0C376.6,1.2,376.5,1.2,376.5,1.3L376.5,1.3L376.5,1.3C376.5,1.2,376.4,1.2,376.5,1.3
	C376.4,1.2,376.4,1.2,376.5,1.3C376.4,1.2,376.4,1.3,376.5,1.3C376.4,1.3,376.4,1.3,376.5,1.3C376.4,1.3,376.5,1.3,376.5,1.3z
	 M297.1,1.2C297.2,1.2,297.2,1.2,297.1,1.2C297.2,1.1,297.2,1.1,297.1,1.2C297.2,1.1,297.2,1.1,297.1,1.2c0-0.1,0-0.2,0-0.2
	c-0.1,0-0.1,0-0.1,0c0,0-0.1,0-0.1,0C297,1.1,297,1.1,297.1,1.2C297.1,1.2,297.1,1.2,297.1,1.2z M12.5,42.7
	C12.5,42.7,12.5,42.7,12.5,42.7C12.5,42.7,12.5,42.7,12.5,42.7C12.5,42.7,12.5,42.7,12.5,42.7z M391.4,1.2c0.1,0,0.2,0,0.3,0V1.1
	c-0.1,0-0.2-0.1-0.3-0.1c-0.1,0-0.1,0.1-0.1,0.2c0,0,0,0,0,0L391.4,1.2z M387.5,1.2c0.3-0.1,0.5-0.2,0.6-0.5c0,0,0,0,0,0
	c0,0,0,0,0,0c0,0,0,0,0,0C387.6,0.5,387.5,0.8,387.5,1.2C387.4,1.1,387.4,1.1,387.5,1.2C387.4,1.1,387.4,1.2,387.5,1.2
	C387.4,1.2,387.5,1.2,387.5,1.2z M377.5,1.2L377.5,1.2C377.5,1.2,377.5,1.2,377.5,1.2C377.5,1.2,377.5,1.2,377.5,1.2L377.5,1.2z
	 M389.9,0.5C389.9,0.5,389.9,0.5,389.9,0.5c0.2,0,0.3,0,0.3-0.1c-0.1,0-0.2-0.1-0.2-0.1c0,0-0.1,0-0.1-0.1L389.9,0.5
	C389.8,0.5,389.8,0.5,389.9,0.5C389.8,0.5,389.9,0.5,389.9,0.5z M369.6,1.1c0,0,0.1,0,0.1-0.1c0,0,0,0,0,0c0,0,0,0,0,0c0,0,0,0,0,0
	c0,0-0.1-0.1-0.2-0.1c0,0-0.1-0.1-0.1-0.1c-0.1,0.1-0.2,0.1-0.2,0.2c0.1,0,0.2,0,0.2,0.1C369.4,1,369.5,1.1,369.6,1.1z M371.5,1.2
	C371.5,1.2,371.6,1.2,371.5,1.2c0.1,0,0.2,0,0.2,0c0,0,0,0,0,0C371.6,1.2,371.5,1.2,371.5,1.2C371.5,1.2,371.5,1.2,371.5,1.2
	C371.5,1.2,371.5,1.2,371.5,1.2z M399.1,1.2h0.3c0,0,0,0,0,0c0,0,0-0.1,0-0.1c0-0.2-0.1-0.3-0.2-0.3c0,0,0,0-0.1,0c0,0,0,0.1,0,0.1
	C399,0.9,399,1,399,1C399,1.1,399,1.1,399.1,1.2C399,1.2,399,1.2,399.1,1.2z M397.4,0.8c0,0,0.1,0,0.1,0.1c0,0,0,0.1,0,0.1
	c0,0,0,0,0,0c0,0,0,0,0,0c0,0,0,0,0,0c0.3,0,0.5-0.2,0.5-0.4c0,0,0,0,0,0c0,0,0,0,0,0c0,0,0,0,0,0l0,0
	C397.8,0.5,397.5,0.5,397.4,0.8C397.4,0.7,397.4,0.7,397.4,0.8C397.4,0.8,397.4,0.8,397.4,0.8C397.4,0.8,397.4,0.8,397.4,0.8z
	 M400.2,1c0.2,0.1,0.3,0.1,0.4,0c-0.2-0.1-0.3-0.1-0.5-0.2C400.1,0.8,400.1,0.9,400.2,1C400.2,1,400.2,1,400.2,1z M300.9,1.3
	C300.9,1.3,300.9,1.3,300.9,1.3c0-0.1,0-0.1,0-0.1c0-0.1,0-0.2-0.1-0.2c-0.1,0-0.1,0-0.2,0c0,0,0,0.1,0,0.1c0,0,0,0.1,0,0.1
	c0,0.1,0,0.1,0.1,0.2C300.7,1.3,300.8,1.3,300.9,1.3z M155.4,1.1C155.4,1.1,155.4,1.1,155.4,1.1C155.4,1.1,155.4,1.1,155.4,1.1
	c-0.1,0-0.1,0-0.2,0c0,0-0.1,0-0.1,0.1c0,0,0,0,0,0C155.3,1.1,155.4,1.1,155.4,1.1z M150.1,1.1C150.1,1.1,150.1,1.1,150.1,1.1
	L150.1,1.1c0.1,0,0.1,0,0.2,0c0,0,0,0,0.1,0h0l0,0c0,0,0.1,0,0.1,0c0,0,0,0,0,0c0,0,0,0,0,0c0,0,0,0,0,0c0,0,0,0,0,0
	c-0.2,0-0.4,0.1-0.6,0.1c0,0,0,0,0.1,0C150,1.1,150.1,1.1,150.1,1.1z M164.6,0.2c0-0.1,0-0.1,0.1-0.2c0,0-0.1,0-0.1,0
	C164.5,0.1,164.5,0.1,164.6,0.2C164.5,0.2,164.5,0.2,164.6,0.2C164.6,0.2,164.6,0.2,164.6,0.2z M164.9,0.1
	C164.9,0.2,164.9,0.2,164.9,0.1C165,0.2,165,0.2,164.9,0.1C165,0.1,165,0,164.9,0c0,0-0.1,0-0.1,0c0,0,0,0,0,0
	C164.9,0,164.9,0.1,164.9,0.1z M171.3,0.2c0.1,0,0.2,0,0.3,0.1c0.1,0,0.2,0.1,0.3,0c0,0,0.1,0,0.1,0l0,0c0.1,0,0.1,0,0.2,0
	c0.1,0,0.3,0.1,0.4,0c0,0,0,0,0.1,0c0.1,0,0.3-0.1,0.3-0.3c0,0,0,0,0,0c-0.1,0-0.2,0-0.3,0h-0.1c0,0,0,0,0,0c-0.1,0-0.2,0-0.4,0
	h-0.5c-0.1,0-0.2,0-0.2,0c0,0-0.1,0-0.1,0C171.2,0,171.2,0.1,171.3,0.2L171.3,0.2C171.2,0.1,171.2,0.1,171.3,0.2
	C171.2,0.2,171.2,0.2,171.3,0.2z M168.9,1c0.1,0,0.2,0,0.3,0c0,0,0.1-0.1,0.1-0.1c0,0,0,0,0,0c0,0,0,0,0,0c-0.1-0.2-0.3-0.2-0.5-0.1
	c-0.1,0-0.3,0-0.5-0.1c0,0,0,0,0,0c0,0,0,0,0,0v0.3h0.1C168.5,1,168.7,1,168.9,1z M149.4,1.1C149.4,1.1,149.4,1.1,149.4,1.1
	C149.4,1.1,149.4,1.1,149.4,1.1L149.4,1.1L149.4,1.1z M284.7,0.9c0,0-0.1-0.1-0.1-0.1c0,0,0,0,0,0c-0.1,0-0.1,0-0.2,0
	c-0.1,0-0.3,0.1-0.5,0.2L284.7,0.9C284.8,0.9,284.8,0.9,284.7,0.9z M127.7,1.6C127.7,1.6,127.8,1.6,127.7,1.6
	c0.1-0.1,0.1-0.1,0.1-0.1c0-0.1,0.1-0.1,0.1-0.2c0,0,0-0.1,0-0.1c0,0,0,0,0,0h-0.3c0,0,0,0,0,0c0,0,0,0.1,0,0.1
	C127.5,1.5,127.6,1.6,127.7,1.6z M126.7,1.3C126.7,1.3,126.7,1.3,126.7,1.3c-0.2-0.1-0.3-0.1-0.4,0c0.2,0.1,0.3,0.1,0.5,0.2
	C126.8,1.5,126.8,1.4,126.7,1.3z M135.6,1.1C135.6,1.1,135.6,1.1,135.6,1.1l-0.1,0c-0.1,0-0.2,0-0.3,0v0.2c0.1,0,0.2,0.1,0.3,0.1
	C135.6,1.3,135.6,1.2,135.6,1.1z M128.9,1.7L128.9,1.7c0.3,0.1,0.5,0.1,0.6-0.1c0,0,0,0,0,0c0,0,0,0,0,0c0,0,0,0,0.1,0
	c0,0-0.1,0-0.1,0c0,0,0,0,0-0.1c0,0,0-0.1,0-0.1c0,0,0,0,0,0c0,0,0,0,0,0c0,0,0,0,0,0C129,1.2,128.9,1.4,128.9,1.7
	C128.8,1.6,128.8,1.6,128.9,1.7C128.8,1.7,128.8,1.7,128.9,1.7C128.8,1.7,128.9,1.7,128.9,1.7z M140.7,1.1
	C140.7,1.1,140.7,1.1,140.7,1.1c0,0.1,0,0.2,0,0.3L140.7,1.1z M262.1,0.9C262.1,0.9,262.1,0.9,262.1,0.9c0,0-0.1,0-0.1,0
	c0,0,0,0,0,0c0,0-0.1,0-0.1,0c0,0,0,0,0,0c0,0-0.1,0-0.2,0c-0.3,0-0.4,0-0.6,0L262.1,0.9C262.1,0.9,262.1,0.9,262.1,0.9z M264.5,0.9
	c-0.2,0-0.3-0.1-0.7-0.1c-0.1,0-0.1,0-0.2,0c0,0,0,0,0,0c-0.2,0-0.2,0.1-0.4,0.1L264.5,0.9C264.5,0.9,264.5,0.9,264.5,0.9z
	 M269.4,0.9c-0.4,0-0.5,0-0.8,0c-0.1,0-0.2,0-0.3,0c-0.1,0-0.1,0-0.2,0c0,0,0,0,0,0c0,0-0.1,0-0.1,0c0,0,0,0,0,0c0,0,0,0-0.1,0h2
	C269.7,0.9,269.6,0.9,269.4,0.9z M265.7,1.1c0.1,0,0.1,0,0.2-0.1C265.8,1.1,265.8,1.1,265.7,1.1z M279.2,0.8c-0.6,0-0.6,0.1-1.1,0.1
	c-0.1,0-0.2,0-0.3,0c-0.1,0-0.2,0-0.2,0h2.3C279.7,0.9,279.5,0.8,279.2,0.8z M179.6,0.3C179.6,0.3,179.6,0.3,179.6,0.3
	C179.6,0.3,179.6,0.3,179.6,0.3C179.7,0.3,179.7,0.3,179.6,0.3c0.3,0,0.4-0.1,0.4-0.2c0,0,0-0.1,0-0.1c0,0-0.1,0-0.1,0
	c-0.1,0-0.1,0-0.2,0c0,0,0,0-0.1,0c0,0,0,0.1,0,0.1C179.7,0.2,179.6,0.2,179.6,0.3z M276.3,0.9c-0.1,0-0.2,0-0.3,0
	c-0.2,0-0.3,0-0.4,0h1.2C276.6,0.9,276.4,0.9,276.3,0.9z M262.2,1.2c0,0-0.1,0-0.1,0C262.2,1.2,262.1,1.2,262.2,1.2z M257.6,0.9
	C257.6,0.9,257.6,0.9,257.6,0.9c-0.1,0-0.1,0-0.2,0c-0.1,0-0.1,0.1-0.1,0.1C257.3,1.1,257.8,1.1,257.6,0.9z M249.6,0.9
	c-0.1,0-0.2,0-0.3,0h0.6C249.8,0.9,249.7,0.9,249.6,0.9z M258.3,1.1c0.3,0,0.5,0,0.7-0.2h0.2c0,0,0,0.1,0,0.2c0.3,0,0.4,0.1,0.6-0.2
	h0.3c0,0,0,0,0,0.1c0.1,0.1,0.1,0,0-0.1c-0.2,0-0.3,0-0.6,0c-0.2,0-0.3,0-0.4,0c-0.2,0-0.3,0-0.6,0C258.4,1,258.4,1,258.3,1.1
	c0.1-0.1,0.1-0.1,0.1-0.2c-0.2,0-0.3,0-0.4,0C258,1,258.1,1.1,258.3,1.1z M259.7,0.9c-0.1,0-0.2,0-0.3,0H259.7z M257.9,1
	c0,0,0-0.1,0-0.1c0,0-0.1,0-0.1,0C257.7,1,257.7,1,257.9,1L257.9,1z M303.2,1.2C303.2,1.2,303.2,1.2,303.2,1.2
	C303.2,1.2,303.2,1.2,303.2,1.2C303.2,1.2,303.2,1.2,303.2,1.2C303.2,1.3,303.2,1.3,303.2,1.2c0.1,0.1,0.1,0.1,0.1,0.1h0.2
	c0,0,0,0,0,0c0,0,0-0.1,0-0.1c0-0.1-0.1-0.2-0.2-0.2c0,0-0.1,0-0.1,0C303.1,1,303.1,1.1,303.2,1.2C303.1,1.1,303.1,1.1,303.2,1.2
	C303.1,1.2,303.1,1.2,303.2,1.2z M400.4,42.8C400.4,42.8,400.3,42.9,400.4,42.8l0,0.4c0,0,0,0,0,0c0.1,0,0.2,0,0.2,0
	c0.1,0,0.1-0.1,0.1-0.2c0-0.1,0-0.1-0.1-0.2C400.6,42.8,400.5,42.8,400.4,42.8z M355.7,44.3C355.7,44.3,355.7,44.2,355.7,44.3
	C355.6,44.2,355.6,44.3,355.7,44.3c-0.1,0.1-0.1,0.1-0.1,0.1c0,0,0.1,0,0.1,0c0,0,0,0,0,0C355.7,44.4,355.7,44.3,355.7,44.3z
	 M396.7,43.1C396.7,43.2,396.7,43.2,396.7,43.1C396.7,43.2,396.6,43.1,396.7,43.1C396.6,43.1,396.6,43.1,396.7,43.1
	c-0.1,0-0.1-0.1-0.1-0.1c0,0,0,0,0,0c0,0,0,0.1,0,0.1c0,0,0.1,0,0.1,0C396.7,43.2,396.8,43.2,396.7,43.1
	C396.8,43.1,396.8,43.1,396.7,43.1C396.7,43.1,396.7,43.1,396.7,43.1z M356,44.2c0,0.1,0,0.1-0.1,0.2c0,0,0.1,0,0.1,0
	C356.1,44.3,356.1,44.3,356,44.2C356.1,44.2,356.1,44.2,356,44.2C356,44.2,356,44.2,356,44.2z M351.6,43.4c-0.1,0-0.2,0-0.3,0
	c0,0-0.1,0.1-0.1,0.1c0,0,0,0,0,0c0,0,0,0,0,0c0.1,0.2,0.3,0.2,0.5,0.1c0.1,0,0.3,0,0.5,0.1c0,0,0,0,0,0c0,0,0,0,0,0v-0.3h-0.1
	C352.1,43.5,351.9,43.5,351.6,43.4z M350.8,43.5C350.7,43.5,350.7,43.5,350.8,43.5c-0.1-0.1-0.1-0.2-0.3-0.2c-0.1,0-0.1,0-0.1,0.1
	c0,0-0.1,0-0.1,0c0,0,0,0,0,0c0,0,0,0,0,0c0,0.2,0,0.3-0.1,0.4c0,0.1-0.1,0.2-0.1,0.3c0,0.1,0,0.1,0,0.2c0.1,0,0.2,0,0.3,0
	C350.7,44.2,350.8,43.8,350.8,43.5L350.8,43.5C350.8,43.5,350.8,43.5,350.8,43.5C350.8,43.5,350.8,43.5,350.8,43.5z M408,43.4
	c-0.1,0.1-0.2,0.2-0.2,0.3v0c0,0,0,0,0,0c0,0,0.1,0,0.1,0c0.1,0,0.1,0,0.2,0c0,0,0,0,0.1,0c0.1,0,0.2,0,0.4,0c0,0,0,0,0,0
	c0,0,0.1-0.1,0.1-0.1c0,0,0,0,0,0c0,0,0,0,0,0c0,0,0,0,0,0C408.7,43.3,408.3,43.3,408,43.4z M349.2,43.7
	C349.2,43.7,349.2,43.7,349.2,43.7C349.3,43.7,349.3,43.7,349.2,43.7l0.1-0.5c0,0-0.1,0-0.1,0c-0.2,0-0.3-0.1-0.4-0.1c0,0,0,0,0,0
	c0,0,0,0.1,0,0.1C348.8,43.4,348.9,43.7,349.2,43.7z M410,43.4C409.9,43.4,409.9,43.4,410,43.4C409.9,43.5,409.9,43.5,410,43.4
	C409.9,43.5,409.9,43.5,410,43.4c0,0.1,0,0.2,0,0.2c0.1,0,0.1,0,0.1,0c0,0,0.1,0,0.1,0C410.1,43.5,410.1,43.5,410,43.4
	C410,43.4,410,43.4,410,43.4z M406.2,43.3C406.2,43.3,406.2,43.3,406.2,43.3c0,0.1,0,0.1,0,0.1c0,0.1,0,0.2,0.1,0.2
	c0.1,0,0.1,0,0.2,0c0,0,0-0.1,0-0.1c0,0,0-0.1,0-0.1c0-0.1,0-0.1-0.1-0.2C406.4,43.3,406.3,43.3,406.2,43.3z M401.1,43.1
	C401,43.1,401,43.1,401.1,43.1c-0.1,0.1-0.1,0.1-0.3,0.1c0,0,0,0,0,0c0,0,0,0,0,0v0.2c0,0,0,0,0,0c0,0,0.1,0,0.1,0
	c0,0,0.1,0.1,0.2,0.1c0,0,0,0,0,0c0,0,0,0,0,0c0,0,0,0,0,0c0,0,0,0,0-0.1c0-0.1,0-0.1,0.1-0.1c0,0,0-0.1,0-0.1
	C401.2,43.1,401.1,43.1,401.1,43.1z M403.9,43.4C403.9,43.4,403.9,43.4,403.9,43.4C403.9,43.4,403.9,43.4,403.9,43.4
	C403.9,43.4,403.9,43.4,403.9,43.4C403.9,43.3,403.9,43.3,403.9,43.4c-0.1-0.1-0.1-0.1-0.1-0.1h-0.2c0,0,0,0,0,0c0,0,0,0.1,0,0.1
	c0,0.1,0.1,0.2,0.2,0.2c0,0,0.1,0,0.1,0C404,43.6,404,43.5,403.9,43.4C404,43.5,404,43.5,403.9,43.4C404,43.4,404,43.4,403.9,43.4z
	 M271.7,42.6C271.7,42.6,271.7,42.6,271.7,42.6C271.7,42.6,271.7,42.6,271.7,42.6L271.7,42.6z M245.3,42.7c-0.1,0-0.1,0.2-0.1,0.2
	c0,0.1,0,0.1,0,0.1c0,0,0,0,0.1,0c0,0,0,0,0,0v-0.2c0,0,0,0,0-0.1C245.4,42.8,245.4,42.7,245.3,42.7z M247.3,42.7h-0.2c0,0,0,0,0,0
	v0.2c0,0,0,0,0,0c0,0,0,0,0,0c0,0,0,0,0.1,0c0,0,0,0,0.1,0c0,0,0,0,0,0c0,0,0,0,0,0c0,0,0-0.1,0-0.1
	C247.3,42.8,247.3,42.8,247.3,42.7C247.3,42.7,247.3,42.7,247.3,42.7C247.3,42.7,247.3,42.7,247.3,42.7z M245.1,43.2
	c-0.2-0.1-0.3-0.1-0.4,0c0,0.1,0,0.2,0,0.3h0c0.1,0,0.2,0,0.3,0c0,0,0-0.1,0-0.2C245.1,43.3,245.1,43.3,245.1,43.2
	C245.1,43.2,245.1,43.2,245.1,43.2z M244.7,43L244.7,43c0,0.1,0,0.1,0,0.1C244.7,43.1,244.7,43.1,244.7,43L244.7,43
	C244.7,43,244.7,43,244.7,43L244.7,43z M253.8,43h-0.4c0,0,0,0,0,0v0.5c0.1,0,0.2,0,0.3,0c0.1-0.1,0.1-0.1,0.1-0.2
	C253.8,43.2,253.8,43.1,253.8,43C253.9,43,253.9,43,253.8,43C253.9,43,253.9,43,253.8,43C253.9,43,253.8,43,253.8,43z M225,43.1
	C225,43.1,224.9,43.1,225,43.1c-0.1-0.1-0.1-0.1-0.2-0.2c0,0,0,0,0,0c0,0,0,0.1,0,0.1c0,0,0,0.1,0,0.1c0,0,0,0.1,0,0.1
	c0.1,0,0.1,0,0.2,0C225,43.2,225,43.2,225,43.1C225,43.1,225,43.1,225,43.1C225,43.1,225,43.1,225,43.1C225,43.1,225,43.1,225,43.1z
	 M264,43.3c-0.1,0-0.1,0.1-0.1,0.1c0,0,0,0,0,0c0,0,0,0,0,0C264,43.4,264,43.3,264,43.3C264,43.3,264.1,43.3,264,43.3
	c0,0.1,0,0.1,0,0.1S264.1,43.4,264,43.3C264.1,43.3,264.1,43.3,264,43.3C264.1,43.3,264.1,43.3,264,43.3z M340.9,44.1
	C340.9,44.1,340.9,44.1,340.9,44.1C340.9,44.1,340.9,44.1,340.9,44.1C340.9,44.1,340.9,44.1,340.9,44.1c-0.3,0-0.4,0.1-0.4,0.2
	c0,0,0,0.1,0,0.1c0,0,0.1,0,0.1,0c0.1,0,0.1,0,0.2,0c0,0,0,0,0.1,0c0,0,0-0.1,0-0.1C340.9,44.2,340.9,44.2,340.9,44.1z M411.8,43.6
	C411.8,43.6,411.8,43.6,411.8,43.6c-0.1-0.1-0.1-0.2-0.1-0.3c0-0.1,0-0.2-0.1-0.3c-0.1,0-0.1,0-0.2,0c-0.2,0.1-0.2,0.2-0.2,0.5
	c0,0,0,0.1,0,0.1c0,0,0,0,0,0c0,0,0,0,0,0c0.1,0,0.1,0,0.2,0c0.2,0,0.3,0,0.6,0c0,0,0,0,0,0C411.9,43.6,411.8,43.6,411.8,43.6z
	 M349.3,44.3c-0.1,0-0.2,0-0.3-0.1c-0.1,0-0.2-0.1-0.3,0c0,0-0.1,0-0.1,0l0,0c-0.1,0-0.1,0-0.2,0c-0.1,0-0.3-0.1-0.4,0
	c0,0,0,0-0.1,0c-0.1,0-0.3,0.1-0.3,0.3c0,0,0,0,0,0c0.1,0,0.2,0,0.3,0h0.1c0,0,0,0,0,0c0.1,0,0.2,0,0.4,0h0.5c0.1,0,0.2,0,0.2,0
	c0,0,0.1,0,0.1,0C349.4,44.4,349.4,44.3,349.3,44.3L349.3,44.3C349.4,44.3,349.4,44.3,349.3,44.3C349.3,44.3,349.3,44.3,349.3,44.3z
	 M271.7,42.6L271.7,42.6C271.8,42.6,271.7,42.6,271.7,42.6C271.7,42.6,271.7,42.6,271.7,42.6z M259.3,43.1
	C259.3,43.1,259.3,43.1,259.3,43.1c0,0.1,0,0.1,0,0.1c0,0.1,0,0.2,0.1,0.2c0,0,0.1,0.1,0.2,0c0,0,0,0,0,0c0,0,0-0.1,0-0.1
	c0-0.1,0-0.2-0.1-0.2C259.5,43.1,259.4,43.1,259.3,43.1z M62.9,1.9C62.9,1.9,62.9,1.9,62.9,1.9C62.9,1.9,62.9,1.9,62.9,1.9
	C62.9,1.9,62.9,1.9,62.9,1.9z M89.9,1.9C89.9,1.9,89.9,1.9,89.9,1.9L89.9,1.9z M76.2,1.9C76.1,1.9,76.3,1.9,76.2,1.9L76.2,1.9z
	 M355.9,1.9C355.8,1.9,355.9,1.9,355.9,1.9L355.9,1.9z M170.4,1C170.4,1,170.4,1,170.4,1C170.4,1,170.4,1,170.4,1
	c0.1-0.2,0.1-0.3,0.1-0.5c0-0.1,0.1-0.2,0.1-0.3c0-0.1,0-0.1,0-0.2c-0.1,0-0.2,0-0.3,0c-0.3,0.2-0.4,0.5-0.4,0.8v0c0,0,0,0,0,0
	s0,0,0,0c0,0,0,0,0.1,0.1c0,0,0,0,0,0.1c0.1,0,0.2,0,0.3,0C170.3,1,170.3,1,170.4,1z M412.3,43C412.3,43.1,412.3,43.1,412.3,43
	c0,0.2,0.1,0.2,0.1,0.2c0,0,0.2,0,0.2-0.2v0c0,0,0,0,0,0C412.4,43,412.3,43,412.3,43z M353.7,1.8C353.7,1.8,353.8,1.8,353.7,1.8
	C353.8,1.8,353.8,1.8,353.7,1.8z M171.3,0.7C171.3,0.7,171.3,0.7,171.3,0.7C171.3,0.8,171.3,0.8,171.3,0.7L171.3,1
	c0.2,0,0.3,0,0.4,0C171.7,0.9,171.5,0.8,171.3,0.7z M342.2,1.9C342.1,1.9,342.3,1.9,342.2,1.9L342.2,1.9z M158.7,42.2
	C158.7,42.2,158.5,42.2,158.7,42.2L158.7,42.2z M148.4,42.5C148.4,42.5,148.3,42.5,148.4,42.5C148.3,42.5,148.4,42.5,148.4,42.5z
	 M134.6,42.2C134.6,42.2,134.5,42.2,134.6,42.2C134.5,42.2,134.6,42.3,134.6,42.2z M144.9,42.2C145,42.1,144.9,42.1,144.9,42.2
	L144.9,42.2z M100.3,1.8C100.3,1.9,100.3,1.9,100.3,1.8C100.3,1.8,100.3,1.8,100.3,1.8z M454.4,42.3L454.4,42.3
	C454.4,42.3,454.5,42.3,454.4,42.3C454.5,42.3,454.4,42.3,454.4,42.3C454.5,42.3,454.5,42.4,454.4,42.3c0.1,0.1,0.1,0.1,0.3,0.1
	C454.7,42.3,454.6,42.3,454.4,42.3z M454.1,42.4C454.2,42.4,454.3,42.4,454.1,42.4C454.1,42.3,454.1,42.3,454.1,42.4z M441.9,42.6
	C441.9,42.6,441.9,42.6,441.9,42.6C441.9,42.6,441.8,42.6,441.9,42.6C441.8,42.6,441.8,42.6,441.9,42.6L441.9,42.6z M444,42.6h0.3
	C444.3,42.5,444.1,42.5,444,42.6z M236,42.6c0,0-0.1-0.1-0.1-0.1C235.9,42.6,235.9,42.6,236,42.6L236,42.6z M100,1.5
	c0,0-0.1,0.1,0,0.1C100,1.6,100.1,1.5,100,1.5C100.1,1.5,100,1.5,100,1.5z M425.5,42.5C425.7,42.6,425.7,42.5,425.5,42.5L425.5,42.5
	z M172,42.2C172,42.2,172,42.2,172,42.2C172,42.2,172,42.2,172,42.2C172,42.2,172,42.2,172,42.2z M87.8,1.8
	C87.8,1.8,87.8,1.8,87.8,1.8C87.8,1.8,87.8,1.8,87.8,1.8z M214.8,43.1C214.8,43.1,214.8,43.1,214.8,43.1c-0.1,0-0.1,0.1-0.1,0.1
	c-0.1,0.1-0.1,0.1-0.1,0.1c0.1,0,0.1,0,0.2,0c0,0,0,0,0,0l0,0C214.9,43.2,214.9,43.2,214.8,43.1C214.9,43.1,214.8,43.1,214.8,43.1z
	 M147.1,42.2C147.1,42.2,147.1,42.2,147.1,42.2C147,42.2,147,42.2,147.1,42.2z M134.8,42.4C134.6,42.7,134.9,42.5,134.8,42.4
	L134.8,42.4z M177,42.5C177,42.6,177,42.5,177,42.5c0.1,0.1,0.1,0.1,0.1,0.1C177.1,42.5,177.1,42.5,177,42.5z M140,42.8
	c0.1,0,0.1,0,0.2,0C140.1,42.7,140,42.7,140,42.8C140,42.8,140,42.8,140,42.8z M139.9,42.3C139.9,42.3,139.8,42.3,139.9,42.3
	c-0.1,0-0.2,0.1-0.3,0.1C139.6,42.6,140.1,42.4,139.9,42.3z M140.2,42.3c0,0.1,0,0.1,0.1,0.1C140.4,42.2,140.3,42.2,140.2,42.3z
	 M141.5,42.5c0,0.2,0.1,0.2,0.2,0.1C141.7,42.5,141.6,42.5,141.5,42.5C141.6,42.5,141.5,42.5,141.5,42.5z M457.8,1.1
	c-0.6,0-0.6-0.2-1.1-0.2s-0.6,0-1.1,0c-0.1,0-0.1,0-0.2,0c0,0,0,0,0,0c0,0-0.1,0-0.1,0c0,0,0,0,0,0c-0.1,0-0.2,0-0.3,0c0,0,0,0,0,0
	c0,0,0,0-0.1,0c-0.1,0-0.2,0-0.3,0c0,0-0.1,0-0.1,0c-0.3,0-0.4,0-0.7,0h0c0,0-0.1,0-0.1,0c0,0,0,0,0,0c-0.1,0-0.1,0-0.2,0
	c-0.6,0-0.6,0.1-1.1,0.1c-0.5,0-0.6-0.1-1-0.1c0,0,0,0-0.1,0c-0.6,0-0.6-0.1-1.1-0.1H449c-0.4,0-0.5,0-0.8,0c-0.1,0-0.2,0-0.3,0
	c-0.2,0-0.3,0-0.4,0c-0.2,0-0.3,0-0.7,0c-0.5,0-0.5,0-0.9,0c-0.1,0-0.1,0-0.2,0c-0.6,0-0.6,0.2-1.1,0.2c-0.5,0-0.5-0.2-1.1-0.2
	c-0.6,0-0.6,0.2-1.1,0.2c-0.1,0-0.2,0-0.3,0c-0.3-0.1-0.4-0.2-0.8-0.2c-0.1,0-0.1,0-0.2,0h0c0,0-0.1,0-0.1,0c0,0,0,0,0,0
	c0,0,0,0-0.1,0c0,0,0,0-0.1,0h0c-0.2,0-0.3,0-0.6,0c0,0,0,0,0,0c-0.5,0-0.5,0.1-0.9,0.1c-0.1,0-0.1,0-0.2,0c-0.6,0-0.6-0.1-1.1-0.1
	c-0.1,0-0.1,0-0.2,0c-0.3,0-0.4,0.1-0.6,0.1c0,0-0.1,0-0.1,0c-0.1,0-0.1,0-0.2,0c-0.6,0-0.6,0-1.1,0c-0.3,0-0.5,0-0.7-0.1
	c-0.1,0-0.2,0-0.4,0c-0.6,0-0.6,0.1-1.1,0.1c-0.1,0-0.1,0-0.2,0c-0.4,0-0.4-0.1-0.9-0.1c-0.5,0-0.5,0-0.9,0c-0.1,0-0.1,0-0.2,0
	c-0.6,0-0.6,0-1.1,0c-0.6,0-0.6,0.1-1.1,0.1c-0.1,0-0.2,0-0.3,0c-0.3,0-0.4,0-0.8,0c-0.3,0-0.5,0-0.7-0.1c-0.1,0-0.2,0-0.4,0
	c-0.6,0-0.6,0-1.1,0h-0.2c-0.4,0-0.4,0-0.9,0c-0.6,0-0.6-0.2-1.1-0.2c-0.4,0-0.5,0.1-0.8,0.1c-0.1,0-0.2,0-0.3,0c-0.1,0-0.1,0-0.2,0
	h-0.1c0,0-0.1,0-0.1,0c0,0,0,0-0.1,0c0,0,0,0,0,0c-0.2,0-0.3,0-0.7,0c-0.3,0-0.4,0-0.6,0c0,0,0,0-0.1,0h0c0,0,0,0-0.1,0
	c0,0-0.1,0-0.1,0c0,0,0,0-0.1,0c0,0-0.1,0-0.2,0c-0.1,0-0.1,0-0.2,0c-0.4,0-0.4-0.1-0.9-0.1c0,0,0,0,0,0c0,0,0.1,0.1,0.1,0.1
	c0,0.1-0.1,0.1-0.2,0.1c0,0-0.1,0-0.1,0c0,0,0,0,0,0c0,0,0,0,0,0V1c-0.3,0-0.4,0-0.7,0c-0.1,0-0.1,0-0.2,0c-0.5,0-0.5-0.1-1.1-0.1
	c-0.6,0-0.6,0.2-1.1,0.2c-0.1,0-0.1,0-0.2,0c-0.4,0-0.4-0.1-0.9-0.1c0,0,0,0,0,0c-0.1,0-0.1,0-0.2,0c-0.2,0-0.3,0-0.4,0h0
	c0,0-0.1,0-0.1,0h0c0,0-0.1,0-0.1,0c0,0,0,0,0,0h-0.2c-0.6,0-0.6,0-1.1,0c-0.6,0-0.6,0-1.1,0h-0.2c0,0-0.1,0-0.1,0h0
	c0,0-0.1,0-0.1,0h0c-0.2,0-0.3,0-0.6,0c-0.6,0-0.6,0-1.1,0c-0.6,0-0.6,0-1.1,0c-0.6,0-0.6,0.1-1.1,0.1h-1.1c-0.1,0-0.2,0-0.2,0
	c0,0,0,0-0.1,0c-0.1,0-0.1,0-0.2-0.1c-0.1,0-0.1-0.1-0.2-0.1c0,0,0,0,0,0c0,0-0.1,0-0.1,0c0,0,0,0,0,0c0,0,0,0,0,0c0,0,0,0,0,0
	c0,0-0.1,0-0.1,0c0,0,0,0,0,0c0,0-0.1,0.1-0.1,0.1c-0.1,0-0.1,0.1-0.1,0.1c-0.1,0.1-6.1,0.3-6.1,0.3c0,0,0,0,0.1,0.1
	c0.1,0,0.1,0.1,0.2,0.1c0,0,0,0,0,0c0,0,0,0,0,0c0,0,0,0,0,0c0,0.1-0.1,0.1-0.1,0.1c-0.1,0-0.2,0-0.2-0.1c-0.1-0.1-0.2-0.1-0.2-0.1
	c0.1,0,0.1-0.1,0.2-0.2h-36.3c0,0,0,0,0,0.1c0,0.1-0.2-0.1-0.4,0c0.4,0.3-0.3,0.1-0.5,0.1c0.1,0.1,0.1,0.1,0.2,0
	c0,0.3,0,0.1-0.2,0.2c0.1,0.1,0.2,0.1,0.3,0.1c0,0,0,0.1-0.1,0.1H361c0,0,0-0.1,0-0.1c-0.1,0-0.3,0-0.4,0.1h-1.1
	c0.6-0.4-0.3-0.1-0.2,0H359c0-0.2,0.1-0.4,0.1-0.5c-0.2,0-1.1,0.1-1,0.3c-0.3-0.1-0.1-0.3-0.5-0.1c0-0.3-0.8-0.1-1.1-0.2
	c0,0.3-0.3,0.1-0.4,0h-0.3c-0.1,0-0.1,0-0.2,0h-0.4c-0.1,0.1-0.2,0.1-0.3,0.2c0.2,0.4-0.6,0.2-0.8,0.1c-0.2-0.2-0.3-0.1-0.3-0.2
	h-0.3c0,0-0.1,0-0.1,0.1c0.1,0.2,0.2,0,0.4,0.2c0,0,0,0,0,0c0.1,0.2,0.3,0.2,0.4,0.4h-0.3c0-0.1-0.1-0.1-0.1-0.2c0,0-0.1,0,0,0
	c-0.2,0-0.2,0.1-0.1,0.2h-0.2c0.1-0.1,0.2-0.3,0.4-0.4c-0.2,0-0.4,0.1-0.5-0.2c-0.1,0-0.2,0.1-0.2,0.2c-0.1-0.1,0-0.1,0-0.2h-0.6
	c0,0.1,0,0.1,0,0.2c0,0,0,0,0,0c0,0,0,0,0,0c0,0,0,0,0,0c0,0,0,0,0,0c-0.1-0.1-0.1-0.1,0-0.1h-0.2c-0.3,0.3-0.4,0.2-0.7,0.3
	c0.1-0.3,0.1,0,0.3-0.1c0-0.1-0.1-0.1-0.1-0.1h-0.2c0,0,0,0.1,0,0.1c-0.2-0.2-0.7,0.4-0.9,0c0.5,0.1,0.7,0,0.6-0.1H350
	c0,0.1,0.1,0.3,0.1,0.3c-0.3,0.1-0.5,0.5-0.4-0.1c-0.1,0-0.1-0.1-0.1-0.2h-0.2c0,0.2-0.1,0.3-0.2,0.4c-0.3,0.2-0.4-0.3-0.2-0.4h-1
	c0,0,0,0,0,0c0,0.2-0.1,0.2-0.3,0.2c0-0.1,0-0.1,0-0.2h-0.3c0,0,0,0,0,0.1c0,0-0.1,0-0.1,0c0,0,0,0,0-0.1c0-0.1,0.1-0.1,0.1-0.1
	h-4.1c-0.1,0-0.2,0.1-0.3,0.1c0-0.1,0-0.1,0-0.1h-1.2c0,0.1-0.2,0.3-0.3,0h-1.9v0c0,0.1,0,0.1-0.1,0.1c-0.1,0-0.1-0.1-0.1-0.1h-2.5
	c0,0-0.1,0.1-0.3,0.1c0,0,0,0,0-0.1h-0.1c0,0.1,0.1,0.1,0.3,0.1c0.1,0,0.1,0,0.2,0.1c0,0,0,0-0.1,0.1c0,0-0.1,0-0.1,0.1c0,0,0,0,0,0
	c0,0,0,0,0,0v0.1c0,0,0,0,0,0c-0.3-0.1-0.4-0.4-0.7-0.2c0.1,0,0.1,0.1,0.2,0.2c0,0,0,0,0,0c0,0,0,0,0,0c0,0,0,0,0,0c0,0,0,0.1,0,0.1
	c0,0,0,0,0,0h-1c0,0,0-0.1,0-0.1c-0.1,0-0.2,0.1-0.2,0.1h-0.2c0,0,0,0,0,0c0,0,0,0,0,0c0,0,0,0,0,0c0-0.1,0.1-0.2,0.1-0.3
	c-0.1,0-0.2,0.2-0.3,0.3h-0.2c0,0,0-0.1-0.1-0.1c-0.1-0.1-0.2-0.1-0.3-0.1c0,0,0,0,0,0c0,0,0,0.1,0,0.1c0,0,0,0,0,0h-0.2
	c0.1-0.1,0.1-0.1,0.2-0.2c0-0.1,0-0.1,0.1-0.2c0.1,0,0.2,0.1,0.2,0.1c0,0,0,0,0,0c0,0,0,0,0,0c0-0.1,0.2-0.2,0.3-0.2c0,0,0,0,0,0
	c0,0,0,0,0,0c0,0,0.1,0,0.1-0.1h0c0,0,0,0,0,0c0,0,0,0,0,0c0,0,0,0,0,0v0c0,0,0-0.1,0-0.1l0,0v0c0-0.1,0-0.2-0.1-0.3c0,0,0,0,0,0
	c0,0,0,0,0,0v0.1c-0.1,0-0.2,0-0.3,0c-0.3,0-0.5,0-0.7,0.1c0,0,0,0,0,0c0,0,0,0,0,0c0,0.1,0,0.1,0,0.2h-0.2c0,0-0.1,0-0.1,0.1
	c0,0,0,0,0-0.1h-4.7V1.2c0,0,0,0,0,0c-0.1,0-0.2,0-0.3,0.1c0,0-0.1,0.1-0.1,0.2h-17.8c0,0-0.1,0-0.1,0c0,0-0.1,0-0.1,0h-2.5
	c0,0,0,0,0,0c0,0,0,0,0,0c-0.2,0-0.3,0-0.3-0.1c0,0,0,0,0,0h-0.7v0c0,0,0,0,0,0c-0.1,0-0.2,0-0.2,0c0,0,0,0,0,0h0c0,0,0,0,0,0
	c0,0-0.1,0.1-0.1,0.1c0,0.1,0,0.1,0.1,0.2c0,0,0.1,0,0.1,0c0,0,0,0,0,0c0,0.1,0,0.1,0.1,0.2c0,0,0,0,0,0c0,0,0,0,0,0c0,0,0,0,0,0
	h-0.3c0,0,0,0,0,0c0,0,0,0,0,0v0c0,0,0,0,0,0c0-0.1,0-0.1-0.1-0.1c0,0-0.1-0.1-0.1-0.2c0,0,0-0.1,0-0.1c0,0,0,0,0.1,0
	c0.1,0,0.1,0,0.1-0.1c0,0,0,0,0,0h-0.2c0,0,0.1,0,0.2,0c0,0,0,0,0,0c0,0,0,0,0,0V1.1c0,0,0,0,0,0c0,0-0.1,0-0.1,0
	c0,0-0.1-0.1-0.2-0.1c0,0,0,0,0,0c0,0,0,0,0,0c0,0,0,0,0,0c0,0,0,0,0,0.1c0,0.1,0,0.1-0.1,0.1c0,0,0,0.1,0,0.1h-1c0,0,0,0,0.1,0
	c0,0,0.1,0,0.1,0c0,0,0,0,0,0c0,0,0,0,0,0c0,0,0,0,0,0c0,0.1-0.1,0.1-0.1,0.1c-0.1,0-0.1,0-0.1,0.1c0,0,0,0,0,0c0,0,0,0,0,0
	c-0.1,0-0.1-0.1-0.1-0.2c0,0,0-0.1,0-0.1c0,0,0,0,0,0c0,0,0,0,0,0h-8.9c0-0.1,0.1-0.2,0.1-0.3c0,0,0-0.1,0-0.1c0,0,0,0,0,0
	c0,0,0,0,0,0c-0.1,0-0.1,0-0.2,0c-0.2,0-0.3,0-0.6,0c0,0,0,0,0,0c0,0.1,0.1,0,0.1,0c0,0,0,0,0.1,0c0,0.1,0,0.1,0,0.2
	c0,0,0,0.1,0,0.1h-0.6c0,0-0.1-0.1-0.1-0.1c0,0-0.1,0-0.1,0.1h-9.6c0,0,0,0,0,0c-0.1,0-0.1,0-0.2,0c-1-0.1-1.9,0-2.9,0
	c-0.3,0-0.7,0-1.1,0c-0.1,0-0.3,0-0.4,0c0,0,0,0,0,0c-0.1,0.1-0.1,0.1-0.2,0.1c0,0,0,0,0,0c0,0,0,0,0,0c0,0,0,0,0,0c0,0,0,0,0-0.1
	c-0.2,0-0.4,0-0.6,0c-2.6,0-5-0.1-7.6-0.1c-0.8,0-1.5-0.1-2.3,0c-0.8,0-1.6,0-2.3-0.1c0,0,0,0,0,0c0,0,0.1,0.1,0.1,0.1
	c-0.7,0.3-1.6,0-2.3,0c-1,0.1-1.9,0.3-2.9,0.3c-1.9-0.1-3.8,0-5.7-0.2c-0.5-0.1-0.3,0.2-0.6-0.2c0,0,0,0,0,0c-0.1,0-0.1,0-0.1,0
	c-0.2-0.1-0.3-0.1-0.7-0.1c-0.6,0-0.6,0.1-1.1,0.1c-0.1,0-0.2,0-0.3,0h1.9c0,0-0.1,0.1-0.1,0.2c-0.4,0.2-1-0.1-1.4,0
	c-1.2,0.1-2.3-0.1-3.5,0c-1,0.1-1.9,0-2.9-0.1c-0.1,0-0.1,0-0.2,0c-0.2,0-0.4,0-0.5,0c-0.5,0-1.2,0.1-1.6-0.1c0,0-0.1,0-0.1,0
	c-0.1,0-0.2,0-0.3,0h-0.8c-0.3,0-0.5,0-0.7,0c-0.1,0-0.2,0-0.4,0c-0.1,0-0.2,0-0.3,0c-0.3,0-0.4,0.1-0.8,0.1c-0.5,0-0.5,0-0.9,0
	h-0.2c-0.5,0-0.5,0-1.1,0c-0.5,0-0.5-0.1-1.1-0.1c-0.6,0-0.6,0.1-1.1,0.1c-0.5,0-0.5,0-1.1,0c-0.6,0-0.6-0.1-1.1-0.1
	c-0.1,0-0.2,0-0.3,0c-0.3,0-0.4,0-0.8,0c-0.5,0-0.5,0.1-1.1,0.1c-0.5,0-0.5,0-0.9,0H232c-0.5,0-0.5-0.1-1.1-0.1c-0.5,0-0.5,0-1.1,0
	c-0.5,0-0.5,0.1-1.1,0.1c-0.5,0-0.5,0-1.1,0c-0.2,0-0.3,0-0.5,0c-0.1,0-0.1,0-0.2,0c0,0,0,0-0.1,0c0,0,0,0-0.1,0c0,0-0.1,0-0.1,0
	c0,0,0,0-0.1,0c-0.1,0-0.1,0-0.2,0c-0.5,0-0.5,0-1.1,0c-0.5,0-0.5-0.1-1.1-0.1c-0.1,0-0.1,0-0.1,0c0,0-0.1,0-0.1,0
	c-0.3,0-0.4,0.2-0.9,0.2c0,0-0.1,0-0.1,0c-0.2,0-0.3,0-0.4,0c-0.1,0-0.2,0-0.3,0c-0.1,0-0.2,0-0.3,0c-0.5,0-0.5,0-1.1,0
	c-0.1,0-0.2,0-0.3,0h0c0,0-0.1,0-0.1,0c0,0,0,0-0.1,0c0,0,0,0,0,0c-0.1,0-0.2,0-0.2,0c0,0,0,0,0,0c0,0-0.1,0-0.1,0c0,0,0,0,0,0
	c0,0-0.1,0-0.2,0h0c-0.4,0-0.5,0-0.8,0c-0.1,0-0.2,0-0.3,0c-0.5,0-0.5,0-1.1,0S217.2,1,216.7,1c-0.2,0-0.3,0-0.4,0
	c-0.2,0-0.3,0-0.7,0h0c-0.1,0-0.1,0-0.2,0c0,0,0,0-0.1,0c0,0-0.1,0-0.1,0c0,0,0,0-0.1,0c0,0,0,0,0,0c-0.1,0-0.2,0-0.3,0h0
	c0,0-0.1,0-0.1,0c-0.1,0-0.1,0-0.2,0c-0.6,0-0.6,0.2-1.1,0.2c-0.5,0-0.5-0.1-1.1-0.1c-0.6,0-0.6,0.1-1.1,0.1c-0.6,0-0.6-0.1-1.1-0.1
	c-0.1,0-0.1,0-0.2,0c0,0,0,0-0.1,0c0,0-0.1,0-0.1,0c0,0,0,0-0.1,0c0,0,0,0-0.1,0c0,0-0.1,0-0.1,0c0,0,0,0,0,0c-0.1,0-0.2,0-0.3,0h0
	c-0.1,0-0.1,0-0.2,0c-0.6,0-0.6,0.1-1.1,0.1c-0.5,0-0.5-0.1-1.1-0.1c-0.4,0-0.5,0-0.8,0.1c-0.1,0-0.2,0-0.3,0c-0.1,0-0.1,0-0.2,0
	c0,0,0,0-0.1,0c0,0-0.1,0-0.1,0c0,0,0,0-0.1,0c0,0,0,0-0.1,0c0,0-0.1,0-0.1,0c-0.1,0-0.3,0-0.5,0h-0.1c-0.5,0-0.5,0-1,0
	c-0.3,0-0.4,0-0.5-0.1c-0.1,0-0.3-0.1-0.6-0.1c-0.2,0-0.3,0-0.4,0c-0.2,0-0.3,0.1-0.7,0.1c-0.4,0-0.5,0-0.7,0c0,0,0,0-0.1,0
	c-0.1,0-0.2,0-0.3,0c-0.6,0-0.6,0.1-1.1,0.1c-0.5,0-0.5-0.1-1.1-0.1S197.4,1,196.9,1c-0.1,0-0.2,0-0.3,0c-0.3-0.1-0.4-0.2-0.8-0.2
	c-0.5,0-0.5,0.1-0.9,0.1c-0.1,0-0.1,0-0.2,0c-0.6,0-0.6,0-1.1,0S193,1,192.5,1c-0.5,0-0.5-0.1-1.1-0.1c-0.5,0-0.5,0.1-1.1,0.1
	c-0.5,0-0.5,0-1.1,0h-0.1c-0.1,0-0.1,0-0.2,0c-0.2,0-0.3-0.1-0.5-0.1c0,0,0,0,0,0c0,0-0.1,0-0.1,0c0,0,0,0,0,0c-0.1,0-0.1,0-0.2,0
	c-0.6,0-0.6,0.1-1.1,0.1s-0.6,0-1.1,0h-0.2c0,0-0.1,0-0.1,0h0c-0.2,0-0.3,0-0.5,0h-0.2c-0.4,0-0.5-0.1-0.7-0.1c0,0-0.1,0-0.1,0
	c0,0,0,0,0,0c0,0-0.1,0-0.1,0c0,0,0,0,0,0c0,0-0.1,0-0.2,0c-0.1,0-0.2,0-0.3,0c-0.3,0-0.4,0.1-0.8,0.1c-0.3,0-0.5,0-0.7,0
	c-0.1,0-0.2,0-0.4,0c-0.1,0-0.2,0-0.3,0c-0.3,0-0.4-0.1-0.8-0.1c-0.3,0-0.4,0-0.6,0c-0.1,0-0.3,0.1-0.5,0.1c-0.6,0-0.6-0.1-1.1-0.1
	c-0.1,0-0.2,0-0.3,0c-0.3,0-0.4,0.1-0.8,0.1c-0.6,0-0.6,0-1.1,0c-0.6,0-0.6,0.1-1.1,0.1c-0.5,0-0.5-0.1-1.1-0.1c-0.1,0-0.2,0-0.2,0
	c0,0,0,0-0.1,0c0,0-0.1,0-0.1,0c0,0-0.1,0-0.1,0c0,0,0,0-0.1,0c0,0-0.1,0-0.1,0c0,0,0,0,0,0c0,0-0.1,0-0.1,0c0,0,0,0,0,0
	c0,0-0.1,0-0.1,0c0,0,0,0,0,0c0,0-0.1,0.1-0.1,0.1c0,0-0.4,0-1,0.1c0,0.1,0.1,0.2,0.1,0.2c0,0,0,0.1,0,0.1c0,0,0,0,0,0
	c-0.1,0-0.3-0.1-0.4-0.1c0,0-0.1,0-0.1,0V1c-0.3,0-0.7,0-1,0c0,0,0,0,0,0c0,0-0.1,0.1-0.1,0.1c-0.1,0-0.2,0-0.2-0.1
	c-2.9,0.1-7.8,0.1-12.5,0.2c0,0-0.1,0-0.1,0c0,0,0,0,0,0c-6.9,0.1-13.4,0.1-13.4,0.1c-0.4,0.1-0.8,0.1-1.1,0h-1.4
	c-0.4,0.3-0.2,0-1,0.1c-0.4,0-0.7,0.1-1.1,0.1c0.1-0.1,0.2-0.3,0.2-0.4c0,0,0,0,0,0c0,0,0,0,0,0c0,0,0,0,0,0
	c-0.3,0.1-0.5,0.2-0.6,0.5c0,0,0,0,0,0c-3.1,0.2-6.3,0-9.5,0.2c-1.6,0.1-3.1-0.2-4.6-0.4H122c-0.8,0.1-1.7,0.2-2.4,0h-12.9
	c-2.2,0-4.4,0.1-6.6,0.1c0,0-0.1,0.1-0.1,0.1c0,0,0,0,0,0h0c-0.1,0-0.2,0-0.2-0.1c-0.5,0-1,0-1.4,0c-0.1,0.2-0.3,0.1-0.5,0.1
	C98,1.8,98,1.6,98.1,1.8c0.1,0.2,0.3,0,0.4,0.1c0,0,0,0.1,0,0.1h-0.8c-0.2-0.1-0.3-0.3-0.5-0.4c0,0.3-0.3,0.1-0.5,0
	c-0.2,0-0.4,0-0.6,0c0,0.1-0.4,0-0.6,0c0.1,0.1,0.1,0.1,0.2,0c0,0.3,0,0.1-0.2,0.2c0.1,0.1,0.2,0.1,0.3,0.1c0,0,0,0.1-0.1,0.1H95
	c0,0,0-0.1,0-0.1c-0.1,0-0.3,0-0.4,0.1h-1.1c0.6-0.4-0.3-0.1-0.2,0H93c0-0.1,0-0.2,0-0.3c-0.7,0.1-1.4,0.1-2,0c-0.7,0-1.4,0-2.1,0
	c-0.1,0.1-0.3,0.1-0.5,0c-0.1,0-0.3,0-0.4,0c0,0-0.1,0-0.1,0c0.1,0.1,0.2,0.2,0.3,0.2h-0.3c0-0.1-0.1-0.1-0.1-0.2c0,0-0.1,0,0,0
	c-0.2,0-0.2,0.1-0.1,0.2h-0.2c0.1-0.1,0.2-0.2,0.2-0.2c-0.6,0-1.2,0-1.8,0.1c0,0.1-0.1,0.1-0.1,0.2h0c0,0,0,0,0,0h0
	c0,0,0-0.1-0.1-0.1c0.1,0,0.2,0,0.3-0.1c-0.1,0-0.3,0-0.4,0c-0.5,0-1,0-1.4,0c-0.2,0.1-0.3,0.3-0.3,0c-0.2,0-0.3,0-0.5,0
	c0,0,0,0,0,0c-0.1,0.1-0.2,0-0.3,0c-0.3,0-0.6,0-0.9-0.1c0,0.1-0.1,0-0.1,0c-0.2,0-0.3,0-0.5,0c0,0,0,0,0,0c-0.1,0.1-0.1,0-0.1,0
	c-0.5,0-1,0-1.5,0c-1.8-0.3-3.6,0.2-5.4-0.1c-0.3-0.1-0.6-0.1-1-0.1c0,0,0,0.1,0,0.1c0,0-0.1,0-0.1-0.1c-0.9,0-1.8,0.1-2.7,0
	c0,0,0.1,0,0.1,0c0.3,0,0.4,0.2,0.1,0.4c-0.1-0.1,0-0.1-0.1-0.2v0.1c0,0,0,0,0,0c-0.3-0.1-0.4-0.4-0.7-0.2c0.1,0,0.1,0.1,0.2,0.2
	c0,0,0,0,0,0c0,0,0,0,0,0c0,0,0,0,0,0c0,0,0,0.1,0,0.1c0,0,0,0,0,0h-1c0,0,0-0.1,0-0.1c-0.1,0-0.2,0.1-0.2,0.1h-0.2c0,0,0,0,0,0
	c0,0,0,0,0,0c0,0,0,0,0,0h0v0c0,0,0,0,0,0C69,1.9,69,1.7,69,1.7c-0.1,0-0.2,0.2-0.3,0.3h-0.3c0,0,0,0,0-0.1c0,0,0,0-0.1,0.1h-0.4
	c0.1-0.1,0.1-0.1,0.2-0.2c0-0.1,0.1-0.2,0.1-0.4h-0.6c0,0-0.1,0.1-0.1,0.1c0,0,0,0,0-0.1h-1c0.1,0.1,0.1,0.2-0.1,0.2
	c0,0.1,0.1,0.2-0.1,0.2c-0.1-0.1-0.1-0.3-0.1-0.4h-0.2c0,0,0,0.1,0,0.1C65.8,1.6,65.4,2,65.8,2c0,0,0,0,0,0h-0.3
	c0-0.1,0-0.1-0.1-0.1c0,0,0,0.1,0,0.1h-0.3c0-0.1-0.1-0.1-0.2-0.2c0.2-0.1,0.3-0.1,0.3,0.1c0.1,0,0.4-0.2,0.3-0.4
	c-0.2,0-0.2,0.2-0.5,0.1c-0.2-0.1-0.2-0.1-0.2-0.2h-0.3c0,0.1,0.1,0.3,0.1,0.4c-0.3,0.1-0.5,0.5-0.4-0.1c0,0,0,0-0.1-0.1
	c-0.1,0-0.2,0-0.3,0c0,0.1-0.1,0.1-0.1,0.2c0,0,0.1,0,0.1,0c0.1,0.1,0,0.2-0.1,0.2c0.1,0,0.2,0,0.2,0.1h-0.3v0
	c-0.1,0-0.2-0.1-0.2-0.1c-0.1,0-0.1-0.1-0.2-0.2c0,0-0.1,0-0.1,0c0,0-0.1,0-0.1,0c-0.1,0-0.1,0-0.2,0c0,0.1,0,0.2-0.1,0.2
	C63,1.9,63,2,63,2c0,0,0,0,0,0c0,0,0-0.1,0-0.1c0,0,0,0,0,0c0.1,0,0.2,0,0.2,0.1c0,0,0,0,0,0c0,0,0.1,0,0.1,0.1c0,0,0,0,0,0h-0.5
	c0,0,0-0.1,0-0.1c0,0,0,0,0,0c0,0-0.1-0.1-0.1-0.2c0-0.1,0-0.2,0-0.3c-0.1,0-0.2,0-0.3,0c0,0,0,0,0,0c0,0,0,0,0,0c0,0,0,0,0,0
	c0.1,0.1,0.3,0.2,0.3,0.3c-0.1,0-0.1,0-0.2,0c0.1,0.1-0.1,0-0.1,0c-0.2,0-0.4-0.1-0.5,0c0,0,0,0,0,0c-0.1,0-0.2,0.1-0.2,0.3
	c-0.1-0.1-0.2-0.1-0.3,0c-0.1-0.1,0-0.2,0.1-0.3c0.1,0,0.1,0.1,0.1,0.1c0.6-0.5-0.7,0-0.8-0.2c-0.2,0.1-0.1,0.3-0.3,0.3
	c-0.2-0.3-0.1-0.2-0.4-0.1c-0.2,0.1-0.5,0.1-0.7,0.1c-0.3,0.1-0.3-0.2-0.6-0.1c0,0.1-0.1,0.2-0.1,0.2h-0.5c0,0,0,0,0,0c0,0,0,0,0,0
	H58c0,0-0.1,0-0.1-0.1c0.1,0,0.1,0,0.1,0c-0.2-0.2-0.4-0.1-0.6,0.1h-2c0,0,0-0.1,0-0.1c0.1,0,0.1,0,0.2,0c0,0.1,0,0.1,0.1,0.1
	c0.1,0,0.1-0.1,0-0.1c0.3,0,0.6-0.1,0.6-0.3c-0.3,0-0.7,0-1,0c0,0,0,0,0,0.1c0,0,0,0,0,0c0,0,0,0,0,0c0-0.1,0,0,0,0
	c-0.1,0-0.1,0-0.1-0.1c-0.4,0-0.8,0-1.2,0c0,0-0.1,0-0.2,0c0,0,0,0,0,0c0,0-0.1,0-0.1,0c0.1,0.1,0.1,0.3,0.1,0.4h-0.4
	c-0.1-0.1-0.1-0.2,0-0.4c0.1,0.1,0.1,0.1,0.2,0c-0.1,0-0.1-0.1-0.1-0.1c-0.2,0-0.4,0-0.6,0c0,0,0,0,0,0c0,0,0,0,0.1,0
	c-0.1,0.1-0.1,0.1-0.1,0c-0.1,0-0.1,0-0.1-0.1c0,0,0,0,0,0c0,0,0,0,0.1,0c-0.5,0-0.9,0-1.4,0c-0.3,0-0.7,0-1,0c0,0,0,0,0,0
	c0,0-0.1,0-0.1,0c-0.1,0-0.2,0-0.4,0c0.1,0.1,0.3,0.2,0.4,0.1c0.4-0.1,0.5,0,0.5,0.2h-0.5c-0.1-0.1-0.2-0.1-0.3-0.1
	c0,0-0.1,0.1-0.1,0c0,0.1,0,0.1,0,0.2h-0.9c0,0-0.1,0-0.2,0c0,0,0,0,0,0h0c0,0,0,0,0,0c0,0,0,0,0,0h-0.3c-0.1,0-0.2-0.1-0.3-0.2
	c-0.2,0-0.4,0-0.6,0c0,0,0,0.1,0,0.2c-0.1,0-0.1-0.1-0.2-0.2c-0.2,0-0.4,0-0.6-0.1c-0.1,0-0.3,0-0.4-0.1c-0.2,0-0.4,0.1-0.7,0.1
	c0,0,0,0,0,0.1c0,0.1,0,0.1,0,0.2h-0.6c-0.1,0-0.1-0.1,0-0.2c0.1,0.1,0.2,0,0.3,0c-0.5,0.1-1,0-1.4-0.3c-0.4,0-0.7,0-1.1,0.1
	c-0.1,0.1-0.2,0.1-0.4,0c-0.7,0.1-1.5,0.2-2.2,0.2c-1.5,0.1-2.8-0.3-4.3-0.1c-1.4-0.2-2.9,0-4.3,0c0,0,0,0,0,0c0,0,0,0,0,0.1
	c0,0,0,0,0,0c-0.1,0-0.2-0.1-0.3-0.1c0,0-0.1,0-0.1,0v0c-0.2,0-0.5,0-0.7-0.1c0,0,0,0-0.1,0c-0.1,0-0.1,0-0.1-0.1
	c-0.1,0-0.3,0-0.4-0.1c0,0,0,0,0,0c-0.1,0-0.1,0-0.2,0c-0.2,0-0.3,0-0.4,0h-0.1v0c-1,0-2.1,0.1-3.1,0c-0.4,0-0.7-0.1-1.1-0.1h-2.6
	c0,0,0,0,0,0c-0.1,0-0.1,0-0.2,0h-2.7c0,0,0,0,0,0c0,0,0.1,0.1,0.1,0.2c0,0,0,0,0,0.1c0,0,0,0,0,0c-0.1,0-0.2,0-0.2,0
	c0,0-0.1-0.1-0.1-0.2c0,0,0,0,0-0.1H1.5v41.2h10.7c0.1,0,0.2,0.1,0.3,0.1c0,0,0,0,0,0c0,0,0,0,0,0c0,0,0.1-0.1,0.1-0.1h5.8
	c0,0-0.1,0.1-0.1,0.1c0.2,0.3,0.5,0.3,0.3,0.7c0.1,0.1,0.1,0.1,0.2,0.1h0c0,0,0,0,0,0c0,0,0,0,0,0c0,0,0,0,0,0c0,0,0,0,0,0
	c0.1-0.2,0.2-0.6,0.2-0.9h0.2c0,0.1,0,0.1,0.1,0.2c0-0.1,0-0.1,0,0c0,0,0,0,0,0c0-0.1,0-0.2,0.1-0.3h5c0-0.1,0.1-0.2,0.1-0.3
	c0,0,0,0,0,0c0,0,0,0,0,0c0.1,0,0.1,0,0.1,0c0,0,0.1,0,0.1-0.1c0.1,0,0.2,0.1,0.2,0.1c0,0,0,0.1,0.1,0.1c0,0,0,0,0,0c0,0,0,0,0,0v0
	c0,0.1,0,0.1,0,0.2h7.3c-0.1,0-0.3,0.1-0.2,0.1c0,0,0,0,0,0c0,0,0,0,0,0c0,0,0,0,0,0c0,0,0,0,0,0.1c0,0,0,0,0,0c0,0,0,0,0,0
	c0,0,0,0,0,0c0,0,0,0,0,0c0,0,0,0,0,0h0c0.1,0,0.1-0.1,0.1-0.2h3v-0.1c0,0,0,0,0,0c0.1,0,0.2,0,0.2,0c0,0,0.1,0.1,0.1,0.1h9.5l0,0
	c0.1,0,0.1,0,0.2,0c0,0,0,0,0,0h7.3c0,0.1,0.1,0.1,0.1,0.2c0.2,0.2,0.3,0.2,0.4,0.2c0.2,0,0.3-0.1,0.7-0.1c0.5,0,0.5,0,1.1,0
	c0.5,0,0.5-0.1,1.1-0.1c0.5,0,0.5,0.1,1.1,0.1c0.5,0,0.5-0.1,1.1-0.1c0.5,0,0.5,0.1,1.1,0.1c0.5,0,0.5-0.1,1.1-0.1
	c0.1,0,0.1,0,0.2,0c0.4,0,0.4,0.1,0.9,0.1c0.4,0,0.5,0,0.7,0c0.1,0,0.2,0,0.4,0h0.3c0.3,0,0.4,0,0.8,0c0.5,0,0.5,0,0.9,0
	c0.1,0,0.1,0,0.2,0c0.5,0,0.5-0.2,1.1-0.2c0.5,0,0.5,0,1.1,0c0.5,0,0.5,0,1.1,0h0.2c0,0,0,0,0,0h0.1c0,0,0,0,0,0c0.1,0,0.2,0,0.4,0
	c0.1,0,0.1,0,0.2,0h0.2c0.4,0,0.5,0,0.8,0.1c0.1,0,0.2,0,0.3,0c0.5,0,0.5-0.1,1.1-0.1c0.6,0,0.6,0.1,1.1,0.1c0.6,0,0.6-0.1,1.1-0.1
	c0.6,0,0.6,0,1.1,0c0.6,0,0.6-0.1,1.1-0.1c0.4,0,0.5,0,0.8,0c0.1,0,0.2,0,0.3,0c0.5,0,0.5,0.1,1.1,0.1s0.6-0.1,1.1-0.1
	c0.6,0,0.6,0,1.1,0c0.5,0,0.5,0.1,1.1,0.1c0.2,0,0.3,0,0.4-0.1c0.2-0.1,0.3-0.1,0.7-0.1c0.2,0,0.3,0,0.4,0.1
	c0.2,0.1,0.3,0.2,0.7,0.2c0.4,0,0.5,0,0.8,0c0.1,0,0.2,0,0.3,0h0.2c0.2,0,0.3,0,0.5,0c0,0,0,0,0,0h0.3c0.6,0,0.6,0,1.1,0
	c0.1,0,0.1,0,0.2,0h0c0.4,0,0.4-0.1,0.9-0.1h0c0.3,0,0.4,0,0.5,0c0,0,0.1,0,0.1,0h0c0,0,0.1,0,0.1,0h0.1c0,0,0.1,0,0.1,0h0.2
	c0.6,0,0.6,0,1.1,0c0.6,0,0.6-0.1,1.1-0.1c0.1,0,0.1,0,0.2,0c0.4,0,0.4,0.1,0.9,0.1c0.5,0,0.5,0,1.1,0c0.1,0,0.1,0,0.2,0
	c0.4,0,0.4,0,0.9,0c0.3,0,0.5,0,0.7,0c0.1,0,0.2,0,0.4,0c0.5,0,0.5,0.1,1.1,0.1c0.5,0,0.5-0.1,1.1-0.1c0.1,0,0.1,0,0.2,0
	c0.3,0,0.4,0.1,0.7,0.1c0,0,0,0,0,0c0.1,0,0.1,0,0.2,0c0.1,0,0.2,0,0.3,0c0.3,0,0.4,0,0.8,0c0.4,0,0.5-0.1,0.8-0.2
	c0.1,0,0.2,0,0.3,0h0c0.2,0,0.4,0,0.5,0c0,0,0,0,0,0c0.1,0,0.3,0,0.6,0c0.5,0,0.5,0.1,1.1,0.1c0.5,0,0.5-0.1,1.1-0.1
	c0.1,0,0.1,0,0.2,0h0c0,0,0.1,0,0.1,0c0,0,0,0,0,0c0,0,0.1,0,0.1,0h0c0.1,0,0.1,0,0.2,0c0,0,0,0,0,0c0,0,0.1,0,0.1,0h0
	c0,0,0.1,0,0.1,0h0.2c0.5,0,0.5,0,1.1,0c0.5,0,0.5,0,1.1,0c0.6,0,0.6,0.1,1.1,0.1h0.2c0.2,0,0.3,0,0.5,0c0,0,0,0,0,0h0.4
	c0.2,0,0.3,0,0.4,0c0.2,0,0.3,0,0.4,0h0c0,0,0.1,0,0.1,0h0.2c0.6,0,0.6-0.2,1.1-0.2c0.5,0,0.5,0.2,1.1,0.2s0.6,0,1.1,0
	c0.1,0,0.1,0,0.2,0c0,0,0,0,0,0c0,0,0.1,0,0.1,0c0,0,0,0,0,0c0.1,0,0.2,0,0.3,0c0,0,0,0,0,0c0,0,0,0,0.1,0c0.1,0,0.2,0,0.3,0
	c0,0,0.1,0,0.1,0c0.3,0,0.5,0,0.7,0h0c0,0,0.1,0,0.1,0c0,0,0,0,0,0c0.1,0,0.1,0,0.2,0c0.5,0,0.5-0.1,1.1-0.1c0.5,0,0.6,0.1,1,0.1
	c0,0,0,0,0.1,0c0.6,0,0.6,0.1,1.1,0.1h1.1c0.4,0,0.5,0,0.8,0c0.1,0,0.2,0,0.3,0c0.2,0,0.3,0,0.4,0c0.2,0,0.3,0,0.7,0
	c0.5,0,0.5,0,0.9,0c0.1,0,0.1,0,0.2,0c0.6,0,0.6-0.2,1.1-0.2c0.5,0,0.5,0.1,1.1,0.1c0.6,0,0.6-0.2,1.1-0.2c0.1,0,0.2,0,0.3,0
	c0.3,0.1,0.4,0.2,0.8,0.2c0.1,0,0.1,0,0.2,0h0c0,0,0.1,0,0.1,0c0,0,0,0,0,0c0,0,0,0,0.1,0c0,0,0,0,0.1,0h0c0.2,0,0.3,0,0.6,0
	c0,0,0,0,0,0c0.5,0,0.5-0.1,0.9-0.1c0.1,0,0.1,0,0.2,0c0.6,0,0.6,0.1,1.1,0.1c0.1,0,0.1,0,0.2,0c0.3,0,0.4-0.1,0.6-0.1
	c0,0,0.1,0,0.1,0c0.1,0,0.1,0,0.2,0c0.5,0,0.5,0,1.1,0c0.1,0,0.2,0,0.3,0v-0.1c0,0,0.1,0,0.1,0c0,0,0,0.1,0,0.1
	c0.1-0.1,0.3-0.2,0.3-0.3c0,0,0,0,0,0h0c0.3,0,0.3,0.1,0.2,0.3c0.2,0,0.5-0.3,0.5,0.1c0.1,0,0.2,0,0.3,0c0,0,0,0,0-0.1
	c0,0,0.1,0,0,0c0.1,0,0.2,0.1,0.2,0.1c0.1,0,0.1,0,0.2,0c0,0,0,0,0,0c0,0,0,0,0,0c0,0,0,0,0,0c0.1,0,0.1,0,0.1,0
	c0.4,0,0.4,0.1,0.9,0.1c0.4,0,0.5,0,0.8,0c0.1-0.2,0.4-0.1,0.3-0.3c0-0.1,0.2,0.1,0.4,0c-0.4-0.3,0.3-0.1,0.5-0.1
	c-0.1-0.1-0.1-0.1-0.2,0c0-0.3,0-0.1,0.2-0.2c-0.1-0.1-0.2-0.1-0.3-0.1c0,0,0-0.1,0.1-0.1h0.6c0,0,0,0.1,0,0.1c0.1,0,0.3,0,0.4-0.1
	h1.1c-0.6,0.4,0.3,0.1,0.2,0h0.3c0,0.2-0.1,0.4-0.1,0.5c0.2,0,1.1-0.1,1-0.3c0.3,0.1,0.1,0.3,0.5,0.1c0,0.3,0.8,0.1,1.1,0.2
	c0-0.4,0.4,0.1,0.5,0.1c0,0,0,0,0,0c0,0,0.1,0,0.1,0c0-0.1,0.2-0.2,0.3-0.1c0.2,0.2,0.4-0.1,0.6-0.2c-0.2-0.4,0.6-0.2,0.8-0.1
	c0.2,0.2,0.3,0,0.3,0.4c0.3,0.1,0.2-0.2,0.5-0.2c-0.1-0.2-0.2,0-0.4-0.2c0,0,0,0,0,0c-0.1-0.2-0.3-0.2-0.4-0.4h0.3
	c0,0.1,0.1,0.1,0.1,0.2c0,0,0.1,0,0,0c0.2,0,0.2-0.1,0.1-0.2h0.2c-0.1,0.1-0.2,0.3-0.4,0.4c0.2,0,0.4-0.1,0.5,0.2
	c0.1,0,0.2-0.1,0.2-0.2c0.2,0.1-0.1,0.3,0,0.4c0.2,0,0.3-0.3,0.4,0c0,0,0,0,0,0c0.1,0,0.1,0,0.2,0c0,0,0,0,0.1,0c0,0,0-0.1,0.1-0.1
	c0.3-0.4,0.4-0.2,0.7-0.3c-0.1,0.3-0.1,0-0.3,0.1c0.1,0.1,0.1,0.2,0.1,0.2c0,0,0,0,0,0h0c0,0,0,0,0,0c0-0.1,0-0.1,0.1-0.2
	c0.2,0.2,0.7-0.4,0.9,0c-1-0.2-0.6,0.3,0.1,0.2c0,0,0,0,0,0.1c0.1,0,0.2,0,0.4,0c0,0,0.1,0,0.1,0c0.2-0.1,0-0.4,0-0.5
	c0.3-0.1,0.5-0.5,0.4,0.1c0.1,0.1,0.2,0.2,0.2,0.4c0.1,0,0.1,0,0.2,0c-0.1-0.2-0.1-0.5,0.1-0.6c0.3-0.2,0.4,0.3,0.2,0.4
	c0-0.3-0.2,0-0.3,0.2c0,0,0.1,0,0.1,0c0,0,0.1,0,0.1,0c0.2-0.1,0.4-0.2,0.7-0.2c0,0.1,0,0.2,0.1,0.3c0.1,0,0.2,0,0.3,0
	c0.6,0,0.6-0.2,1.1-0.2c0.1,0,0.1,0,0.2,0c0.4,0,0.4,0.1,0.9,0.1c0,0,0,0,0,0c0.1,0,0.1,0,0.2,0c0.2,0,0.3,0,0.4,0h0
	c0,0,0.1,0,0.1,0h0c0,0,0.1,0,0.1,0c0,0,0,0,0,0h0.2c0.6,0,0.6-0.1,1.1-0.1c0.5,0,0.5,0,1.1,0h0.2c0,0,0.1,0,0.1,0h0
	c0,0,0.1,0,0.1,0h0c0.2,0,0.3,0,0.6,0c0.5,0,0.5,0,1.1,0s0.6,0,1.1,0c0.5,0,0.5-0.1,1.1-0.1h1.1c0.1,0,0.2,0,0.2,0c0,0,0,0,0.1,0
	c0.1,0,0.1,0,0.2,0.1c0.1,0,0.1,0.1,0.2,0.1c0,0,0,0,0,0c0,0,0.1,0,0.1,0c0,0,0,0,0,0c0,0,0,0,0,0c0,0,0,0,0,0c0,0,0.1,0,0.1,0
	c0,0,0,0,0,0c0,0,0.1-0.1,0.1-0.1c0,0,0.1-0.1,0.1-0.1c0-0.1,0-0.1,0.1-0.2h3.3c0-0.1,0-0.1,0.2-0.1c0-0.1-0.1-0.2,0.1-0.2
	c0.1,0.1,0.1,0.2,0.1,0.3h0.1c0,0,0,0,0-0.1c0.2-0.1,0.6-0.5,0.2-0.5c0,0,0,0,0,0h0.3c0,0.1,0,0.1,0.1,0.1c0,0,0-0.1,0-0.1h0.3
	c0,0.1,0.1,0.1,0.2,0.2c-0.2,0.1-0.3,0.1-0.3-0.1c-0.1,0-0.4,0.2-0.3,0.4c0.2,0,0.2-0.2,0.5-0.1c0.1,0,0.2,0.1,0.2,0.1h0.3
	c0-0.1-0.1-0.2-0.1-0.3c0.3-0.1,0.5-0.5,0.4,0.1c0,0,0,0,0.1,0.1c0.1,0,0.2,0,0.3,0c0-0.1,0.1-0.1,0.1-0.2c0,0-0.1,0-0.1,0
	c-0.1-0.1,0-0.2,0.1-0.2c-0.1,0-0.2,0-0.2-0.1h0.3v0c0.1,0,0.2,0.1,0.2,0.1c0.1,0,0.1,0.1,0.2,0.2c0,0,0.1,0,0.1,0c0,0,0.1,0,0.1,0
	c0.1,0,0.1,0,0.2,0c0-0.1,0-0.2,0.1-0.2c0,0-0.1-0.1-0.1-0.1c0,0,0,0,0,0c0,0,0,0.1,0,0.1c0,0,0,0,0,0c-0.1,0-0.2,0-0.2-0.1
	c0,0,0,0,0,0c0,0-0.1,0-0.1-0.1c0,0,0,0,0,0h0.5c0,0,0,0.1,0,0.1c0,0,0,0,0,0c0,0,0.1,0.1,0.1,0.2c0,0.1,0,0.1,0,0.2h0.1
	c0,0,0,0,0-0.1c0.1,0,0.1,0,0.1,0.1h0.1c-0.1-0.1-0.2-0.2-0.3-0.2c0.1,0,0.1,0,0.2,0c-0.1-0.1,0.1,0,0.1,0c0.2,0,0.4,0.1,0.5,0
	c0,0,0,0,0,0c0.1,0,0.2-0.1,0.2-0.3c0.1,0.1,0.2,0.1,0.3,0c0.1,0.1,0,0.2-0.1,0.3c-0.1,0-0.1-0.1-0.1-0.1c-0.6,0.5,0.7,0,0.8,0.2
	c0.2-0.1,0.1-0.3,0.3-0.3c0.2,0.3,0.1,0.2,0.4,0.1c0.2-0.1,0.5-0.1,0.7-0.1c0.3-0.1,0.3,0.2,0.6,0.1c0-0.1,0.1-0.2,0.1-0.2h0.5
	c0,0,0,0,0,0c0,0,0,0,0,0h0.1c0,0,0.1,0,0.1,0.1c-0.1,0-0.1,0-0.1,0c0.2,0.2,0.4,0.1,0.6-0.1h2c0,0,0,0.1,0,0.1c-0.1,0-0.1,0-0.2,0
	c0-0.1,0-0.1-0.1-0.1c-0.1,0-0.1,0.1,0,0.1c-0.3,0-0.6,0.1-0.6,0.3c-0.1,0-0.1,0-0.2,0.1h2.2c0,0,0,0,0,0c0,0,0,0,0.1,0h0.1
	c0-0.1,0.1-0.1,0.2-0.1c0,0,0,0.1,0,0.1h0.3c-0.2-0.1-0.3-0.4-0.3-0.5h0.4c0.1,0.1,0.1,0.2,0,0.4c-0.1-0.1-0.1-0.1-0.2,0
	c0.1,0.1,0.1,0.1,0,0.2h3.7c-0.1-0.2-0.3-0.4-0.6-0.3c-0.4,0.1-0.5,0-0.5-0.2h0.5c0.1,0.1,0.2,0.1,0.3,0.1c0,0,0.1-0.1,0.1,0
	c0-0.1,0-0.1,0-0.2h0.9c0,0,0.1,0,0.2,0c0,0,0,0,0,0h0c0,0,0,0,0,0c0,0,0,0,0,0h0.3c0.1,0.1,0.3,0.1,0.3,0.4c-0.1,0-0.1-0.1-0.2,0
	c0,0,0,0.1,0.1,0.1h0.4c0-0.1,0-0.1,0-0.2c0.3,0,0.3,0,0.3-0.3c0.1,0,0.2,0.4,0.5,0.4c0,0.1-0.2,0.1-0.3,0.1h21.8
	c0-0.1,0-0.1,0.1-0.1c0,0,0.1,0.1,0.1,0.1h0.5c0.1,0,0.1,0,0.2,0c0.2,0,0.4,0.1,0.5,0h0.2c0,0,0,0,0,0v-0.1c0,0,0,0,0,0h0.2
	c0,0,0,0,0,0c0,0,0,0,0,0c0,0.1,0,0.1,0,0.1h0.7c0,0,0,0,0,0v-0.2c0,0,0,0,0,0h0.1c0,0,0,0,0,0c0,0,0,0.1,0,0.1c0,0.1,0,0.1,0,0.1
	c0,0,0,0,0,0h3.9c0,0,0-0.1,0-0.1c0,0,0-0.1,0-0.1c0,0,0-0.1,0-0.1c0,0,0,0,0,0c0,0,0,0,0,0c0,0,0,0,0,0c0,0,0,0,0,0
	c0.1,0,0.1,0.1,0.1,0.1c0,0,0,0,0,0c0,0,0,0,0,0v0.2c0,0,0,0,0,0h6.4c0,0,0,0.1-0.1,0.1c0,0,0,0,0,0c0,0,0,0,0,0c0,0,0,0,0,0
	c0.1,0,0.2,0,0.2,0c0,0,0.1-0.1,0.1-0.1h13c0-0.1,0-0.1,0-0.1c0,0,0,0,0,0v-0.3c0.2-0.2,0.3,0.1,0.2,0.4h0.2c0,0,0,0-0.1-0.1
	c0,0,0,0,0,0v0v0c0-0.3,0.1-0.3,0.3-0.2c0-0.2-0.3-0.5,0.2-0.6c0.3,0.2,0.1,0.5,0.2,0.7c0,0,0,0.1,0,0.1h0.5c0,0,0,0,0,0l0,0
	c0,0,0,0,0,0c0,0,0,0,0,0c0,0,0,0,0,0l0,0l0,0c0,0,0,0,0,0h0.2c0,0,0,0,0,0c0,0,0,0,0,0h0.9c0,0,0,0,0,0c0,0,0,0,0,0
	c0,0,0.1,0,0.1,0h9.8c0,0,0,0,0,0v0.2c0,0,0,0,0,0c0.1,0,0.1,0,0.2,0c0,0,0.1-0.1,0.1-0.2c0,0,0-0.1,0-0.1c0,0,0,0,0,0h4.5
	c0,0,0,0,0,0c0,0,0,0.1,0,0.1c0,0,0,0.1,0,0.1c0,0,0.1,0,0.1,0c0,0,0,0,0,0v-0.2c0,0,0,0,0,0c0,0,0,0,0,0h7.4c0,0,0,0,0,0
	c0,0,0,0,0,0c0,0,0,0,0,0c0.1,0,0.1,0,0.1,0h0.5c0,0,0-0.1,0.1-0.1h0c0,0,0,0,0,0c0,0,0,0,0,0c0,0,0,0,0,0c0,0,0,0,0,0
	c0.1,0,0.1,0.1,0.1,0.1h0.6c0.1,0,0.2,0,0.2,0.1c0,0,0,0,0,0c0,0,0,0,0,0v0c0,0,0,0,0,0c0,0,0,0,0,0c0,0,0,0,0,0h2.2v0.2
	c0,0,0,0,0,0h0.2c0,0,0,0,0,0l-0.1-0.2h6.6c0-0.1,0-0.1,0-0.2c0,0,0,0,0,0c0,0.1,0.1,0.1,0,0c0,0,0.1,0.1,0.1,0.1h0.2
	c0-0.2,0-0.5,0.1-0.6c0,0,0,0,0,0c0,0,0,0,0,0c0,0,0,0,0,0c0,0,0,0,0,0h0c0.1,0,0.1,0,0.2,0.1c-0.2,0.3,0,0.4,0.2,0.6c0,0,0,0-0.1,0
	h4.5c0,0,0,0,0,0c0,0,0,0,0,0c0,0,0,0,0,0c0,0,0.1,0,0.1,0h8.5c0,0.1,0.1,0.2,0.2,0.3c0,0,0.1,0.1,0.1,0.1c0,0,0,0,0,0
	c0.1,0,0.1,0.1,0.2,0.1c0.2,0,0.4-0.2,0.8-0.2h0c0,0,0,0,0.1,0c0.5,0,0.5,0,1.1,0s0.6,0.1,1.1,0.1c0.5,0,0.5,0,1.1,0
	c0.6,0,0.6,0.1,1.1,0.1c0.6,0,0.6-0.1,1.1-0.1c0.1,0,0.2,0,0.3,0c0.3,0,0.4,0,0.8,0c0.4,0,0.5,0,0.8,0c0.1,0,0.2,0,0.3,0
	c0.2,0,0.3,0,0.4,0c0.2,0,0.3-0.1,0.7-0.1s0.5,0,0.7,0h0.4c0.6,0,0.6,0,1.1,0c0.6,0,0.6,0,1.1,0c0.6,0,0.6,0,1.1,0
	c0.2,0,0.3,0,0.4,0c0.2,0,0.3,0.1,0.7,0.1c0.4,0,0.5,0,0.8,0c0.1,0,0.2,0,0.3,0c0.1,0,0.1,0,0.2,0c0,0,0,0,0,0c0,0,0.1,0,0.1,0
	c0,0,0,0,0,0c0.2,0,0.3-0.1,0.5-0.1c0.1,0,0.2,0,0.3,0c0.4,0,0.5,0,0.8,0h0.1c0,0,0,0,0.1,0h0.2c0.3,0,0.5,0,0.7,0
	c0.1,0,0.2,0,0.4,0c0.2,0,0.3,0,0.4,0c0.2,0,0.3,0.1,0.7,0.1c0.1,0,0.1,0,0.2,0c0,0,0,0,0,0c0.3,0,0.4-0.1,0.9-0.1
	c0.1,0,0.1,0,0.2,0c0,0,0.1,0,0.1,0c0,0,0,0,0,0c0,0,0.1,0,0.1,0c0,0,0,0,0,0c0.1,0,0.2,0,0.2,0c0,0,0,0,0,0c0,0,0.1,0,0.1,0
	c0,0,0,0,0,0c0,0,0.1,0,0.1,0c0,0,0,0,0,0c0,0,0.1,0,0.2,0c0.5,0,0.5-0.1,1.1-0.1c0.6,0,0.6,0.1,1.1,0.1c0.2,0,0.3,0,0.4,0
	c0.2,0,0.3,0,0.7,0c0.4,0,0.5,0,0.8,0c0.1,0,0.2,0,0.3,0c0.5,0,0.5-0.1,1.1-0.1c0.2,0,0.3,0,0.4,0.1c0.2,0.1,0.3,0.1,0.7,0.1
	c0.6,0,0.6-0.1,1.1-0.1c0.5,0,0.5-0.1,1.1-0.1c0.4,0,0.5,0,0.8,0c0,0,0,0,0,0c0,0,0.1,0,0.1,0c0,0,0.1,0,0.2,0c0.5,0,0.5,0,1.1,0
	c0.6,0,0.6,0.1,1.1,0.1c0.6,0,0.6-0.1,1.1-0.1c0.1,0,0.2,0,0.3,0c0.3,0,0.4,0,0.8,0c0.5,0,0.5,0,1.1,0c0.4,0,0.5,0,0.8,0
	c0.1,0,0.2,0,0.3,0c0.1,0,0.2,0,0.3,0h0.8c0.3,0,0.5,0,0.7,0c0.1,0,0.2,0,0.4,0c0.1,0,0.2,0,0.3,0c0.3,0,0.4-0.1,0.8-0.1
	c0.5,0,0.5,0,0.9,0h0.2c0.5,0,0.5,0,1.1,0c0.5,0,0.5,0.1,1.1,0.1c0.6,0,0.6-0.1,1.1-0.1c0.6,0,0.6,0,1.1,0c0.6,0,0.6,0.1,1.1,0.1
	c0.1,0,0.2,0,0.3,0c0.3,0,0.4,0,0.8,0c0.5,0,0.5-0.1,1.1-0.1c0.5,0,0.5,0,0.9,0h0.2c0.5,0,0.5,0.1,1.1,0.1c0.5,0,0.5,0,1.1,0
	c0.5,0,0.5-0.1,1.1-0.1c0.6,0,0.6,0,1.1,0c0.2,0,0.3,0,0.5,0c0.1,0,0.1,0,0.2,0c0,0,0,0,0.1,0c0,0,0,0,0.1,0c0,0,0.1,0,0.1,0
	c0,0,0,0,0.1,0c0.1,0,0.1,0,0.2,0c0.6,0,0.6,0,1.1,0c0.5,0,0.5,0.1,1.1,0.1c0.1,0,0.1,0,0.2,0c0,0,0.1,0,0.1,0
	c0.3,0,0.4-0.2,0.9-0.2c0,0,0.1,0,0.1,0c0.2,0,0.3,0,0.4,0c0.1,0,0.2,0,0.3,0c0.1,0,0.2,0,0.3,0h0.2c0,0,0.1,0,0.1,0.1c0,0,0,0,0,0
	c0,0,0,0,0,0c0,0-0.1,0-0.1,0c0,0,0,0,0,0h0.9c0.1,0,0.2,0,0.3,0h0c0,0,0.1,0,0.1,0c0,0,0,0,0.1,0c0,0,0,0,0,0c0.1,0,0.2,0,0.2,0
	c0,0,0,0,0,0c0,0,0.1,0,0.1,0c0,0,0,0,0,0c0,0,0.1,0,0.2,0h0c0.4,0,0.5,0,0.8,0c0.1,0,0.2,0,0.3,0c0.5,0,0.5,0,1.1,0
	c0.6,0,0.6-0.1,1.1-0.1c0.2,0,0.3,0,0.4,0c0.2,0,0.3,0,0.7,0h0c0.1,0,0.1,0,0.2,0c0,0,0,0,0.1,0c0,0,0.1,0,0.1,0c0,0,0,0,0.1,0
	c0,0,0,0,0,0c0.1,0,0.2,0,0.3,0h0c0,0,0.1,0,0.1,0c0.1,0,0.1,0,0.2,0c0.6,0,0.6-0.2,1.1-0.2c0.5,0,0.5,0.1,1.1,0.1
	c0.5,0,0.5-0.1,1.1-0.1c0.6,0,0.6,0.1,1.1,0.1c0.1,0,0.1,0,0.2,0c0,0,0,0,0.1,0c0,0,0.1,0,0.1,0c0,0,0,0,0.1,0c0,0,0,0,0.1,0
	c0,0,0.1,0,0.1,0c0,0,0,0,0,0c0.1,0,0.2,0,0.3,0h0c0.1,0,0.1,0,0.2,0c0.6,0,0.6-0.1,1.1-0.1c0.5,0,0.5,0.1,1.1,0.1
	c0.4,0,0.5,0,0.8-0.1c0.1,0,0.2,0,0.3,0c0.1,0,0.1,0,0.2,0c0,0,0,0,0.1,0c0,0,0.1,0,0.1,0c0,0,0,0,0.1,0c0,0,0,0,0,0
	c0,0,0.1,0,0.1,0c0.1,0,0.3,0,0.5,0h0.1c0.5,0,0.5,0,1,0c0.3,0,0.4,0,0.5,0.1c0.1,0,0.3,0.1,0.6,0.1c0.2,0,0.3,0,0.4,0
	c0.2,0,0.3-0.1,0.7-0.1c0.4,0,0.5,0,0.7,0c0,0,0,0,0.1,0c0.1,0,0.2,0,0.3,0c0.6,0,0.6-0.1,1.1-0.1c0.6,0,0.6,0.1,1.1,0.1
	c0.6,0,0.6-0.2,1.1-0.2c0.1,0,0.2,0,0.3,0c0.3,0.1,0.4,0.2,0.8,0.2c0.5,0,0.5-0.1,0.9-0.1c0.1,0,0.1,0,0.2,0c0.5,0,0.5,0,1.1,0
	c0.6,0,0.6-0.1,1.1-0.1c0.5,0,0.5,0.1,1.1,0.1c0.5,0,0.5-0.1,1.1-0.1c0.6,0,0.6,0,1.1,0h0.1c0.1,0,0.1,0,0.2,0
	c0.2,0,0.3,0.1,0.5,0.1c0,0,0,0,0,0c0,0,0.1,0,0.1,0c0,0,0,0,0,0c0.1,0,0.1,0,0.2,0c0.6,0,0.6-0.1,1.1-0.1c0.6,0,0.6,0,1.1,0h0.2
	c0,0,0.1,0,0.1,0h0c0.2,0,0.3,0,0.5,0h0.2c0.4,0,0.5,0.1,0.7,0.1c0,0,0.1,0,0.1,0c0,0,0,0,0,0c0,0,0.1,0,0.1,0c0,0,0,0,0,0
	c0.1,0,0.1,0,0.2,0c0.1,0,0.2,0,0.3,0c0.3,0,0.4-0.1,0.8-0.1c0.3,0,0.5,0,0.7,0c0.1,0,0.2,0,0.4,0c0.1,0,0.2,0,0.3,0
	c0.3,0,0.4,0.1,0.8,0.1c0.3,0,0.4,0,0.6,0c0.1,0,0.3,0,0.6,0c0.6,0,0.6,0.1,1.1,0.1c0.1,0,0.2,0,0.3,0c0.3,0,0.4-0.1,0.8-0.1
	c0.6,0,0.6,0,1.1,0c0.6,0,0.6-0.1,1.1-0.1s0.6,0.1,1.1,0.1c0.1,0,0.2,0,0.2,0c0,0,0,0,0.1,0c0,0,0.1,0,0.1,0c0,0,0.1,0,0.1,0
	c0,0,0,0,0.1,0c0,0,0.1,0,0.1,0c0,0,0,0,0,0c0,0,0.1,0,0.1,0c0,0,0,0,0,0c0,0,0.1,0,0.1,0c0,0,0,0,0,0c0,0,0.1-0.1,0.1-0.1
	c0.1-0.1,0.2-0.2,0.2-0.3h1.1c0,0,0,0,0,0.1c0,0.1,0.1,0.2,0.2,0.2c0,0,0.1,0,0.1,0c0,0,0.1-0.1,0.1-0.1c0,0,0,0,0,0c0,0,0,0,0,0
	c-0.1,0-0.1,0-0.1,0c0,0,0,0,0,0h5.7c0,0.1,0,0.2,0.1,0.3c0.1,0.1,0.2,0.1,0.3,0.1c0,0,0,0,0,0c0,0,0-0.1,0-0.1c0-0.1,0-0.1,0-0.2
	h11.7c1.1,0,2.2,0,3.3,0c1,0,1.9-0.1,2.9,0c1,0,2,0,3,0c0,0-0.1,0.1-0.1,0.1c0.1,0,0.2,0.1,0.4,0.1h1.4c0.4,0,0.8-0.1,1.1-0.1
	c0,0,0.1,0,0.1,0c0,0,0,0,0,0c0,0,0,0,0,0c0.2,0,0.5,0,0.7,0h10.8c0,0,0.1-0.1,0.2-0.1c0.1-0.1,0.1-0.1,0.2-0.1c0.1,0,0.2,0,0.3,0
	c0.1,0,0.1,0.1,0.2,0.1c0.1,0,0.2,0.1,0.3,0.1h0.4c0,0,0.1,0,0.1,0c0.2,0,0.4-0.1,0.6-0.1c0,0,0.1,0.1,0.1,0.1h0.4
	c0.1,0,0.1-0.1,0.1-0.1c0.5,0,1,0,1.6,0c0,0,0.1,0.1,0.1,0.1h0.9c0,0,0-0.1,0-0.1c0.3,0,0.5,0,0.8,0c0,0,0,0,0,0c0,0,0,0,0.1,0
	c0.2,0,0.5,0,0.7,0c0.6,0,1.3,0,1.9,0c0,0,0,0.1,0,0.1h0.5c0,0,0,0,0,0c0,0,0,0,0,0h0.1c0,0,0-0.1,0-0.1c0,0,0,0,0,0
	c0.1,0,0.3,0,0.1,0.1h0.3c0,0,0.1-0.1,0.2-0.1c0.1,0,0.1,0,0.2,0c0,0,0,0.1-0.1,0.1h0.3c0,0,0.1,0,0.2,0c0,0,0,0,0,0h1.5
	c-0.1-0.1-0.1-0.1-0.2-0.1c0.2,0,0.4,0,0.6,0c0.1,0,0.2,0.1,0.3,0.1h0c0,0,0,0,0,0h0v-0.1c0.2,0.1,0.1,0.1,0.1,0.1h0.2
	c0.1-0.1,0.1-0.1,0.1-0.2c0.2,0,0.4-0.1,0.5-0.2c-0.4,0-0.6,0-0.7-0.1h2.1c-0.1,0-0.3,0.1-0.4,0.1c0.3,0.2,0.7,0,1,0
	c0-0.1,0-0.1-0.2-0.2h2.6V0.9C458.3,1,458.2,1.1,457.8,1.1z M354.1,1.7C353.9,1.7,354.1,1.6,354.1,1.7L354.1,1.7z M68,1.5L68,1.5
	C68,1.5,67.9,1.5,68,1.5z M63.9,1.8C64,1.8,63.9,1.9,63.9,1.8L63.9,1.8z M62.7,1.5c-0.1,0-0.1-0.1-0.1-0.1
	C62.7,1.4,62.7,1.4,62.7,1.5z M55.6,1.8C55.6,1.8,55.7,1.8,55.6,1.8C55.6,1.8,55.6,1.8,55.6,1.8C55.6,1.8,55.6,1.8,55.6,1.8z
	 M16.4,2.4C16.4,2.3,16.4,2.3,16.4,2.4c0-0.1,0-0.1,0-0.1v0c0,0,0,0,0,0c0,0,0,0,0,0c0,0,0,0,0,0c0,0,0.1,0.1,0.1,0.2
	C16.5,2.4,16.4,2.4,16.4,2.4z M17.9,1.7C17.9,1.8,17.8,1.8,17.9,1.7c-0.1,0.1-0.1,0.1-0.1,0.1c0,0,0,0,0,0c0,0,0,0,0,0
	c-0.1,0-0.1-0.1-0.1-0.2c0,0,0,0,0-0.1c0,0,0,0,0,0c0,0,0,0,0,0C17.7,1.6,17.7,1.6,17.9,1.7C17.8,1.7,17.8,1.7,17.9,1.7
	C17.8,1.7,17.9,1.7,17.9,1.7C17.9,1.7,17.9,1.7,17.9,1.7C17.9,1.7,17.9,1.7,17.9,1.7z M18.9,2C18.9,2.1,18.9,2.1,18.9,2l-0.2,0
	c0,0,0,0,0,0c0,0,0,0,0,0v0c0,0,0,0,0,0c0,0,0-0.1,0-0.1c0,0,0-0.1,0-0.1c0,0,0-0.1,0-0.1c0,0,0,0,0,0c0.1,0,0.1,0,0.1,0
	c0,0,0,0,0,0c0,0,0,0,0,0c0.1,0,0.1,0.1,0.1,0.1c0,0,0,0,0,0.1c0,0,0,0,0,0.1C18.9,1.9,18.9,2,18.9,2C18.9,2,18.9,2,18.9,2
	C18.9,2,18.9,2,18.9,2z M19.9,2.1C19.9,2.1,19.9,2.1,19.9,2.1c-0.1,0.1-0.3,0.1-0.5,0.1c-0.1,0-0.1,0-0.2,0v0.1c0,0,0,0,0,0
	c0,0,0,0,0,0c-0.1,0-0.1-0.1-0.1-0.2v0l0,0c0,0,0,0,0-0.1v0c0,0,0,0,0,0s0,0,0,0c0,0,0,0,0-0.1c0,0,0,0,0,0c0,0,0,0,0,0
	c0.1,0,0.2,0,0.2-0.1c0,0,0,0,0,0c0,0,0,0,0,0c0,0.1,0.1,0.1,0.2,0.1C19.8,1.9,19.9,1.9,19.9,2.1C19.9,2.1,19.9,2.1,19.9,2.1z
	 M23.3,1.9C23.3,1.9,23.3,1.9,23.3,1.9l0.2,0c0,0,0,0,0,0c0,0,0,0,0,0c0,0.1,0,0.1-0.1,0.2c0,0-0.1,0.1-0.2,0c0,0,0,0,0,0V1.9z
	 M23.7,42.5C23.7,42.5,23.7,42.5,23.7,42.5C23.7,42.5,23.7,42.5,23.7,42.5c-0.3,0-0.4-0.2-0.5-0.4c0,0,0-0.1,0-0.1c0,0,0,0,0,0
	c0.1,0,0.2,0.1,0.4,0.1c0,0,0.1,0,0.1,0V42.5z M23.8,1.6C23.8,1.6,23.7,1.6,23.8,1.6l-0.2,0c0,0,0,0,0,0c0,0,0,0,0,0c0,0,0,0,0,0
	c0,0,0,0,0,0c0,0,0,0,0,0c0,0,0,0,0,0c0,0,0,0,0,0c0,0,0-0.1,0-0.1c0,0,0.1,0,0.1,0C23.7,1.4,23.8,1.4,23.8,1.6
	C23.8,1.5,23.8,1.6,23.8,1.6z M24,1.8C24,1.8,24,1.9,24,1.8C24,1.9,24,1.9,24,1.8C24,1.9,24,1.9,24,1.8C24,1.9,24,1.9,24,1.8
	C24,1.9,23.9,1.9,24,1.8c-0.1,0.1-0.1,0.1-0.2,0.1c0,0,0-0.1,0-0.1c0,0,0-0.1,0.1-0.1c0,0,0.1,0,0.1,0c0,0,0,0,0,0V1.8z M24.2,3.8
	c-0.1-0.2,0-0.3,0.2-0.3c0,0,0,0.1,0,0C24.4,3.7,24.4,3.8,24.2,3.8z M26.5,42.6C26.5,42.6,26.5,42.6,26.5,42.6
	C26.4,42.6,26.4,42.6,26.5,42.6c-0.2,0-0.4,0-0.5,0c-0.2,0-0.3,0-0.4-0.1c0,0,0,0,0,0c0,0,0,0,0,0c0,0,0-0.1,0.1-0.1
	c0.1,0,0.2,0,0.3,0c0.2,0,0.4,0,0.5,0h0.1V42.6z M33.6,42.1c0,0-0.1,0-0.2,0c0,0,0,0,0,0v-0.2c0,0,0,0,0,0c0,0,0,0,0,0c0,0,0,0,0,0
	c0,0,0,0,0,0c0,0,0,0,0,0c0,0,0.1,0,0.1,0c0,0,0.1,0.1,0.1,0.1C33.7,42,33.7,42.1,33.6,42.1z M34.1,42.4c0,0-0.1,0-0.1,0
	c-0.1,0-0.2-0.1-0.2-0.2c0,0,0-0.1,0-0.1c0,0,0,0,0,0H34c0,0,0,0,0,0c0,0,0,0,0,0c0,0,0,0,0,0c0,0,0,0,0,0c0,0,0,0,0.1,0
	c0,0,0,0,0,0C34.1,42.3,34.1,42.3,34.1,42.4C34.1,42.4,34.1,42.4,34.1,42.4z M34.4,41.8C34.4,41.8,34.4,41.8,34.4,41.8l-0.3,0
	c0,0,0,0,0,0c0,0,0,0,0,0c0-0.1,0-0.2,0.1-0.2c0.1,0,0.1-0.1,0.2-0.1c0,0,0,0,0,0V41.8z M39.5,42.5C39.5,42.5,39.5,42.5,39.5,42.5
	c-0.2,0.1-0.3,0-0.3,0c-0.1-0.1-0.1-0.1-0.1-0.2c0,0,0-0.1,0-0.1c0,0,0,0,0,0c0.1,0,0.2,0,0.3,0.1c0.1,0.1,0.1,0.1,0.1,0.2
	C39.5,42.4,39.5,42.4,39.5,42.5z M39.8,41.6C39.8,41.6,39.8,41.6,39.8,41.6C39.8,41.7,39.8,41.7,39.8,41.6c-0.1,0-0.1,0-0.1,0.1
	c0,0,0,0,0,0.1c0,0,0,0,0,0c-0.2,0-0.3,0.1-0.3,0.1c0,0,0,0,0,0c0,0,0,0,0,0c0-0.1-0.1-0.1-0.2-0.1c-0.1,0-0.3-0.1-0.3-0.3
	c0,0,0,0,0,0c0,0,0,0,0,0c0.1-0.1,0.4-0.1,0.6-0.1c0.1,0,0.2,0,0.3,0v-0.1c0,0,0,0,0,0c0,0,0,0,0,0c0.1,0,0.1,0.2,0.1,0.2v0
	L39.8,41.6C39.8,41.6,39.8,41.6,39.8,41.6L39.8,41.6z M40.6,42.1C40.6,42.1,40.6,42.1,40.6,42.1c-0.1,0-0.2,0-0.2,0.1c0,0,0,0,0,0
	c0,0,0,0,0,0c-0.1,0-0.2-0.1-0.2-0.2c0,0,0-0.1,0-0.1c0,0,0-0.1,0-0.1c0-0.1,0-0.1,0-0.2c0,0,0,0,0,0c0,0,0,0,0,0c0,0,0,0,0,0h0.3
	c0,0,0,0,0,0c0,0,0,0,0,0v0c0,0,0,0,0,0c0,0.1,0,0.1,0,0.1c0,0,0.1,0.1,0.1,0.2C40.6,42,40.6,42,40.6,42.1z M41.8,42.2
	c-0.1,0-0.1,0-0.2,0c0,0,0,0-0.1,0c0,0,0,0,0,0c0,0,0,0,0,0c0,0,0,0,0,0c0-0.1,0.1-0.1,0.1-0.1c0,0,0.1,0,0.1-0.1c0,0,0,0,0,0
	c0,0,0,0,0,0c0.1,0,0.1,0.1,0.1,0.2C41.9,42.1,41.9,42.1,41.8,42.2C41.9,42.1,41.9,42.1,41.8,42.2C41.9,42.1,41.9,42.2,41.8,42.2z
	 M43.5,41.4L43.5,41.4C43.5,41.4,43.5,41.4,43.5,41.4C43.5,41.4,43.5,41.4,43.5,41.4C43.4,41.4,43.4,41.4,43.5,41.4
	c-0.1,0-0.2-0.1-0.2-0.2c0.1,0,0.1,0,0.2,0C43.5,41.2,43.5,41.3,43.5,41.4C43.5,41.3,43.5,41.3,43.5,41.4z M46.7,2h-0.2
	c0,0,0,0,0-0.1c0.2,0,0.2-0.1,0.1-0.2c0,0,0,0,0,0c0,0,0,0,0,0C46.7,1.7,46.7,1.9,46.7,2z M47.8,1.8C47.9,1.9,47.8,1.9,47.8,1.8
	L47.8,1.8z M53.8,2c0-0.2,0.1-0.3,0.2-0.4c0,0,0,0.1,0,0.2h0c0,0,0,0,0,0c0,0.1,0.1,0.1,0.1,0.2H53.8z M54.6,2C54.6,2,54.6,2,54.6,2
	c0,0,0.1,0,0.1,0H54.6z M55,2C55,2,54.9,2,55,2C55,2,55,2,55,2L55,2z M55.1,2C55.1,2,55,2,55.1,2C55,1.9,55,1.9,55.1,2
	c-0.1-0.1-0.1,0-0.1,0c-0.3,0-0.2-0.1-0.5-0.1c0-0.3,0.3-0.1,0.5,0c0.1-0.4,0.4-0.1,0.3,0c0.2,0,0.2,0,0.2,0.1H55.1z M58.7,2
	c0.1,0,0.1-0.1,0.2-0.1c0,0,0,0,0,0c0,0,0,0,0,0c0.1,0,0.2,0,0.3,0.1H58.7z M59.9,1.9C59.9,1.9,59.9,2,59.9,1.9L59.7,2
	C59.7,1.9,59.7,1.8,59.9,1.9C59.8,1.8,59.9,2,59.9,1.9z M60.1,2L60.1,2c-0.1-0.1-0.1-0.1,0-0.1C60.1,1.9,60.1,1.9,60.1,2z M60.8,2
	c0,0,0-0.1,0-0.1c0.2,0,0.3,0,0.4,0.1H60.8z M61.9,2C61.9,2,61.9,2,61.9,2C61.9,2,62,2,61.9,2L61.9,2z M64.8,2C64.8,2,64.7,2,64.8,2
	h-0.1c-0.1,0-0.1,0-0.2,0C64.6,1.9,64.8,1.7,64.8,2L64.8,2z M67.6,2C67.5,2,67.5,2,67.6,2L67.6,2c-0.1,0-0.1,0-0.1-0.1
	C67.6,1.8,67.6,1.9,67.6,2z M71.2,1.6c0.1,0,0.1,0.1,0.1,0.1C71.2,1.7,71.2,1.6,71.2,1.6z M72.3,1.6L72.3,1.6L72.3,1.6
	C72.3,1.6,72.3,1.6,72.3,1.6c0,0,0.1,0,0.1,0.1C72.3,1.7,72.3,1.7,72.3,1.6z M73.4,2c0-0.2,0.1-0.3,0.2-0.4c0,0.1,0.1,0.2,0.2,0.4
	H73.4z M74.2,2C74.2,2,74.2,2,74.2,2c0,0,0.1,0,0.1,0H74.2z M74.5,2C74.5,2,74.5,2,74.5,2C74.5,2,74.5,2,74.5,2L74.5,2z M74.7,2
	c0,0-0.1-0.1-0.1-0.1C74.9,1.8,75,1.9,75,2H74.7z M76.2,1.9c0.1,0,0.1,0,0.1,0.1C76.1,2,75.9,2,76.2,1.9z M78.2,2
	c0.1-0.1,0.3-0.1,0.5,0H78.2z M79.6,2H79C79.1,1.7,79.4,1.9,79.6,2C79.6,2,79.6,2,79.6,2z M81.5,2C81.5,2,81.5,2,81.5,2
	C81.5,2,81.5,2,81.5,2C81.5,2,81.5,2,81.5,2C81.5,2,81.5,2,81.5,2L81.5,2z M82.5,2C82.5,2,82.4,1.9,82.5,2c0-0.1,0-0.1,0-0.2
	c0,0.1,0.2,0.3,0.2,0.1c0.2,0,0.3,0.1,0.3,0.1H82.5z M83.3,2L83.3,2C83.3,2,83.3,2,83.3,2C83.3,2,83.3,2,83.3,2L83.3,2z M83.3,2
	C83.3,2,83.3,2,83.3,2C83.3,2,83.3,2,83.3,2L83.3,2z M83.4,1.8C83.5,1.8,83.4,1.9,83.4,1.8L83.4,1.8z M87.1,2C87.1,2,87.1,2,87.1,2
	L87.1,2C87,2,87,1.9,87,1.9h0C87.1,1.8,87.2,1.9,87.1,2z M88.5,2L88.5,2C88.5,2,88.5,2,88.5,2L88.5,2z M89.5,1.8
	C89.7,1.9,89.5,2,89.5,1.8L89.5,1.8z M89.9,2h-0.2c0.1,0,0.1-0.1,0.2-0.1C89.9,1.9,89.9,2,89.9,2z M90.5,1.9
	C90.5,1.9,90.4,1.9,90.5,1.9C90.3,1.9,90.2,1.7,90.5,1.9C90.5,1.9,90.5,1.9,90.5,1.9z M91.6,2c0,0-0.1-0.1-0.1-0.2
	C91.6,1.8,91.7,1.9,91.6,2L91.6,2z M96.7,1.8C96.7,1.8,96.7,1.8,96.7,1.8c-0.1,0-0.1-0.1-0.2-0.1C96.6,1.7,96.7,1.7,96.7,1.8
	C96.7,1.8,96.7,1.8,96.7,1.8z M97.1,1.9C97.1,1.9,97.1,1.9,97.1,1.9C97.1,1.9,97.1,1.9,97.1,1.9L97.1,1.9z M97,1.9
	C97,1.9,97,1.9,97,1.9C97,1.8,97.1,1.8,97,1.9C97.1,1.9,97,1.9,97,1.9z M100.2,1.7C100.2,1.7,100.2,1.6,100.2,1.7
	C100.2,1.7,100.2,1.6,100.2,1.7z M100.4,2h-0.3c-0.1,0-0.1,0-0.2,0c0,0,0,0,0,0h-0.3c-0.2-0.2,0.2-0.3,0.5-0.2
	c0-0.1,0.1-0.1,0.3-0.1V2z M134.6,42.4C134.6,42.4,134.7,42.4,134.6,42.4C134.6,42.4,134.7,42.4,134.6,42.4z M134.7,42.3
	c0,0.1-0.1,0.1-0.3,0.1v-0.3h0.3c0.1,0,0.1,0,0.2,0c0,0,0,0,0,0h0.3C135.4,42.3,135,42.4,134.7,42.3z M138.1,42.2
	C138.1,42.2,138.2,42.3,138.1,42.2c0.1,0,0.1,0.1,0.2,0.1C138.2,42.3,138.2,42.3,138.1,42.2C138.1,42.2,138.1,42.2,138.1,42.2z
	 M137.8,42.1C137.8,42.1,137.8,42.1,137.8,42.1C137.8,42.1,137.8,42.1,137.8,42.1L137.8,42.1z M137.8,42.1
	C137.8,42.2,137.9,42.2,137.8,42.1C137.8,42.2,137.7,42.2,137.8,42.1C137.8,42.2,137.8,42.2,137.8,42.1z M137.6,42.5
	c-0.4,0-0.7,0.1-1.1,0.3c0-0.4,0.3-0.2,0.5-0.3c-0.2-0.2-0.2,0.1-0.3-0.1c-0.1-0.2-0.3,0-0.4-0.1c0,0,0-0.1,0-0.1h0.8
	c0.2,0.1,0.3,0.3,0.5,0.4c0-0.5,0.7,0.1,0.7,0.2C138.1,42.7,137.4,43,137.6,42.5z M143.2,42.1L143.2,42.1c0.1,0,0.1,0.1,0.2,0.2
	C143.2,42.2,143.2,42.2,143.2,42.1z M144.3,42.2C144.3,42.2,144.3,42.2,144.3,42.2c0.1,0,0.1-0.1,0.1-0.1
	C144.5,42.1,144.6,42.3,144.3,42.2z M144.8,42.4c0.1,0,0.1,0,0.1,0.1C144.8,42.6,144.8,42.5,144.8,42.4z M144.9,42.2
	c0,0,0-0.1,0-0.1h0.2C145,42.1,145,42.1,144.9,42.2z M145.3,42.2C145.2,42.2,145.4,42,145.3,42.2L145.3,42.2z M145.2,42.6
	c0,0,0.1-0.1,0.1-0.1c0.1,0,0.1,0,0.1,0.1C145.4,42.6,145.3,42.6,145.2,42.6z M145.5,42.5C145.5,42.5,145.5,42.5,145.5,42.5
	c-0.1-0.1-0.1-0.1-0.1-0.2c0.1,0,0.2,0,0.3,0.1C145.7,42.5,145.6,42.5,145.5,42.5z M146.4,42.1C146.4,42.1,146.4,42.1,146.4,42.1
	L146.4,42.1L146.4,42.1z M146.8,42.3C146.9,42.3,146.8,42.4,146.8,42.3L146.8,42.3z M147.8,42.2L147.8,42.2c-0.1,0-0.1,0-0.1-0.1
	c0,0,0,0,0.1,0h0C147.8,42.1,147.8,42.1,147.8,42.2z M148.3,42.7c0-0.1,0-0.1,0-0.2c0,0,0,0,0,0c0,0,0,0,0,0c0,0,0,0,0,0
	c0,0,0,0,0,0C148.4,42.6,148.4,42.6,148.3,42.7z M148.9,42.3c0-0.1,0.1-0.1,0.1-0.2h0c0,0,0,0,0,0h0c0,0,0,0.1,0.1,0.1
	C149.1,42.2,149,42.2,148.9,42.3z M151.4,42.2C151.3,42.2,151.4,42.1,151.4,42.2L151.4,42.2z M151.5,42.1L151.5,42.1L151.5,42.1
	C151.5,42.1,151.5,42.1,151.5,42.1z M151.6,42.1C151.6,42.1,151.6,42.1,151.6,42.1C151.6,42.1,151.6,42.1,151.6,42.1L151.6,42.1
	L151.6,42.1z M152.1,42.4C152.1,42.4,152.1,42.4,152.1,42.4C151.9,42.4,152.1,42.3,152.1,42.4C152.1,42.4,152.1,42.4,152.1,42.4z
	 M152.2,42.6C152.2,42.6,152.2,42.6,152.2,42.6L152.2,42.6C152.2,42.6,152.1,42.6,152.2,42.6c-0.1-0.1,0-0.1,0-0.1
	C152.2,42.4,152.2,42.5,152.2,42.6z M152.2,42.2c-0.2,0-0.3-0.1-0.3-0.1h0.5c0,0,0,0.1,0,0.1c0,0,0,0,0,0.1
	C152.4,42.2,152.2,41.9,152.2,42.2z M152.4,42.5C152.3,42.5,152.3,42.5,152.4,42.5c-0.1-0.1,0-0.1,0-0.1
	C152.4,42.4,152.4,42.4,152.4,42.5z M153.4,42.1C153.4,42.1,153.4,42.1,153.4,42.1C153.4,42.1,153.3,42.1,153.4,42.1
	C153.4,42.1,153.4,42.1,153.4,42.1C153.3,42.1,153.3,42.1,153.4,42.1L153.4,42.1z M152.7,42.6c-0.1,0-0.1,0-0.1-0.1
	C152.7,42.5,152.7,42.6,152.7,42.6C152.7,42.6,152.7,42.6,152.7,42.6C152.7,42.6,152.7,42.6,152.7,42.6z M152.8,42.4
	C152.8,42.4,152.8,42.4,152.8,42.4C152.8,42.4,152.8,42.4,152.8,42.4C152.6,42.2,152.9,42.3,152.8,42.4z M153,42.7c0,0-0.1,0-0.1,0
	c0-0.2,0.1-0.2,0.3-0.2C153.1,42.6,153.1,42.6,153,42.7c0.2,0,0.2,0,0.2,0.1C153,42.8,152.9,42.8,153,42.7z M153.4,42.4
	C153.3,42.5,153.2,42.5,153.4,42.4C153.4,42.3,153.4,42.4,153.4,42.4C153.4,42.4,153.3,42.4,153.4,42.4z M153.4,42.5
	C153.4,42.5,153.4,42.5,153.4,42.5c0.1,0,0.1,0,0.1,0C153.4,42.7,153.3,42.7,153.4,42.5z M155.2,42.1
	C155.2,42.1,155.2,42.1,155.2,42.1l0.6,0C155.7,42.4,155.4,42.2,155.2,42.1z M156.1,42.1h0.5C156.5,42.2,156.3,42.2,156.1,42.1z
	 M158.7,42.2c-0.1,0-0.1,0-0.1-0.1C158.7,42.1,158.9,42.1,158.7,42.2z M159.9,42.1h0.3c0,0,0.1,0.1,0.1,0.1
	C160,42.3,159.9,42.2,159.9,42.1z M160.3,42.1C160.3,42.1,160.3,42.1,160.3,42.1L160.3,42.1C160.3,42.1,160.3,42.1,160.3,42.1z
	 M160.7,42.1C160.6,42.1,160.6,42.1,160.7,42.1L160.7,42.1C160.7,42.1,160.7,42.1,160.7,42.1z M161,42.1h0.4c0,0.2-0.1,0.3-0.2,0.4
	C161.2,42.3,161.1,42.2,161,42.1z M161.4,42.7C161.4,42.7,161.3,42.7,161.4,42.7c-0.1-0.1-0.1-0.2,0-0.2
	C161.5,42.5,161.5,42.6,161.4,42.7z M161.6,42.9L161.6,42.9C161.6,42.9,161.6,42.9,161.6,42.9c-0.2-0.1,0-0.1,0.1-0.1
	C161.7,42.8,161.7,42.8,161.6,42.9z M162.3,42.8C162.3,42.8,162.3,42.8,162.3,42.8C162.2,42.8,162.2,42.8,162.3,42.8
	C162.2,42.8,162.3,42.7,162.3,42.8z M162.5,42.5L162.5,42.5C162.5,42.4,162.5,42.5,162.5,42.5c0,0-0.1,0-0.1-0.1
	C162.5,42.3,162.5,42.3,162.5,42.5L162.5,42.5z M163.4,42.7C163.4,42.7,163.4,42.7,163.4,42.7C163.4,42.7,163.4,42.7,163.4,42.7
	c-0.1,0-0.1-0.1-0.1-0.1C163.4,42.6,163.4,42.7,163.4,42.7z M163.6,42.5c-0.1,0-0.1-0.1-0.1-0.1C163.7,42.4,163.7,42.4,163.6,42.5z
	 M165.9,42.1C165.9,42.1,165.9,42.1,165.9,42.1L165.9,42.1L165.9,42.1z M166.9,42.6L166.9,42.6C166.9,42.6,166.9,42.6,166.9,42.6z
	 M167.4,42.2c-0.1,0-0.1,0-0.1-0.1c0,0,0,0,0.1,0h0C167.4,42.1,167.4,42.1,167.4,42.2z M168.3,1.7C168.3,1.7,168.3,1.7,168.3,1.7
	C168.3,1.7,168.3,1.7,168.3,1.7c-0.1-0.1-0.1-0.1-0.1-0.2c0,0,0.1,0,0.1,0C168.4,1.6,168.3,1.6,168.3,1.7z M168.7,1.7
	C168.7,1.7,168.6,1.7,168.7,1.7c0-0.1-0.1-0.1-0.1-0.2c0,0,0,0,0,0c0,0,0.1,0,0.1,0C168.7,1.6,168.7,1.6,168.7,1.7
	C168.7,1.7,168.7,1.7,168.7,1.7z M170,42.1L170,42.1C170.1,42.1,170.1,42.1,170,42.1h0.1c0.1,0,0.1,0,0.2,0
	C170.3,42.2,170,42.4,170,42.1z M171,42.2C170.9,42.2,171,42.1,171,42.2L171,42.2z M172.9,42.1C172.9,42.1,172.9,42.1,172.9,42.1
	L172.9,42.1C172.9,42.1,172.9,42.1,172.9,42.1z M173,2.4c0,0,0,0.1-0.1,0.1c-0.1,0-0.2,0-0.3,0c-0.2,0-0.4,0-0.6,0H172V2.2
	c0,0,0,0,0,0c0,0,0,0,0,0c0.2,0.1,0.3,0.1,0.5,0.1C172.7,2.2,172.9,2.2,173,2.4C173,2.4,173,2.4,173,2.4C173,2.4,173,2.4,173,2.4z
	 M173.7,42.1h0.4c0,0,0,0.1,0,0.1C173.9,42.2,173.8,42.1,173.7,42.1z M174.7,42.2c0,0,0-0.1,0-0.1h0.1
	C174.8,42.1,174.8,42.2,174.7,42.2z M175,42.2C175,42.2,175,42.1,175,42.2c0-0.1,0-0.1,0-0.2h0.2C175.2,42.2,175.1,42.2,175,42.2z
	 M175.2,2.8c0,0-0.1,0-0.1,0V2.3c0,0,0,0,0,0c0,0,0,0,0,0c0.3,0,0.4,0.3,0.5,0.5c0,0,0,0.1,0,0.1c0,0,0,0,0,0
	C175.5,2.8,175.4,2.8,175.2,2.8z M176,42.1C176,42.2,176,42.2,176,42.1C175.9,42.2,175.9,42.2,176,42.1c-0.2,0-0.2,0-0.3-0.1h0.5
	C176.1,42.1,176.1,42.1,176,42.1z M176.4,3.1c0,0-0.1,0-0.1,0c0,0,0,0,0,0C176.2,3,176.2,3,176.4,3.1C176.3,3,176.3,3,176.4,3.1
	C176.4,3.1,176.4,3.1,176.4,3.1z M176.4,1.8C176.4,1.9,176.4,1.9,176.4,1.8c-0.2,0-0.3,0-0.5,0c-0.1,0-0.1,0-0.2,0l0,0
	c-0.1,0-0.1,0-0.1,0c-0.1,0.1-0.2,0-0.3,0c-0.1,0-0.2-0.1-0.3-0.1c0,0,0,0,0,0c0,0,0,0,0,0v0c0,0,0-0.1,0-0.1c0,0,0.1,0,0.1,0
	c0.1,0,0.1,0,0.2,0h0.5c0.2,0,0.3,0,0.4,0c0,0,0,0,0,0h0.1c0.1,0,0.2,0,0.3,0c0,0,0,0,0,0C176.7,1.8,176.5,1.8,176.4,1.8z
	 M179.2,42.3C179.2,42.3,179.2,42.3,179.2,42.3C179.2,42.2,179.2,42.2,179.2,42.3C179.2,42.2,179.2,42.2,179.2,42.3z M180.2,42.1
	C180.2,42.1,180.2,42.1,180.2,42.1c0,0-0.1,0-0.1,0H180.2z M179.9,42.1C179.9,42.1,179.9,42.1,179.9,42.1
	C179.9,42.1,179.9,42.1,179.9,42.1L179.9,42.1z M179.6,42.6c0-0.1,0-0.1,0-0.2c0,0,0,0,0,0c0,0,0,0,0,0c0,0.1,0,0,0,0
	C179.7,42.4,179.7,42.6,179.6,42.6z M179.9,42.3c-0.1,0.4-0.4,0.1-0.3,0c-0.2,0-0.2,0-0.2-0.1h0.3c0,0,0,0,0.1,0.1c0,0,0,0,0,0
	c0,0,0,0,0,0c0.3,0,0.2,0.1,0.5,0.1C180.4,42.5,180.1,42.3,179.9,42.3z M180.8,42.4c0,0,0-0.1,0-0.2h0c0,0,0,0,0,0
	c0-0.1-0.1-0.1-0.1-0.2h0.4C181,42.2,180.9,42.4,180.8,42.4z M182.2,42.5c-0.1,0-0.1,0-0.1,0c0,0,0,0-0.1,0
	C182,42.4,182.1,42.3,182.2,42.5C182.2,42.4,182.2,42.4,182.2,42.5C182.2,42.5,182.1,42.5,182.2,42.5z M183.1,5.1
	c0,0.1,0,0.2-0.1,0.3c0,0.2-0.1,0.3-0.1,0.4c0,0,0,0,0,0c-0.1,0-0.2-0.2-0.2-0.4l0.1-0.1h0c0-0.1,0.1-0.2,0.1-0.2
	C182.8,5,182.9,5,183.1,5.1C183.1,5,183.1,5,183.1,5.1C183.1,5.1,183.1,5.1,183.1,5.1C183.1,5.1,183.1,5.1,183.1,5.1z M183.4,1.9
	C183.4,1.9,183.4,1.9,183.4,1.9C183.4,1.8,183.4,1.8,183.4,1.9C183.4,1.8,183.4,1.8,183.4,1.9c0-0.1,0-0.1,0-0.2c0-0.1,0-0.1,0-0.1
	c0,0,0,0,0.1,0c0.1,0,0.1,0,0.2,0c0,0,0.1,0,0.1,0c0,0,0,0.1,0,0.1C183.8,1.7,183.7,1.9,183.4,1.9z M184.7,42.5L184.7,42.5
	L184.7,42.5c-0.1,0-0.2,0-0.2-0.1C184.6,42.4,184.7,42.4,184.7,42.5z M184.4,42.5h-0.1C184.3,42.4,184.3,42.4,184.4,42.5z M184.6,8
	C184.6,8,184.6,8,184.6,8c-0.2,0.1-0.3-0.1-0.3-0.2c0-0.1,0-0.2-0.1-0.2c0,0,0,0,0,0c0,0,0,0,0,0c0,0,0,0,0,0c0,0,0-0.1,0.1-0.1
	c0,0,0,0,0-0.1c0,0,0,0,0,0h0.2c0,0,0,0,0,0c0,0,0,0,0,0v0c0,0,0,0,0,0c0,0.1,0,0.2,0.1,0.2c0,0.1,0.1,0.1,0.1,0.2
	C184.7,7.9,184.7,7.9,184.6,8z M184.9,6.2C184.9,6.2,184.9,6.1,184.9,6.2C184.8,6,184.7,6,184.6,6c0,0,0,0,0,0c0,0,0,0,0,0
	c0,0,0,0,0,0c0.1-0.2,0.2-0.2,0.3-0.2c0,0,0,0,0,0c0,0.1,0,0.1,0,0.2C184.9,6,184.9,6.1,184.9,6.2z M187,42.3
	C187,42.1,187.1,42.2,187,42.3L187,42.3z M188.3,42.3C188.3,42.3,188.3,42.3,188.3,42.3C188.3,42.3,188.3,42.3,188.3,42.3
	c-0.2,0-0.2-0.2-0.1-0.2h0.2c0,0,0,0,0,0.1C188.3,42.1,188.2,42.2,188.3,42.3z M189.7,42.2c-0.2-0.2-0.2,0.1-0.4,0.2c0,0,0,0,0,0
	c0-0.1-0.1-0.1,0,0c-0.1-0.1-0.1-0.2-0.1-0.2c0-0.1,0-0.1,0-0.2h0.6C189.7,42.1,189.8,42.1,189.7,42.2z M210.8,41.8
	C210.8,41.8,210.8,41.8,210.8,41.8C210.8,41.9,210.8,41.9,210.8,41.8c-0.1,0.1-0.1,0-0.1,0c0,0,0,0,0,0c0,0,0,0,0,0c0,0,0,0,0,0
	c0,0,0,0,0,0c0-0.1,0-0.1,0.1-0.1c0,0,0.1,0,0.1,0C210.8,41.7,210.8,41.7,210.8,41.8C210.8,41.7,210.8,41.8,210.8,41.8z M213,42.1
	c0,0.1,0,0.1-0.1,0.1c0,0,0,0.1-0.1,0.1c0,0,0,0,0,0c-0.1,0-0.1-0.1-0.1-0.1c0-0.1,0-0.1,0.1-0.2C212.9,42,212.9,42,213,42.1
	C213,42,213,42,213,42.1C213.1,42,213.1,42,213,42.1C213.1,42,213.1,42.1,213,42.1z M219.5,41.6C219.5,41.7,219.5,41.7,219.5,41.6
	c-0.1,0.1-0.1,0.1-0.1,0.1c0,0-0.1,0-0.1-0.1c0,0,0,0,0.1-0.1l0,0c0,0,0,0,0,0C219.5,41.6,219.5,41.6,219.5,41.6
	C219.6,41.6,219.6,41.6,219.5,41.6z M221.9,41c0,0-0.1,0-0.1,0c0,0,0,0,0,0v-0.1c0,0,0,0,0,0c0,0,0,0,0,0c0,0,0,0,0,0c0,0,0,0,0,0
	c0,0,0,0,0,0c0,0,0,0,0,0c0,0,0.1,0,0.1,0c0,0,0,0.1,0,0.1C222,40.9,221.9,41,221.9,41z M222.5,41.2
	C222.5,41.3,222.5,41.3,222.5,41.2c-0.1,0-0.2,0-0.2-0.1c0,0,0-0.1,0-0.1c0-0.1,0-0.1,0-0.2c0,0,0,0,0-0.1v0c0,0,0,0,0,0
	c0.1,0,0.1,0.1,0.2,0.1c0,0,0.1,0.1,0.1,0.1C222.6,41.1,222.6,41.2,222.5,41.2z M223.1,41.7C223.1,41.7,223.1,41.6,223.1,41.7
	c0.1-0.1,0.1-0.1,0.1-0.1c0,0,0,0,0,0c0,0,0,0,0,0c0,0,0.1,0,0.1,0c0,0,0,0,0.1,0c0,0,0,0,0,0c0,0,0,0,0,0c0,0,0,0,0,0
	c0,0,0,0.1,0,0.1c0,0,0,0,0,0.1v0c0,0,0,0,0,0c0,0,0,0,0,0C223.3,41.8,223.2,41.8,223.1,41.7C223.2,41.7,223.2,41.7,223.1,41.7
	C223.1,41.7,223.1,41.7,223.1,41.7C223.1,41.7,223.1,41.7,223.1,41.7C223.1,41.7,223.1,41.7,223.1,41.7z M223.7,42.4
	C223.7,42.4,223.7,42.4,223.7,42.4L223.7,42.4C223.7,42.4,223.7,42.4,223.7,42.4C223.7,42.4,223.7,42.4,223.7,42.4
	c-0.1,0-0.2,0-0.3,0c-0.1,0-0.2,0-0.3-0.1c0,0,0,0,0,0c0,0,0,0,0,0c0,0,0,0,0,0c0.1-0.2,0.3-0.2,0.5-0.1c0,0,0,0.1,0,0.1
	c0,0,0,0.1,0,0.1c0,0,0,0,0,0L223.7,42.4C223.7,42.4,223.7,42.4,223.7,42.4C223.7,42.4,223.7,42.4,223.7,42.4z M223.9,42.2
	c0,0.1-0.1,0.1-0.1,0.1v-0.2C223.9,42.1,223.9,42.2,223.9,42.2C223.9,42.1,223.9,42.2,223.9,42.2C223.9,42.2,223.9,42.2,223.9,42.2
	C223.9,42.2,223.9,42.2,223.9,42.2z M224.6,41.8C224.6,41.8,224.6,41.8,224.6,41.8c-0.1,0-0.1-0.1-0.1-0.1c0,0,0,0,0,0
	C224.6,41.7,224.6,41.7,224.6,41.8C224.6,41.7,224.6,41.8,224.6,41.8C224.6,41.8,224.6,41.8,224.6,41.8
	C224.6,41.8,224.6,41.8,224.6,41.8c0-0.1,0-0.1,0.1-0.1c0,0,0,0,0,0c0,0,0,0,0,0C224.7,41.8,224.7,41.8,224.6,41.8z M225.8,42.6
	h-0.2c0,0,0,0,0,0v-0.2c0,0,0,0,0,0c0.1,0,0.1,0,0.1,0L225.8,42.6C225.9,42.5,225.9,42.6,225.8,42.6z M236.1,41.5
	C236.2,41.5,236.1,41.5,236.1,41.5C236.1,41,236.5,41.6,236.1,41.5z M267.6,1.1C267.4,1.1,267.4,1.1,267.6,1.1L267.6,1.1z
	 M276.4,42.6C276.4,42.6,276.4,42.6,276.4,42.6C276.4,42.6,276.4,42.6,276.4,42.6C276.4,42.6,276.4,42.6,276.4,42.6z M299.8,2.7
	c0.1-0.1,0.1-0.1,0.3-0.1C299.9,2.6,299.9,2.7,299.8,2.7z M302.9,2.5c0,0,0-0.1,0-0.1c0,0,0,0,0,0v0c0,0,0,0,0,0c0,0,0,0,0,0
	c0,0,0,0,0,0c0.1,0.1,0.1,0.1,0.2,0.3C303,2.5,303,2.5,302.9,2.5z M308.2,2.1C308.2,2.1,308.1,2.1,308.2,2.1
	c-0.2,0.2-0.4,0.1-0.7,0.1c-0.1,0-0.2,0-0.3,0v0.1c0,0,0,0,0,0c0,0,0,0,0,0c-0.1,0-0.1-0.2-0.1-0.3v0l0,0c0,0,0-0.1,0-0.1v0
	c0,0,0,0,0,0c0,0,0,0,0,0c0,0,0,0,0-0.1c0,0,0-0.1,0-0.1c0,0,0,0,0,0c0.2,0,0.3-0.1,0.3-0.2c0,0,0,0,0,0c0,0,0,0,0,0
	c0,0.1,0.1,0.1,0.2,0.1C308,1.8,308.2,1.8,308.2,2.1C308.2,2.1,308.2,2.1,308.2,2.1z M310.1,3.2C310.1,3.3,310.1,3.3,310.1,3.2
	l-0.2,0c0,0,0,0,0,0V3c0,0,0,0,0,0h0.2c0,0,0,0,0,0V3.2z M313.4,2.1c-0.1,0.1-0.1,0.1-0.3,0.1c0,0,0,0,0,0V1.8c0,0,0,0,0,0h0.3
	c0,0,0,0,0,0c0,0,0,0,0,0C313.5,1.9,313.5,2,313.4,2.1z M314.2,1.7C314.2,1.7,314.2,1.7,314.2,1.7C314.2,1.8,314.2,1.8,314.2,1.7
	C314.1,1.7,314.1,1.7,314.2,1.7c-0.1,0-0.1,0.1-0.1,0.1c0,0,0,0,0,0c0,0-0.1,0-0.1,0c0,0-0.1-0.1-0.1-0.2c0-0.1,0-0.2,0.1-0.2
	c0,0,0.1,0,0.2,0c0,0,0,0,0,0V1.7z M322.2,41.7c-0.1,0-0.1,0-0.1,0c0,0-0.1,0-0.2,0c0,0,0-0.1,0.1-0.1L322.2,41.7
	C322.2,41.7,322.2,41.7,322.2,41.7L322.2,41.7z M324.1,41.7c-0.1,0-0.1,0-0.2,0c0,0,0,0,0,0l0,0l0,0c0,0,0,0,0,0c0,0,0,0,0,0
	C323.9,41.7,324,41.7,324.1,41.7C324.1,41.7,324.1,41.7,324.1,41.7C324.1,41.7,324.1,41.7,324.1,41.7z M334.7,41.9
	c0.1-0.1,0.2-0.1,0.4,0c0,0,0,0,0,0c0.1,0.1,0.1,0.1,0.1,0.2C335,42.1,334.9,42,334.7,41.9z M336.2,42.1c0,0,0,0.1,0,0.1
	c0,0,0,0-0.1,0c-0.1,0-0.2-0.1-0.2-0.3c0,0,0-0.1,0-0.1c0,0,0,0,0,0h0.3c0,0,0,0,0,0c0,0,0,0.1,0,0.1C336.2,42,336.2,42,336.2,42.1z
	 M336.9,2c-0.1,0,0-0.1-0.1-0.1c0,0,0,0,0,0C337,1.9,337,1.9,336.9,2C337,1.9,337,1.9,336.9,2z M337.9,42.2
	c-0.1,0.3-0.4,0.2-0.6,0.1l0,0c0,0,0,0,0,0c0,0,0,0,0,0c0,0,0,0,0,0c0.1-0.2,0.2-0.4,0.5-0.4c0,0,0,0,0,0c0,0,0,0,0,0c0,0,0,0,0,0
	c0,0,0,0.1,0,0.1C337.8,42.1,337.8,42.1,337.9,42.2C337.8,42.1,337.9,42.1,337.9,42.2C337.9,42.1,337.9,42.2,337.9,42.2
	C337.9,42.2,337.9,42.2,337.9,42.2z M339.4,2c0-0.2,0.1-0.3,0.2-0.4c0,0.1,0.1,0.2,0.2,0.4H339.4z M340.1,2C340.1,2,340.1,2,340.1,2
	c0,0,0.1,0,0.1,0H340.1z M340.5,2C340.5,2,340.5,2,340.5,2C340.5,2,340.5,2,340.5,2L340.5,2z M340.6,2c0,0-0.1-0.1-0.1-0.1
	c0.3-0.1,0.4,0,0.4,0.1H340.6z M342.1,1.8c0.1,0,0.1,0,0.1,0.1C342.1,2,341.9,2,342.1,1.8z M343.9,41.9c-0.1,0-0.2-0.1-0.3-0.1v-0.2
	c0.1,0,0.2,0,0.3,0l0.1,0c0,0,0,0,0,0C344,41.8,344,41.9,343.9,41.9z M344.2,2c0.1-0.1,0.3-0.1,0.5,0H344.2z M345.4,42.7
	c0,0-0.1,0-0.1-0.1c-0.1,0-0.2-0.1-0.2-0.1c0-0.1,0.1-0.1,0.2-0.1c0,0,0.1,0,0.1,0c0,0,0,0,0,0c0,0,0,0,0,0V42.7z M345.6,2H345
	C345.1,1.7,345.4,1.8,345.6,2C345.6,2,345.6,2,345.6,2z M347.5,1.6C347.5,1.6,347.5,1.6,347.5,1.6C347.5,1.6,347.6,1.6,347.5,1.6
	C347.4,1.7,347.4,1.6,347.5,1.6z M347.5,1.9C347.5,1.9,347.5,1.9,347.5,1.9C347.5,2,347.5,2,347.5,1.9L347.5,1.9
	C347.4,2,347.4,2,347.5,1.9C347.4,2,347.5,2,347.5,1.9z M347.8,41.8c-0.1,0.3-0.2,0.6-0.6,0.5c0,0,0,0,0,0c0,0,0,0,0,0c0,0,0,0,0,0
	C347.3,41.9,347.5,41.8,347.8,41.8C347.8,41.7,347.8,41.7,347.8,41.8C347.8,41.8,347.8,41.8,347.8,41.8
	C347.8,41.8,347.8,41.8,347.8,41.8z M348.7,1.6C348.7,1.6,348.7,1.6,348.7,1.6C348.9,1.6,348.7,1.7,348.7,1.6
	C348.7,1.6,348.7,1.6,348.7,1.6z M348.7,1.5C348.7,1.5,348.7,1.5,348.7,1.5L348.7,1.5C348.7,1.5,348.7,1.5,348.7,1.5
	c0.1,0.1,0,0.1,0,0.1C348.6,1.6,348.6,1.5,348.7,1.5z M348,1.7C348,1.7,348,1.7,348,1.7C348,1.7,348,1.7,348,1.7
	C348.2,1.8,347.9,1.7,348,1.7z M348.2,1.5c-0.1,0-0.1-0.1-0.1-0.1c0,0,0,0,0,0c0,0,0,0,0,0C348.2,1.4,348.2,1.4,348.2,1.5z
	 M348.4,1.5C348.5,1.5,348.5,1.5,348.4,1.5c0.1,0.1,0,0.1,0,0.1C348.4,1.6,348.4,1.6,348.4,1.5z M348.4,2
	C348.4,1.9,348.4,1.9,348.4,2c0-0.1,0-0.1,0-0.2c0,0.1,0.2,0.3,0.2,0.1c0.2,0,0.3,0.1,0.3,0.1H348.4z M349.1,41.7
	C349.1,41.7,349.1,41.7,349.1,41.7l0.1,0.3C349.1,41.9,349.1,41.8,349.1,41.7z M349.3,2L349.3,2C349.3,2,349.3,2,349.3,2
	C349.3,2,349.3,2,349.3,2L349.3,2z M349.3,2C349.3,2,349.3,2,349.3,2C349.3,2,349.3,2,349.3,2L349.3,2z M349.4,1.8
	C349.5,1.8,349.4,1.9,349.4,1.8L349.4,1.8z M351.7,2L351.7,2C351.7,1.9,351.7,2,351.7,2L351.7,2c-0.1,0-0.1-0.1-0.1-0.1
	c0.1,0,0.2,0,0.3-0.1C351.8,1.9,351.8,1.9,351.7,2z M353.1,2C353.1,2,353.1,2,353.1,2L353.1,2c-0.1,0-0.1,0-0.1-0.1h0
	C353.1,1.8,353.1,1.9,353.1,2z M354.4,2L354.4,2C354.4,2,354.4,2,354.4,2L354.4,2z M355.1,1.6c0-0.1,0.1-0.1,0.2-0.1c0,0,0,0,0,0
	c0,0,0.1,0.1,0.1,0.1C355.3,1.7,355.2,1.7,355.1,1.6z M355.5,1.8C355.6,1.9,355.4,2,355.5,1.8L355.5,1.8z M355.5,1.6
	c-0.1,0-0.1,0-0.1-0.1c0-0.1,0.1-0.1,0.2-0.1C355.5,1.5,355.5,1.5,355.5,1.6z M355.9,2h-0.2c0.1,0,0.1-0.1,0.2-0.1
	C355.9,1.9,355.9,1.9,355.9,2z M355.9,1.5c0.1-0.1,0.1,0,0.1,0.1C355.9,1.6,355.9,1.6,355.9,1.5z M356.5,1.9
	C356.4,1.9,356.4,1.9,356.5,1.9C356.3,1.9,356.2,1.7,356.5,1.9C356.5,1.8,356.5,1.9,356.5,1.9z M357.6,2c0,0-0.1-0.1-0.1-0.2
	C357.6,1.8,357.7,1.9,357.6,2L357.6,2z M357.8,41.7L357.8,41.7L357.8,41.7C357.7,41.7,357.8,41.7,357.8,41.7
	C357.8,41.7,357.8,41.7,357.8,41.7z M358.9,41.7C358.9,41.7,358.9,41.7,358.9,41.7c0,0-0.1,0-0.1,0l0,0h0c0,0,0,0-0.1,0
	c-0.1,0-0.1,0-0.2,0h0c0,0,0,0,0,0c-0.1,0-0.1,0-0.3,0c0,0,0,0-0.1,0C358.4,41.7,358.6,41.7,358.9,41.7
	C358.8,41.6,358.8,41.6,358.9,41.7C358.8,41.6,358.8,41.6,358.9,41.7C358.9,41.7,358.9,41.7,358.9,41.7z M363.6,41.7
	C363.6,41.7,363.6,41.7,363.6,41.7C363.6,41.7,363.6,41.7,363.6,41.7c0.1,0,0.1,0,0.2,0c0,0,0,0,0,0c0,0,0,0,0,0
	C363.7,41.7,363.7,41.7,363.6,41.7z M365.9,42.2c0,0-0.1-0.1-0.1-0.1c-0.1,0-0.1-0.1-0.2-0.1c0,0,0,0,0,0c0,0,0,0,0,0s0,0,0,0
	c0-0.1,0.1-0.1,0.1-0.1c0.1,0,0.2,0,0.2,0.1c0.1,0.1,0.2,0.1,0.2,0.1C366.1,42.1,366,42.2,365.9,42.2z M397.5,42.1h0.2
	C397.6,42.2,397.4,42.2,397.5,42.1z M399.9,42.2c0.1,0,0.2,0,0.2,0h0.3C400.4,42.2,400,42.3,399.9,42.2z M400.9,1.9
	C400.9,1.9,400.8,1.9,400.9,1.9c-0.1,0-0.1,0-0.1,0c0,0,0,0,0,0C400.8,1.8,400.9,1.8,400.9,1.9C401,1.8,401,1.8,400.9,1.9
	C401,1.8,400.9,1.9,400.9,1.9z M403.3,42.2C403.3,42.2,403.3,42.1,403.3,42.2l0.3,0C403.5,42.2,403.4,42.2,403.3,42.2z M405.2,42.1
	C405.2,42.1,405.2,42.1,405.2,42.1l0.4,0C405.4,42.3,405.4,42.3,405.2,42.1z M405.8,1.9C405.7,1.9,405.7,1.9,405.8,1.9
	C405.7,1.9,405.7,1.9,405.8,1.9C405.7,1.9,405.7,1.9,405.8,1.9C405.7,1.9,405.7,1.9,405.8,1.9C405.7,1.8,405.8,1.8,405.8,1.9
	L405.8,1.9L405.8,1.9c0.1-0.1,0.1-0.1,0.1-0.1c0.1,0,0.1,0,0.2,0h0c0,0,0,0,0,0c0.1,0,0.1,0,0.3,0c0,0,0,0,0.1,0
	C406.1,1.9,405.9,1.9,405.8,1.9z M406.5,42.1L406.5,42.1C406.5,42.3,406.6,42.3,406.5,42.1z M406.8,1.8L406.8,1.8L406.8,1.8
	C406.8,1.9,406.8,1.9,406.8,1.8C406.8,1.8,406.8,1.8,406.8,1.8z M406.8,42.2c0,0,0-0.1,0.1-0.1h0.3C407.4,42.2,407,42.3,406.8,42.2z
	 M409.2,42.3c-0.5,0-0.9,0.2-1.2-0.2c0.1,0,0.2,0,0.2,0h2.5C410.2,42.3,409.9,42.4,409.2,42.3z M411.4,42.3h-0.1v-0.1
	C411.4,42.2,411.5,42.2,411.4,42.3z M411.5,42.1h0.4C411.6,42.4,411.6,42.3,411.5,42.1z M412,42.1h0.2c0,0,0.1,0,0.2,0v0h0.2
	C412.3,42.2,412.3,42.3,412,42.1z M415.5,1.8C415.5,1.8,415.5,1.8,415.5,1.8l-0.1-0.3C415.5,1.6,415.5,1.7,415.5,1.8z M415.6,42.1
	c-0.8,0.1-1.4-0.1-2,0.1c-0.2,0-0.3,0-0.4-0.1L415.6,42.1C415.6,42.1,415.6,42.1,415.6,42.1z M416.1,42.2h0.2
	C416.2,42.3,416.3,42.3,416.1,42.2z M417.4,1.3c-0.1,0.3-0.3,0.5-0.6,0.5c0,0,0,0,0,0c0,0,0,0,0,0c0,0,0,0,0,0
	C416.8,1.5,416.9,1.2,417.4,1.3C417.4,1.3,417.4,1.3,417.4,1.3C417.4,1.3,417.4,1.3,417.4,1.3C417.4,1.3,417.4,1.3,417.4,1.3z
	 M417.5,42.2c0,0-0.1,0-0.1,0h1C418.1,42.2,417.9,42.2,417.5,42.2z M420.6,1.6c0.1,0,0.2,0.1,0.3,0.1v0.2c-0.1,0-0.2,0-0.3,0l-0.1,0
	c0,0,0,0,0,0C420.5,1.7,420.6,1.7,420.6,1.6z M419.5,42.1h1.4C420.5,42.2,419.9,42.3,419.5,42.1z M426.7,1.4
	c0.1-0.3,0.4-0.2,0.6-0.1l0,0c0,0,0,0,0,0c0,0,0,0,0,0c0,0,0,0,0,0c-0.1,0.2-0.2,0.4-0.5,0.4c0,0,0,0,0,0c0,0,0,0,0,0c0,0,0,0,0,0
	c0,0,0-0.1,0-0.1C426.8,1.5,426.7,1.4,426.7,1.4C426.7,1.4,426.7,1.4,426.7,1.4C426.7,1.4,426.7,1.4,426.7,1.4
	C426.7,1.4,426.7,1.4,426.7,1.4z M425.5,42.3h0.3C425.7,42.4,425.7,42.4,425.5,42.3z M427.6,42.5c0.2,0,0.2,0,0.3,0.1
	C427.8,42.5,427.7,42.5,427.6,42.5z M427.8,42.3c-0.2,0-0.9-0.1-1-0.1c-0.6,0.2-1.7,0.1-2.3,0c-0.8,0-1.6,0-2.4-0.1c0,0,0,0-0.1,0
	h6.2C428.2,42.2,428.1,42.2,427.8,42.3z M428.3,1.8C428.3,1.8,428.3,1.7,428.3,1.8c0-0.2,0-0.2,0.1-0.3c0,0,0-0.1,0-0.1
	c0,0,0,0,0.1,0c0.1,0,0.2,0.1,0.2,0.3c0,0,0,0.1,0,0.1c0,0,0,0,0,0L428.3,1.8C428.3,1.8,428.3,1.8,428.3,1.8z M428.5,42.2
	C428.5,42.2,428.5,42.2,428.5,42.2l0.2,0c0,0,0.1,0,0.1,0c0,0,0,0,0,0h0.1c0,0,0,0,0.1,0.1C428.7,42.2,428.5,42.2,428.5,42.2z
	 M429.5,1.6C429.5,1.6,429.5,1.6,429.5,1.6c-0.1-0.1-0.1-0.1-0.1-0.2c0.2,0.1,0.3,0.2,0.5,0.2C429.8,1.7,429.7,1.7,429.5,1.6z
	 M432.7,42.2c0,0-0.1,0-0.1,0.1c0,0-0.1-0.1-0.1-0.1L432.7,42.2C432.7,42.2,432.7,42.2,432.7,42.2z M432.9,42.3
	C432.8,42.3,432.8,42.3,432.9,42.3C432.8,42.3,432.9,42.3,432.9,42.3C432.9,42.3,432.9,42.3,432.9,42.3z M433.6,42.2
	c0.2-0.1,0.2,0,0.3,0.1C433.7,42.3,433.6,42.3,433.6,42.2z M434,42.2c0.1,0,0.1,0,0.2,0.1c0,0,0,0,0,0C434.1,42.3,434,42.2,434,42.2
	z M435,42.5C435,42.5,435,42.4,435,42.5C435,42.4,435,42.5,435,42.5C435,42.5,435,42.5,435,42.5z M437.3,42.2
	C437.4,42.2,437.4,42.2,437.3,42.2C437.5,42.2,437.5,42.2,437.3,42.2C437.4,42.3,437.3,42.3,437.3,42.2
	C437.3,42.3,437.3,42.3,437.3,42.2L437.3,42.2C437.3,42.3,437.3,42.3,437.3,42.2z M435.7,42.1C435.7,42.1,435.7,42.2,435.7,42.1
	C435.7,42.2,435.7,42.2,435.7,42.1C435.7,42.2,435.7,42.2,435.7,42.1c-0.1,0.1-0.2,0-0.2,0H435.7z M435.6,42.4
	c0.2,0,0.3,0.1,0.4,0.1C435.8,42.6,435.7,42.6,435.6,42.4z M437.3,42.5c-0.1,0-0.1,0-0.2,0c0,0,0,0,0,0c0,0,0,0,0,0c0,0,0,0,0,0
	c0,0,0,0,0,0c-0.1,0-0.1,0-0.2,0c-0.1,0-0.1,0-0.2,0c0.1,0,0.3,0,0.4-0.1C437.2,42.5,437.2,42.5,437.3,42.5
	C437.2,42.5,437.2,42.5,437.3,42.5c0-0.1,0-0.1,0.1-0.1c0.2,0,0.3-0.1,0.3-0.1C437.7,42.5,437.6,42.5,437.3,42.5z M437.8,42.5
	c-0.1,0-0.1-0.1,0-0.1c0,0,0.1,0.1,0.1,0.1H437.8z M438.2,42.5C438.2,42.5,438.2,42.4,438.2,42.5C438.3,42.4,438.3,42.4,438.2,42.5
	c0.1-0.1,0.1-0.1,0.1-0.1c0.2,0,0.4,0,0.3,0.1C438.6,42.5,438.3,42.5,438.2,42.5z M439.8,42.4C439.8,42.4,439.8,42.4,439.8,42.4
	C439.7,42.4,439.8,42.4,439.8,42.4C439.8,42.4,439.7,42.4,439.8,42.4C439.7,42.4,439.7,42.4,439.8,42.4
	C439.7,42.4,439.8,42.4,439.8,42.4C439.8,42.4,439.8,42.4,439.8,42.4z M440.1,42.4C440.1,42.4,440.1,42.4,440.1,42.4
	C440.1,42.4,440.2,42.4,440.1,42.4C440.2,42.4,440.2,42.4,440.1,42.4z M440.7,1.8c-0.1,0-0.1,0-0.2,0c0,0,0,0-0.1,0c0,0,0,0,0,0
	C440.5,1.8,440.6,1.8,440.7,1.8C440.6,1.8,440.6,1.8,440.7,1.8L440.7,1.8L440.7,1.8C440.7,1.8,440.7,1.8,440.7,1.8
	C440.7,1.8,440.7,1.8,440.7,1.8z M441,42.2c-0.1,0-0.1-0.1-0.1-0.1h0.2c0,0,0.1,0.1,0.1,0.1C441.2,42.3,441.1,42.2,441,42.2z
	 M441.3,42.1L441.3,42.1C441.4,42.2,441.4,42.2,441.3,42.1C441.3,42.2,441.3,42.2,441.3,42.1z M442.6,1.9h-0.2c0,0-0.1,0-0.1-0.1v0
	c0.1,0,0.1,0,0.1,0C442.5,1.8,442.6,1.8,442.6,1.9C442.6,1.8,442.6,1.9,442.6,1.9z M442.7,42.5C442.7,42.5,442.7,42.5,442.7,42.5
	C442.7,42.5,442.7,42.5,442.7,42.5C442.7,42.5,442.7,42.5,442.7,42.5z M443.1,42.3C443.1,42.3,443.1,42.3,443.1,42.3
	C443.1,42.2,443.1,42.2,443.1,42.3C443.1,42.3,443.1,42.3,443.1,42.3z M444.5,42.3C444.5,42.3,444.5,42.3,444.5,42.3
	C444.6,42.3,444.6,42.3,444.5,42.3C444.5,42.3,444.5,42.3,444.5,42.3z M444.7,42.1C444.7,42.1,444.7,42.1,444.7,42.1L444.7,42.1
	C444.7,42.1,444.7,42.1,444.7,42.1C444.7,42.1,444.7,42.1,444.7,42.1z M444.8,42.6C444.8,42.5,444.8,42.5,444.8,42.6
	c0-0.1,0.1-0.1,0.1-0.1C444.9,42.5,444.9,42.5,444.8,42.6z M447,42.4c-0.1,0-0.1-0.1,0-0.1C447.2,42.2,447.2,42.3,447,42.4z
	 M447.2,42.2c-0.1,0-0.1,0-0.1-0.1L447.2,42.2C447.2,42.2,447.2,42.2,447.2,42.2z M448.2,42.2c-0.2,0-0.3,0.1-0.4,0
	c0.1,0,0.2,0,0.2-0.1h0c0,0,0,0,0,0L448.2,42.2C448.2,42.2,448.2,42.2,448.2,42.2z M448.3,42.1h0.3
	C448.6,42.4,448.4,42.3,448.3,42.1z M448.6,42.1h0.3c0,0,0,0,0,0c0,0,0,0,0,0h0c0,0,0,0,0,0.1C448.8,42.2,448.7,42.2,448.6,42.1z
	 M449.1,42.1h0.2c0,0,0,0,0,0.1C449.2,42.2,449.1,42.2,449.1,42.1z M450.2,42.2C450.1,42.2,450.1,42.2,450.2,42.2l0.2,0
	C450.3,42.2,450.2,42.2,450.2,42.2z M450.9,42.5c-0.1,0-0.2,0-0.2-0.1c0.1,0,0.2,0,0.3,0C451,42.5,451,42.5,450.9,42.5z M452.9,42.2
	C452.8,42.2,452.8,42.2,452.9,42.2L452.9,42.2C452.9,42.1,452.8,42.1,452.9,42.2C452.9,42.2,452.9,42.2,452.9,42.2
	C452.9,42.2,452.9,42.2,452.9,42.2z M139.6,42.8c0.1,0,0.3-0.1,0.1-0.1C139.6,42.7,139.6,42.7,139.6,42.8z M142.7,42.7
	C142.7,42.7,142.6,42.7,142.7,42.7C142.7,42.7,142.6,42.7,142.7,42.7z M144.7,42.8C144.7,42.8,144.7,42.8,144.7,42.8
	C144.7,42.8,144.7,42.7,144.7,42.8C144.7,42.8,144.7,42.8,144.7,42.8z M145.8,42.7c0.1,0,0.1-0.1,0-0.1
	C145.8,42.6,145.8,42.7,145.8,42.7z M124.6,43.2c0,0-0.1,0-0.1,0.1c0,0,0,0,0,0s0,0,0,0c0,0,0,0,0,0c0,0,0.1,0.1,0.2,0.1
	c0,0,0.1,0.1,0.1,0.1c0.1-0.1,0.2-0.1,0.2-0.2c-0.1,0-0.2,0-0.2-0.1C124.8,43.2,124.7,43.2,124.6,43.2z M141.6,42.3
	c0,0-0.1,0.1-0.1,0.1C141.7,42.4,141.7,42.3,141.6,42.3z M142.9,42.8c0,0,0.1,0,0.1,0C143,42.8,143,42.8,142.9,42.8
	C142.9,42.8,142.9,42.8,142.9,42.8z M94,43.3c-0.2-0.1-0.3-0.1-0.4,0c0.2,0.1,0.3,0.1,0.5,0.2C94.1,43.4,94.1,43.4,94,43.3
	C94,43.3,94,43.3,94,43.3z M102.8,43.1c-0.1,0-0.2,0-0.3,0v0.2c0.1,0,0.2,0.1,0.3,0.1c0.1,0,0.1-0.1,0.1-0.2c0,0,0,0,0,0L102.8,43.1
	z M95.1,43.1h-0.3c0,0,0,0,0,0c0,0,0,0.1,0,0.1c0,0.2,0.1,0.3,0.2,0.3c0,0,0,0,0.1,0c0,0,0-0.1,0-0.1c0-0.1,0.1-0.1,0.1-0.2
	C95.2,43.2,95.2,43.2,95.1,43.1C95.2,43.1,95.1,43.1,95.1,43.1z M96.8,43.5c0,0-0.1,0-0.1-0.1c0,0,0-0.1,0-0.1c0,0,0,0,0,0
	c0,0,0,0,0,0c0,0,0,0,0,0c-0.3,0-0.5,0.2-0.5,0.4c0,0,0,0,0,0c0,0,0,0,0,0c0,0,0,0,0,0l0,0C96.4,43.7,96.6,43.8,96.8,43.5
	C96.8,43.5,96.8,43.5,96.8,43.5C96.8,43.5,96.8,43.5,96.8,43.5C96.8,43.5,96.8,43.5,96.8,43.5z M151,42.8c0.1-0.2,0.1-0.2-0.1-0.2
	C150.8,42.8,150.9,42.8,151,42.8z M82.8,43.1C82.8,43.1,82.8,43.1,82.8,43.1C82.8,43.1,82.8,43.1,82.8,43.1L82.8,43.1L82.8,43.1
	C82.8,43.1,82.8,43.1,82.8,43.1c0.1,0,0.2,0,0.3,0c0,0,0,0,0,0c0,0,0,0-0.1,0C82.9,43.1,82.8,43.1,82.8,43.1z M80.9,43
	C80.9,43.1,80.9,43.1,80.9,43c0,0.1,0.1,0.1,0.1,0.1c0,0,0.1,0,0.1,0v0c0,0-0.1,0-0.1-0.1H80.9z M108,43.1c0,0.1,0,0.2,0.1,0.3
	L108,43.1C108,43.1,108,43.1,108,43.1z M117.7,43c-0.2,0-0.4,0.1-0.6,0.1c0,0,0,0,0.1,0c0.1,0,0.2,0,0.3,0c0,0,0,0,0,0h0
	c0,0,0.1,0,0.2,0C117.6,43.1,117.6,43.1,117.7,43L117.7,43L117.7,43C117.7,43.1,117.7,43.1,117.7,43C117.8,43.1,117.8,43.1,117.7,43
	C117.8,43,117.8,43,117.7,43C117.8,43,117.8,43,117.7,43C117.7,43,117.7,43,117.7,43z M116.6,43.1L116.6,43.1
	C116.7,43.1,116.7,43.1,116.6,43.1C116.7,43.1,116.7,43.1,116.6,43.1L116.6,43.1z M104.3,43.8C104.3,43.8,104.3,43.8,104.3,43.8
	c-0.2,0-0.3,0-0.3,0.1c0.1,0,0.2,0.1,0.2,0.1c0,0,0.1,0,0.1,0.1L104.3,43.8C104.4,43.8,104.4,43.8,104.3,43.8
	C104.3,43.8,104.3,43.8,104.3,43.8z M122.7,43.1c0,0-0.1,0-0.1,0c0,0-0.1,0-0.1,0.1c0,0,0,0,0,0C122.6,43.1,122.7,43.1,122.7,43.1
	C122.7,43.1,122.7,43.1,122.7,43.1C122.7,43.1,122.7,43.1,122.7,43.1z M106.7,43.1c-0.3,0.1-0.5,0.2-0.6,0.5c0,0,0,0,0,0
	c0,0,0,0,0,0c0,0,0,0,0,0C106.6,43.7,106.7,43.4,106.7,43.1C106.8,43.2,106.8,43.2,106.7,43.1C106.8,43.1,106.8,43.1,106.7,43.1
	C106.7,43.1,106.7,43.1,106.7,43.1z M210.5,43.1C210.5,43.1,210.5,43.1,210.5,43.1c-0.1,0-0.1-0.1-0.1-0.1c0,0,0,0,0,0c0,0,0,0,0,0
	v0c0,0,0,0,0,0.1c0,0,0,0,0,0.1c0,0,0,0,0,0c0,0,0,0,0,0c0,0,0,0,0,0c0,0,0,0,0.1,0c0,0,0,0,0.1,0c0,0,0,0,0,0c0,0,0,0,0,0
	c0,0,0,0,0-0.1C210.5,43.2,210.5,43.2,210.5,43.1C210.5,43.1,210.5,43.1,210.5,43.1C210.5,43.1,210.5,43.1,210.5,43.1
	C210.5,43.1,210.5,43.1,210.5,43.1z M178.1,42.2C178,42.4,178.2,42.2,178.1,42.2L178.1,42.2z M178.4,42.4
	C178.4,42.3,178.4,42.4,178.4,42.4L178.4,42.4z M177.8,42.4c0.1,0.1,0.2,0,0.3,0c0,0.1-0.1,0.1-0.1,0.1h0.3
	C178.3,42.3,178,42.3,177.8,42.4z M177.2,42.4c0,0.2,0.1,0.2,0.2,0.1C177.4,42.4,177.3,42.4,177.2,42.4z M33.2,42.7
	C33.1,42.7,33.2,42.7,33.2,42.7C33.2,42.7,33.2,42.7,33.2,42.7C33.2,42.5,32.9,42.7,33.2,42.7z M181.4,42.6L181.4,42.6
	C181.4,42.5,181.3,42.6,181.4,42.6z M177.5,42.2C177.5,42.2,177.4,42.3,177.5,42.2c-0.1,0-0.1,0.1-0.1,0.1c0.1,0,0.2,0,0.3,0
	C177.7,42.2,177.6,42.2,177.5,42.2z M212,43.9c-0.1,0-0.1,0.1-0.1,0.2c0,0.1,0,0.1,0.1,0.1c0,0,0.1,0,0.1,0c0,0,0,0,0,0c0,0,0,0,0,0
	c0,0,0,0,0,0c0,0,0,0,0,0c0,0,0,0,0,0c0,0,0,0,0,0V44c0,0,0,0,0,0C212,43.9,212,43.9,212,43.9z M211.3,43.6
	C211.3,43.6,211.3,43.6,211.3,43.6c-0.1,0.1-0.2,0.2-0.2,0.4c0.1,0,0.1,0.1,0.2,0.1c0.1,0.1,0.1,0.1,0.2,0.2c0,0,0,0,0,0v0
	c0,0,0,0,0-0.1c0-0.1,0-0.1,0-0.2c0-0.1,0-0.1,0-0.1C211.6,43.7,211.4,43.6,211.3,43.6z M208.8,43c-0.1,0-0.1,0-0.1,0.1c0,0,0,0,0,0
	c0,0,0,0,0,0c0,0,0,0,0,0C208.8,43,208.8,43,208.8,43C208.8,43,208.8,43,208.8,43c0,0.1,0,0.1,0,0.1c0,0,0,0,0,0c0,0,0,0,0,0
	C208.9,43,208.9,43,208.8,43C208.9,43,208.8,43,208.8,43z M185.9,42.6c0,0,0.1,0,0.1-0.1C186.1,42.4,185.8,42.6,185.9,42.6z
	 M187.1,42.6c0,0,0.1,0,0.1-0.1C187.2,42.4,186.8,42.6,187.1,42.6z M170.4,42.6h0.1C170.5,42.6,170.5,42.6,170.4,42.6
	C170.4,42.6,170.4,42.6,170.4,42.6z M171.3,42.6C171.3,42.6,171.4,42.6,171.3,42.6L171.3,42.6L171.3,42.6
	C171.4,42.6,171.3,42.6,171.3,42.6z M171.1,42.3C171.1,42.3,171.2,42.3,171.1,42.3C171.2,42.2,171.2,42.2,171.1,42.3
	C171.2,42.3,171.1,42.3,171.1,42.3z M152.3,42.8L152.3,42.8c0,0.1,0.1,0.1,0.1,0.1C152.4,42.9,152.4,42.8,152.3,42.8z M169.8,42.6
	L169.8,42.6C169.9,42.6,169.9,42.6,169.8,42.6C169.8,42.6,169.8,42.6,169.8,42.6z M169.4,42.6L169.4,42.6
	C169.4,42.6,169.4,42.6,169.4,42.6L169.4,42.6z M176.4,42.3C176.4,42.3,176.5,42.3,176.4,42.3C176.5,42.3,176.5,42.3,176.4,42.3
	C176.4,42.2,176.4,42.2,176.4,42.3C176.4,42.2,176.4,42.3,176.4,42.3z M175.9,42.5C175.9,42.6,175.9,42.6,175.9,42.5l0.1,0.1
	C176.1,42.6,176,42.5,175.9,42.5C176,42.5,176,42.6,175.9,42.5z M171.7,42.6L171.7,42.6C171.8,42.6,171.8,42.6,171.7,42.6
	C171.8,42.6,171.8,42.6,171.7,42.6z M176.7,42.6L176.7,42.6C176.7,42.6,176.6,42.6,176.7,42.6C176.6,42.6,176.6,42.6,176.7,42.6z
	 M173,42.6c0,0-0.1,0-0.1,0C172.9,42.6,172.9,42.6,173,42.6z M174.8,42.5c0-0.1,0.1-0.1-0.1-0.1C174.7,42.5,174.7,42.6,174.8,42.5z"
	/>
<path class="st1" d="M88.4,32.1C88.4,32.1,88.4,32.1,88.4,32.1C88.4,32.1,88.4,32.1,88.4,32.1c0.1,0,0.1-0.1,0.1-0.1
	c0-0.1,0-0.1,0-0.1c0,0,0,0,0,0c0,0,0,0,0,0c0,0,0.1,0,0.1,0c0,0,0-0.1,0-0.1c0-0.2,0-0.5-0.4-0.5c0,0-0.1,0-0.1,0
	c-0.1,0-0.1,0.1-0.1,0.1c0,0.1,0,0.1,0,0.2C88.1,31.8,88.1,32,88.4,32.1z"/>
<path class="st1" d="M414.8,30.1C414.8,30.1,414.7,30.1,414.8,30.1c-0.2,0.3-0.2,0.4-0.1,0.5c0.1,0.1,0.3,0.1,0.4,0.2
	c0.1,0,0.2,0,0.3,0.1c0,0,0,0.1,0,0.2c0,0,0,0.1,0,0.1c0,0,0.1,0,0.1,0c0,0,0,0,0,0l0,0c0.4,0,0.8,0,1-0.3c0.1-0.1,0.2-0.3,0.1-0.5
	c0,0,0-0.1-0.1-0.1c0,0,0,0-0.1,0c0,0,0,0-0.1,0c-0.1,0.1-0.3,0.1-0.4,0.1c-0.1,0-0.2-0.1-0.4-0.1c-0.2-0.1-0.4-0.2-0.8-0.2
	C414.9,30.1,414.9,30.1,414.8,30.1z"/>
<path class="st1" d="M109.4,39.5C109.4,39.5,109.4,39.5,109.4,39.5c-0.1,0-0.2,0.1-0.2,0.2s0.1,0.1,0.1,0.1c0.1,0,0.2,0,0.3-0.1
	c0-0.1,0.1-0.1,0.1-0.2C109.6,39.5,109.5,39.5,109.4,39.5C109.5,39.5,109.5,39.5,109.4,39.5z"/>
<path class="st1" d="M188,29.5C188,29.5,188,29.5,188,29.5c0,0,0.1,0,0.1,0c0,0,0.1,0,0.1,0c0,0,0.1,0,0.1,0c0.2,0,0.5,0,0.6-0.2
	c0,0,0,0,0-0.1c-0.1-0.2-0.1-0.2-0.2-0.4c-0.1,0-0.2,0-0.2,0c-0.2,0-0.5,0.1-0.6,0.2C188,29.1,187.9,29.2,188,29.5
	C187.9,29.4,188,29.5,188,29.5z"/>
<path class="st1" d="M29.6,29.6C29.6,29.6,29.6,29.6,29.6,29.6c0.1-0.1,0.1-0.1,0.1-0.1c-0.1-0.5-0.3-0.8-0.7-1c0,0.1,0,0.3,0,0.4
	c0,0,0,0.1,0,0.1c0,0.2,0,0.4,0,0.6c0,0.1,0,0.2,0,0.3c0,0,0,0,0,0c0.1-0.2,0.2-0.3,0.4-0.3C29.5,29.6,29.5,29.6,29.6,29.6
	C29.6,29.6,29.6,29.6,29.6,29.6z"/>
<path class="st1" d="M112.1,24.5C112.1,24.5,112.1,24.5,112.1,24.5C112.1,24.5,112.1,24.5,112.1,24.5c0.1-0.1,0.1-0.1,0.2-0.2
	c0.1,0,0.3-0.1,0.2-0.3c0,0,0-0.1-0.1-0.1c-0.1,0-0.3-0.1-0.4-0.2c-0.2-0.1-0.3-0.2-0.5-0.2c0,0.1,0,0.1,0,0.2c0,0.1,0,0.1,0,0.2
	c0,0,0.1,0.1,0.1,0.2C111.7,24.3,111.8,24.5,112.1,24.5C112.1,24.5,112.1,24.5,112.1,24.5z"/>
<path class="st1" d="M165.6,39.5C165.6,39.5,165.6,39.5,165.6,39.5c-0.1,0-0.2,0.1-0.2,0.2s0.1,0.1,0.1,0.1c0.1,0,0.2,0,0.3-0.1
	c0-0.1,0.1-0.1,0.1-0.2C165.8,39.5,165.7,39.5,165.6,39.5C165.6,39.5,165.6,39.5,165.6,39.5z"/>
<path class="st1" d="M187.9,43.7v-0.5c0-0.1-0.1-0.1-0.1-0.1h-0.4c0,0.3-0.1,0.5-0.1,0.7h0.5C187.9,43.8,187.9,43.8,187.9,43.7z"/>
<path class="st1" d="M170.8,32.7C170.8,32.7,170.9,32.7,170.8,32.7c0.1-0.1,0.1-0.1,0.1-0.1c-0.1-0.4-0.3-0.7-0.6-0.9
	c0,0.1,0,0.3,0,0.4c0,0,0,0.1,0,0.1c0,0.2,0,0.3,0,0.5c0,0.1,0,0.2,0,0.3c0,0,0,0,0,0c0.1-0.1,0.2-0.3,0.4-0.3
	C170.7,32.7,170.8,32.7,170.8,32.7C170.8,32.7,170.8,32.7,170.8,32.7z"/>
<path class="st1" d="M159.6,34.3C159.7,34.3,159.7,34.3,159.6,34.3C159.7,34.3,159.7,34.3,159.6,34.3c0.1-0.1,0.1-0.1,0.2-0.2
	c0.1,0,0.3-0.1,0.2-0.3c0,0,0,0-0.1-0.1c-0.1,0-0.3-0.1-0.4-0.2c-0.2-0.1-0.3-0.2-0.5-0.2c0,0.1,0,0.1,0,0.2c0,0.1,0,0.1,0,0.2
	c0,0,0.1,0.1,0.1,0.1C159.3,34.1,159.4,34.3,159.6,34.3C159.6,34.3,159.6,34.3,159.6,34.3z"/>
<path class="st1" d="M149.8,36.9c0,0.1,0,0.1,0,0.2c0,0,0,0,0,0l0,0C149.8,37,149.8,37,149.8,36.9C149.8,36.9,149.8,36.9,149.8,36.9
	C149.8,36.9,149.8,36.9,149.8,36.9z"/>
<path class="st1" d="M103.3,22.5c0-0.1,0-0.1,0-0.2C103.3,22.3,103.2,22.4,103.3,22.5C103.2,22.4,103.3,22.4,103.3,22.5z"/>
<path class="st1" d="M130.1,24.6C130.1,24.7,130.1,24.7,130.1,24.6l0.2,0.1c0.3,0,0.6-0.4,0.4-0.7c-0.1-0.1-0.2-0.2-0.3-0.2
	c0,0,0,0,0,0c0,0-0.1,0-0.1,0.1c0,0.1,0,0.1-0.1,0.2C130.1,24.2,130,24.4,130.1,24.6z"/>
<path class="st1" d="M117.6,30.6C117.7,30.6,117.7,30.6,117.6,30.6c0.1,0,0.1,0,0.1-0.1c0,0,0,0,0.1,0c0.2-0.1,0.4-0.3,0.3-0.4
	c0-0.1-0.2-0.2-0.3-0.2c0,0,0,0,0,0c0,0,0,0-0.1,0c0,0,0,0,0,0.1c0,0,0,0,0,0c0,0,0,0-0.1,0c0,0,0,0-0.1,0c-0.1,0-0.2,0.2-0.2,0.4
	C117.5,30.6,117.5,30.6,117.6,30.6z"/>
<path class="st1" d="M100,24.8C100,24.9,100,24.9,100,24.8c0,0.1-0.1,0.2-0.1,0.2c-0.1,0.1-0.1,0.2-0.1,0.4c0,0,0,0.1,0.1,0.1h0.4
	c0.1,0,0.2,0,0.2-0.1c0,0,0-0.1,0-0.2c0,0,0-0.1-0.1-0.1c-0.1,0-0.1,0-0.1-0.1C100.3,25,100.2,24.9,100,24.8
	C100.1,24.8,100.1,24.8,100,24.8C100.1,24.8,100,24.8,100,24.8z"/>
<path class="st1" d="M105.5,17c-0.1,0-0.1,0-0.1,0c0,0,0,0,0-0.1c0,0,0-0.1,0-0.1c0,0,0,0-0.1,0H105c0,0-0.1,0-0.1,0
	c0,0,0,0.1,0,0.1c0.1,0.4-0.1,0.4-0.3,0.5c-0.2,0.1-0.4,0.1-0.4,0.3c0,0,0,0.1,0,0.1c0.1,0.1,0.2,0.1,0.3,0.1c0.3,0,0.6-0.3,0.9-0.6
	c0.1-0.1,0.2-0.2,0.3-0.3C105.6,17.2,105.6,17.1,105.5,17C105.6,17.1,105.6,17,105.5,17z"/>
<path class="st1" d="M90.9,28.8C90.9,28.8,90.9,28.8,90.9,28.8c0,0.1,0,0.1,0.1,0.1c0.3,0.1,0.5,0,0.6,0c0,0,0.1-0.1,0.1-0.2
	c0-0.2-0.2-0.3-0.4-0.3C91.2,28.4,91,28.4,90.9,28.8z"/>
<path class="st1" d="M121.2,30.1c-0.2-0.1-0.3-0.1-0.4,0c-0.2,0.1-0.2,0.3-0.2,0.4c0,0.1,0,0.3,0.1,0.3c0.1,0.1,0.1,0.1,0.2,0.1
	c0,0,0.1,0,0.1-0.1c0-0.1,0-0.1,0-0.1c0,0,0,0,0.1,0c0,0,0.1,0,0.1,0c0,0,0,0,0-0.1L121.2,30.1C121.2,30.2,121.2,30.1,121.2,30.1z"
	/>
<path class="st1" d="M95.8,40.5C95.8,40.5,95.8,40.4,95.8,40.5c0,0,0-0.1,0-0.1c0-0.1,0-0.2,0-0.3c-0.1,0-0.3,0-0.4,0
	c-0.1,0-0.1,0-0.2,0c0,0.2,0.1,0.4,0.2,0.5c0.1,0.1,0.2,0.1,0.2,0.1C95.7,40.6,95.8,40.5,95.8,40.5z"/>
<path class="st1" d="M71.5,34.1C71.5,34.1,71.5,34.1,71.5,34.1c0-0.1,0.1-0.2,0.2-0.2c0.1,0,0.2-0.1,0.3-0.2c0,0,0,0,0,0
	c0,0,0,0,0-0.1c0,0,0,0-0.1,0c-0.1,0-0.1,0-0.2-0.1c-0.1-0.1-0.2-0.2-0.4-0.1c0,0-0.1,0-0.1,0.1c0,0,0,0,0,0c0,0.1,0,0.1,0,0.2
	C71.1,33.8,71.1,34.1,71.5,34.1C71.4,34.2,71.4,34.1,71.5,34.1z"/>
<path class="st1" d="M181.9,9.8c0,0.1,0,0.1,0,0.2c0,0.1,0,0.3,0.1,0.4c0.1,0.1,0.2,0.1,0.4,0c0,0,0.1,0,0.1-0.1c0-0.1,0-0.2,0-0.2
	c0-0.2,0-0.3-0.1-0.4c-0.1,0-0.3,0-0.5,0C181.9,9.7,181.9,9.8,181.9,9.8z"/>
<path class="st1" d="M155.9,20.6c0-0.1,0-0.1,0-0.2C155.9,20.4,155.9,20.5,155.9,20.6C155.9,20.5,155.9,20.5,155.9,20.6z"/>
<path class="st1" d="M140,20c0,0-0.1,0-0.1,0c0,0-0.1,0-0.1,0.1c-0.1,0.6,0.2,0.8,0.4,0.8c0,0,0,0,0,0c0,0,0,0,0.1,0
	c0.2-0.2,0.2-0.4,0.2-0.6C140.4,20.1,140.3,20,140,20z"/>
<path class="st1" d="M150.4,31.8C150.4,31.8,150.4,31.8,150.4,31.8C150.5,31.8,150.5,31.8,150.4,31.8
	C150.5,31.8,150.5,31.8,150.4,31.8c0.2-0.1,0.3-0.2,0.2-0.3c0-0.1-0.1-0.1-0.1-0.1c0,0,0,0,0,0c0,0,0,0,0,0c0,0,0,0,0,0.1
	c0,0,0,0,0,0c0,0,0,0,0,0c0,0,0,0,0,0C150.4,31.6,150.3,31.7,150.4,31.8C150.3,31.8,150.4,31.8,150.4,31.8z"/>
<path class="st1" d="M162.3,23.1C162.3,23.1,162.3,23.1,162.3,23.1c0,0.1,0.2,0.2,0.3,0.3c0,0,0,0,0.1,0.1c0,0,0,0.1,0.1,0.1
	c0,0,0,0,0.1,0c0,0,0,0,0,0c0-0.4-0.1-0.6-0.4-0.7c0,0,0,0,0,0c0,0,0,0,0,0c0,0,0,0,0,0c0,0.1,0,0.1,0,0.1
	C162.3,23,162.2,23,162.3,23.1z"/>
<path class="st1" d="M153.6,24.8C153.6,24.9,153.6,24.9,153.6,24.8c0,0.1-0.1,0.2-0.1,0.2c-0.1,0.1-0.1,0.2-0.1,0.4
	c0,0,0,0.1,0.1,0.1h0.4c0.1,0,0.2,0,0.2-0.1c0,0,0-0.1,0-0.2c0,0,0-0.1-0.1-0.1c-0.1,0-0.1,0-0.1-0.1
	C153.9,25,153.8,24.9,153.6,24.8C153.7,24.8,153.7,24.8,153.6,24.8C153.6,24.8,153.6,24.8,153.6,24.8z"/>
<path class="st1" d="M146.3,17.1c-0.1,0-0.2,0-0.2,0.1c0.1,0.1,0.1,0.2,0.2,0.3c0,0,0,0,0,0c0.1,0,0.2,0,0.3-0.1c0.1,0,0.1,0,0.2,0
	c0,0,0,0,0,0c0-0.2,0-0.3-0.1-0.4c0,0-0.1-0.1-0.2-0.1c0,0,0,0-0.1,0c0,0,0,0,0,0c0,0,0,0,0,0c0,0,0,0.1,0,0.1
	C146.5,17.1,146.4,17.1,146.3,17.1z"/>
<path class="st1" d="M193.5,10.3C193.5,10.3,193.5,10.3,193.5,10.3c0,0.1,0,0.1,0.1,0.1c0.3,0.1,0.5,0,0.6,0c0,0,0.1-0.1,0.1-0.2
	c0-0.2-0.2-0.3-0.4-0.3C193.8,9.9,193.5,9.9,193.5,10.3z"/>
<path class="st1" d="M144.6,32.7c0.2-0.1,0.4-0.1,0.6-0.2C144.9,32.4,144.7,32.5,144.6,32.7z"/>
<path class="st1" d="M150.1,28C150.1,28,150.1,28,150.1,28c0,0,0-0.1,0-0.1c0-0.1,0-0.2,0-0.3c-0.1,0-0.2,0-0.3,0
	c-0.1,0-0.1,0-0.2,0c0,0.2,0.1,0.3,0.2,0.4C149.9,28.1,150,28.1,150.1,28C150.1,28.1,150.1,28,150.1,28z"/>
<path class="st1" d="M157.6,28.6C157.6,28.6,157.6,28.6,157.6,28.6C157.6,28.5,157.6,28.5,157.6,28.6c-0.1-0.1-0.1-0.2-0.1-0.3
	c0-0.1,0-0.1,0-0.2c0,0,0-0.1,0-0.1c0-0.1-0.1-0.2-0.3-0.3c0,0,0,0,0,0c0,0,0,0,0,0c0,0.1,0,0.1-0.2,0.1c0,0-0.1,0-0.1,0
	c0,0.1,0,0.1,0,0.2c0,0.1,0,0.2,0.1,0.2c0,0.1,0.1,0.1,0.1,0.2c0,0,0,0,0,0.1c0,0,0,0,0,0c0,0,0,0,0,0c0,0,0,0,0,0L157.6,28.6
	C157.5,28.6,157.5,28.6,157.6,28.6z"/>
<path class="st1" d="M156.4,25.3c0,0.1,0,0.1,0,0.2c0,0.1,0,0.3,0.1,0.3c0.1,0.1,0.2,0.1,0.4,0c0,0,0.1,0,0.1-0.1c0-0.1,0-0.1,0-0.2
	c0-0.2,0-0.3-0.1-0.4c-0.1,0-0.3,0-0.5,0C156.4,25.2,156.4,25.3,156.4,25.3z"/>
<path class="st1" d="M95.2,27.2C95.2,27.2,95.2,27.2,95.2,27.2c0,0.1,0,0.1,0.1,0.1c0,0,0,0,0,0.1c0.1,0.2,0.3,0.4,0.4,0.3
	c0.1,0,0.2-0.2,0.2-0.3c0,0,0,0,0,0c0,0,0,0,0-0.1c0,0,0,0-0.1,0c0,0,0,0,0,0c0,0,0,0,0-0.1c0,0,0,0,0-0.1c0-0.1-0.2-0.2-0.4-0.2
	C95.3,27,95.2,27.1,95.2,27.2z"/>
<path class="st1" d="M126.3,37.2c-0.1,0-0.1,0.1-0.1,0.3c0,0.2,0.1,0.5,0.3,0.5c0.1,0,0.2,0,0.3-0.1c0,0,0.1-0.1,0.1-0.2
	c0-0.2-0.2-0.5-0.3-0.5C126.5,37.2,126.4,37.2,126.3,37.2z"/>
<path class="st1" d="M100.6,19.7C100.6,19.7,100.6,19.7,100.6,19.7c-0.2,0.1-0.3,0.2-0.3,0.3c0,0,0,0-0.1,0.1c0,0-0.1,0-0.1,0.1
	c0,0,0,0,0,0.1c0,0,0,0,0,0c0.4,0,0.7-0.1,0.8-0.4c0,0,0,0,0,0c0,0,0,0,0,0c0,0,0,0,0,0c-0.1,0-0.1,0-0.1,0
	C100.7,19.7,100.6,19.7,100.6,19.7z"/>
<path class="st1" d="M312.4,15.6c0.1,0,0.1,0,0.2,0c0,0,0.1,0,0.1-0.1v-0.2c-0.1,0-0.2,0-0.2,0c-0.2,0-0.4,0-0.8,0
	c-0.1,0-0.1,0-0.2,0c0,0,0,0.1,0.1,0.1C311.8,15.6,312.1,15.6,312.4,15.6z"/>
<path class="st1" d="M125.8,32.3c0-0.1-0.1-0.2-0.2-0.2c-0.1,0-0.2,0.1-0.2,0.2c0,0.3-0.1,0.4-0.3,0.5c0.1,0,0.3,0,0.4,0
	C125.7,32.6,125.8,32.5,125.8,32.3z"/>
<path class="st1" d="M326.4,17.8C326.4,17.7,326.4,17.7,326.4,17.8c-0.2-0.1-0.3-0.1-0.4-0.1c-0.1,0.1-0.1,0.2-0.1,0.4
	c0,0.1,0,0.2,0,0.2c0,0-0.1,0-0.2,0c0,0-0.1,0-0.1,0c0,0,0,0,0,0.1c0,0,0,0,0,0l0,0c0,0.3,0,0.6,0.2,0.8c0.1,0.1,0.2,0.1,0.4,0.1
	c0,0,0.1,0,0.1,0c0,0,0,0,0,0c0,0,0,0,0,0c-0.1-0.1-0.1-0.2-0.1-0.3c0-0.1,0-0.2,0.1-0.3c0.1-0.2,0.2-0.3,0.2-0.7
	C326.4,17.8,326.4,17.8,326.4,17.8z"/>
<path class="st1" d="M120.8,16.7h0.4c0.1,0,0.1,0,0.1-0.1v-0.3c-0.2,0-0.4-0.1-0.6-0.1v0.4C120.7,16.6,120.8,16.7,120.8,16.7z"/>
<path class="st1" d="M130,16.9C130,16.9,130,16.9,130,16.9C130,16.9,130,16.9,130,16.9c0.1,0.1,0.1,0.1,0.2,0.2
	c0,0.1,0.1,0.3,0.3,0.2c0,0,0.1,0,0.1-0.1c0-0.1,0.1-0.3,0.2-0.4c0.1-0.2,0.2-0.3,0.2-0.5c-0.1,0-0.1,0-0.2,0c-0.1,0-0.1,0-0.2,0
	c0,0-0.1,0.1-0.2,0.1C130.2,16.5,130,16.6,130,16.9C130,16.9,130,16.9,130,16.9z"/>
<path class="st1" d="M361.6,23.3c-0.1,0-0.2,0-0.3-0.1c0,0,0,0-0.1,0c0,0,0,0,0,0C361.3,23.3,361.4,23.3,361.6,23.3
	C361.5,23.3,361.6,23.3,361.6,23.3C361.6,23.3,361.6,23.3,361.6,23.3z"/>
<path class="st1" d="M38.3,33.4c0.1-0.2,0.1-0.3,0-0.4c-0.1-0.2-0.3-0.2-0.4-0.2c-0.1,0-0.3,0-0.3,0.1c-0.1,0.1-0.1,0.1-0.1,0.2
	c0,0,0,0.1,0.1,0.1c0.1,0,0.1,0,0.1,0c0,0,0,0,0,0.1c0,0,0,0.1,0,0.1c0,0,0,0,0.1,0L38.3,33.4C38.3,33.5,38.3,33.5,38.3,33.4z"/>
<path class="st1" d="M109.1,37.8C109.2,37.8,109.2,37.8,109.1,37.8c0.2,0,0.3-0.2,0.3-0.3c0-0.1,0.1-0.2,0.1-0.2c0,0,0,0,0,0
	c0,0,0,0,0,0c-0.1,0-0.1-0.1-0.2-0.3c0,0,0,0,0,0c0,0,0,0-0.1,0c-0.1,0-0.1,0-0.1,0c0,0,0,0,0,0c0,0,0,0,0,0c0,0,0,0,0,0
	c0,0,0,0-0.1,0l0,0l0,0c-0.1,0-0.2,0-0.2,0.1c0,0,0,0,0,0c0,0,0,0,0,0l0.1,0c0,0.1,0,0.2,0,0.3C109,37.4,109,37.7,109.1,37.8
	C109.1,37.8,109.1,37.8,109.1,37.8z"/>
<path class="st1" d="M85.3,20.8C85.4,20.8,85.4,20.8,85.3,20.8C85.4,20.8,85.4,20.8,85.3,20.8c0.2-0.1,0.2-0.1,0.3-0.1
	c0.1,0,0.1,0,0.2,0c0,0,0.1,0,0.1,0c0.1,0,0.2-0.1,0.3-0.3c0,0,0,0,0-0.1c0,0,0,0,0,0c-0.1,0-0.1-0.1-0.1-0.2c0,0,0-0.1,0-0.1
	c-0.1,0-0.1,0-0.2,0c-0.1,0-0.2,0.1-0.3,0.1c-0.1,0-0.1,0.1-0.2,0.1c0,0,0,0-0.1,0c0,0,0,0,0,0c0,0,0,0,0,0c0,0,0,0,0,0.1L85.3,20.8
	C85.3,20.8,85.3,20.8,85.3,20.8z"/>
<path class="st1" d="M398.6,22.5c0-0.1,0-0.1,0-0.2C398.6,22.3,398.6,22.4,398.6,22.5C398.6,22.4,398.6,22.4,398.6,22.5z"/>
<path class="st1" d="M395.4,24.8C395.3,24.9,395.3,24.9,395.4,24.8c0,0.1-0.1,0.2-0.1,0.2c-0.1,0.1-0.1,0.2-0.1,0.4
	c0,0,0,0.1,0.1,0.1h0.4c0.1,0,0.2,0,0.2-0.1c0,0,0-0.1,0-0.2c0,0,0-0.1-0.1-0.1c-0.1,0-0.1,0-0.1-0.1
	C395.6,25,395.6,24.9,395.4,24.8C395.4,24.8,395.4,24.8,395.4,24.8C395.4,24.8,395.4,24.8,395.4,24.8z"/>
<path class="st1" d="M400.9,17c-0.1,0-0.1,0-0.1,0c0,0,0,0,0-0.1c0,0,0-0.1,0-0.1c0,0,0,0-0.1,0h-0.4c0,0-0.1,0-0.1,0
	c0,0,0,0.1,0,0.1c0.1,0.4-0.1,0.4-0.3,0.5c-0.2,0.1-0.4,0.1-0.4,0.3c0,0,0,0.1,0,0.1c0.1,0.1,0.2,0.1,0.3,0.1c0.3,0,0.6-0.3,0.9-0.6
	c0.1-0.1,0.2-0.2,0.3-0.3C400.9,17.2,400.9,17.1,400.9,17C400.9,17.1,400.9,17,400.9,17z"/>
<path class="st1" d="M395.9,19.7C395.9,19.7,395.9,19.7,395.9,19.7c-0.2,0.1-0.3,0.2-0.3,0.3c0,0,0,0-0.1,0.1c0,0-0.1,0-0.1,0.1
	c0,0,0,0,0,0.1c0,0,0,0,0,0c0.4,0,0.7-0.1,0.8-0.4c0,0,0,0,0,0c0,0,0,0,0,0c0,0,0,0,0,0c-0.1,0-0.1,0-0.1,0
	C396,19.7,396,19.7,395.9,19.7z"/>
<path class="st1" d="M380.7,20.8C380.7,20.8,380.7,20.8,380.7,20.8C380.7,20.8,380.7,20.8,380.7,20.8c0.2-0.1,0.2-0.1,0.3-0.1
	c0.1,0,0.1,0,0.2,0c0,0,0.1,0,0.1,0c0.1,0,0.2-0.1,0.3-0.3c0,0,0,0,0-0.1c0,0,0,0,0,0c-0.1,0-0.1-0.1-0.1-0.2c0,0,0-0.1,0-0.1
	c-0.1,0-0.1,0-0.2,0c-0.1,0-0.2,0.1-0.3,0.1c-0.1,0-0.1,0.1-0.2,0.1c0,0,0,0-0.1,0c0,0,0,0,0,0c0,0,0,0,0,0c0,0,0,0,0,0.1
	L380.7,20.8C380.6,20.8,380.7,20.8,380.7,20.8z"/>
<path class="st1" d="M76.8,26.8c0.2,0,0.4,0,0.5-0.1c0.1-0.1,0.2-0.2,0.2-0.4c0,0,0-0.1,0-0.1c0,0,0-0.1-0.1-0.1h-0.2
	c-0.3,0-0.5,0.2-0.5,0.5L76.8,26.8C76.7,26.8,76.7,26.8,76.8,26.8z"/>
<path class="st1" d="M187.9,7.8C187.9,7.8,187.9,7.8,187.9,7.8c-0.2,0.1-0.3,0.2-0.3,0.3c0,0,0,0-0.1,0.1c0,0-0.1,0-0.1,0.1
	c0,0,0,0,0,0.1c0,0,0,0,0,0c0.4,0,0.7-0.1,0.8-0.4c0,0,0,0,0,0c0,0,0,0,0,0c0,0,0,0,0,0c-0.1,0-0.1,0-0.1,0
	C188.1,7.9,188,7.8,187.9,7.8z"/>
<path class="st1" d="M152.9,33.9v-0.1c0-0.1-0.1-0.3-0.3-0.3h-0.1c-0.1,0-0.3,0.1-0.3,0.3v0.1c0,0.1,0.1,0.3,0.3,0.3h0.1
	C152.8,34.2,152.9,34.1,152.9,33.9z"/>
<path class="st1" d="M137.4,30.7c0.1-0.2,0.1-0.3,0-0.4c-0.1-0.2-0.3-0.2-0.4-0.2c-0.1,0-0.3,0-0.3,0.1c-0.1,0.1-0.1,0.1-0.1,0.2
	c0,0,0,0.1,0.1,0.1c0.1,0,0.1,0,0.1,0c0,0,0,0,0,0.1c0,0,0,0.1,0,0.1c0,0,0,0,0.1,0L137.4,30.7C137.4,30.7,137.4,30.7,137.4,30.7z"
	/>
</svg>
